{"glyphs":{"0":{"ha":803,"x_min":0,"x_max":0,"o":"m 401 32 b 682 467 588 32 682 210 b 401 904 682 724 588 904 b 121 469 215 904 121 726 b 401 32 121 213 215 32 m 401 113 b 592 469 538 113 592 261 b 401 824 592 678 539 824 b 211 467 265 824 211 675 b 401 113 211 258 264 113 m 401 63 b 160 467 229 63 160 229 b 401 874 160 706 229 874 b 643 469 574 874 643 707 b 401 63 643 231 574 63 m 401 -18 b 69 469 182 -18 69 181 b 401 954 69 758 182 954 b 733 467 621 954 733 756 b 401 -18 733 178 621 -18 "},"1":{"ha":490,"x_min":0,"x_max":0,"o":"m 299 0 l 299 888 l 58 790 l 43 842 l 344 963 l 344 0 m 219 0 l 219 767 l 82 713 l 67 763 l 267 842 l 267 0 "},"2":{"ha":771,"x_min":0,"x_max":0,"o":"m 88 0 l 88 107 b 508 667 424 428 508 517 b 358 824 508 774 436 824 b 189 710 289 824 235 793 l 149 738 b 358 874 193 817 253 874 b 560 667 465 874 560 807 b 138 85 560 497 472 406 l 138 50 l 706 50 l 706 0 m 183 83 b 597 669 451 343 597 472 b 364 904 597 826 486 904 b 122 756 243 904 182 851 l 83 783 b 364 954 157 906 236 954 b 649 669 514 954 649 860 b 304 133 649 447 465 294 l 706 133 l 706 83 "},"3":{"ha":769,"x_min":0,"x_max":0,"o":"m 211 510 l 211 560 l 314 560 b 504 701 428 560 504 610 b 356 824 504 778 443 824 b 171 736 276 824 224 797 l 136 772 b 356 874 190 836 256 874 b 554 701 474 874 554 806 b 314 510 554 585 467 510 m 107 147 b 360 32 169 78 254 32 b 632 264 507 32 632 108 b 429 496 632 394 544 471 b 593 703 529 521 593 606 b 356 904 593 843 476 904 b 114 794 251 904 179 867 l 79 829 b 356 954 157 911 236 954 b 643 703 519 954 643 865 b 531 503 643 615 599 546 b 683 264 622 463 683 386 b 360 -18 683 72 536 -18 b 69 111 240 -18 158 24 m 167 206 b 360 113 219 139 286 113 b 543 264 476 113 543 163 b 311 426 543 372 461 426 l 211 426 l 211 476 l 311 476 b 594 264 494 476 594 400 b 360 63 594 124 485 63 b 129 169 267 63 192 94 "},"4":{"ha":804,"x_min":0,"x_max":0,"o":"m 138 319 l 542 874 l 542 319 m 494 0 l 494 239 l 56 239 l 56 347 l 499 954 l 619 954 l 619 369 l 763 369 l 763 319 l 574 319 l 574 901 l 521 901 l 106 331 l 106 289 l 542 289 l 542 0 m 574 0 l 574 289 l 763 289 l 763 239 l 619 239 l 619 0 m 494 731 l 236 369 l 494 369 "},"5":{"ha":731,"x_min":0,"x_max":0,"o":"m 89 147 b 342 32 151 78 236 32 b 615 279 514 32 615 136 b 319 547 615 469 476 547 b 215 540 286 547 250 544 l 215 853 l 622 853 l 622 803 l 261 803 l 261 590 b 325 593 279 592 307 593 b 665 279 510 593 665 501 b 342 -18 665 110 531 -18 b 51 111 222 -18 140 24 m 149 206 b 342 113 201 139 268 113 b 526 278 457 113 526 174 b 304 467 526 403 443 467 b 136 443 254 467 194 457 l 136 936 l 622 936 l 622 886 l 183 886 l 183 501 b 304 514 217 508 267 514 b 576 278 476 514 576 435 b 342 63 576 126 461 63 b 111 169 249 63 174 94 "},"6":{"ha":835,"x_min":0,"x_max":0,"o":"m 204 397 b 435 526 264 472 340 526 b 653 297 585 526 653 431 b 436 63 653 156 563 63 b 204 374 274 63 204 210 m 708 789 b 476 904 636 872 557 904 b 167 422 194 904 167 592 b 433 32 167 213 232 32 b 692 308 589 32 692 140 b 451 560 692 454 597 560 b 204 443 339 560 267 513 b 468 874 204 694 286 874 b 685 767 561 874 626 833 l 647 731 b 468 824 592 796 539 824 b 258 544 329 824 272 699 b 453 606 311 581 375 606 b 742 308 626 606 742 486 b 433 -18 742 113 619 -18 b 115 422 194 -18 115 189 b 476 954 115 664 171 954 b 744 824 576 954 664 913 m 256 368 b 436 113 256 229 310 113 b 601 297 542 113 601 179 b 433 479 601 403 550 479 b 256 385 351 479 296 440 "},"7":{"ha":699,"x_min":0,"x_max":0,"o":"m 251 0 l 251 119 b 390 625 251 322 285 424 l 482 800 l 65 800 l 65 850 l 563 850 l 431 599 b 299 119 328 403 299 317 l 299 0 m 331 0 l 331 121 b 460 579 331 311 365 400 l 596 838 l 596 886 l 65 886 l 65 936 l 646 936 l 646 824 l 500 553 b 376 121 394 356 376 274 l 376 0 "},"8":{"ha":831,"x_min":0,"x_max":0,"o":"m 617 696 b 415 507 617 576 526 507 b 214 696 304 507 214 576 b 415 874 214 804 289 874 b 617 696 542 874 617 804 m 490 494 b 653 696 600 524 653 597 b 414 904 653 825 551 904 b 178 696 279 904 178 825 b 340 494 178 597 231 524 b 147 264 192 471 147 364 b 414 32 147 118 261 32 b 683 264 569 32 683 118 b 490 494 683 364 639 471 m 592 499 b 735 264 694 453 735 360 b 414 -18 735 89 594 -18 b 96 264 236 -18 96 89 b 239 499 96 361 139 457 b 126 696 165 540 126 610 b 414 954 126 860 256 954 b 704 696 575 954 704 860 b 592 499 704 610 667 544 m 597 265 b 414 429 597 371 533 429 b 233 265 297 429 233 371 b 415 113 233 163 313 113 b 597 265 518 113 597 163 m 649 265 b 415 63 649 132 540 63 b 182 265 290 63 182 132 b 417 476 182 404 271 476 b 649 265 560 476 649 404 m 565 694 b 415 824 565 778 511 824 b 265 694 319 824 265 778 b 415 554 265 606 332 554 b 565 694 500 554 565 603 "},"9":{"ha":835,"x_min":0,"x_max":0,"o":"m 631 539 b 400 410 571 464 494 410 b 182 639 250 410 182 506 b 399 874 182 781 272 874 b 631 563 561 874 631 726 m 188 206 b 367 113 243 140 296 113 b 576 392 506 113 563 238 b 382 331 524 356 460 331 b 93 628 208 331 93 450 b 401 954 93 824 215 954 b 719 514 640 954 719 747 b 358 -18 719 272 664 -18 b 90 113 258 -18 171 24 l 126 147 b 358 32 199 64 278 32 b 668 514 640 32 668 344 b 401 904 668 724 603 904 b 143 628 246 904 143 796 b 383 376 143 482 238 376 b 631 493 496 376 568 424 b 367 63 631 242 549 63 b 150 169 274 63 208 103 m 579 568 b 399 824 579 707 525 824 b 233 639 293 824 233 757 b 401 457 233 533 285 457 b 579 551 483 457 539 496 "},"\u0000":{"ha":0,"x_min":0,"x_max":0,"o":""},"\r":{"ha":347,"x_min":0,"x_max":0,"o":""}," ":{"ha":347,"x_min":0,"x_max":0,"o":""},"":{"ha":694,"x_min":0,"x_max":0,"o":""},"A":{"ha":938,"x_min":0,"x_max":0,"o":"m 851 0 l 497 893 l 443 893 l 86 0 l 28 0 l 406 943 l 533 943 l 910 0 m 749 0 l 649 260 l 285 260 l 185 0 l 128 0 l 251 310 l 685 310 l 806 0 m 264 340 l 469 856 l 672 340 m 468 732 l 336 389 l 600 389 "},"B":{"ha":947,"x_min":0,"x_max":0,"o":"m 236 500 l 236 851 l 518 851 b 710 675 636 851 710 786 b 517 500 710 560 632 500 m 236 85 l 236 468 l 507 468 b 757 278 657 468 757 408 b 514 85 757 142 676 85 m 524 50 b 797 274 669 50 797 118 b 599 486 797 399 708 481 b 750 681 692 503 750 579 b 531 886 750 822 636 886 l 197 886 l 197 50 m 146 0 l 146 936 l 531 936 b 801 681 663 936 801 858 b 706 496 801 597 764 535 b 849 274 788 463 849 393 b 524 0 849 82 699 0 m 514 132 b 706 278 643 132 706 178 b 507 421 706 374 632 421 l 288 421 l 288 132 m 517 550 b 658 675 601 550 658 592 b 518 804 658 756 604 804 l 288 804 l 288 550 "},"C":{"ha":947,"x_min":0,"x_max":0,"o":"m 846 143 b 496 -18 760 39 650 -18 b 63 467 200 -18 63 221 b 496 954 63 715 200 954 b 846 792 658 954 769 892 l 808 758 b 496 904 717 864 640 904 b 115 467 236 904 115 690 b 499 32 115 246 239 32 b 808 176 622 32 717 71 m 779 201 b 501 67 693 97 611 67 b 158 468 269 67 158 267 b 499 869 158 668 264 869 b 779 733 614 869 700 835 l 739 697 b 499 819 682 776 603 819 b 211 468 300 819 211 643 b 499 117 211 293 300 117 b 739 239 597 117 668 147 "},"D":{"ha":1031,"x_min":0,"x_max":0,"o":"m 236 86 l 236 850 l 517 850 b 874 468 735 850 874 703 b 517 86 874 243 753 86 m 524 50 b 917 469 783 50 917 242 b 524 886 917 696 792 886 l 197 886 l 197 50 m 146 0 l 146 936 l 524 936 b 968 469 828 936 968 725 b 524 0 968 213 818 0 m 517 136 b 822 468 719 136 822 274 b 517 800 822 671 704 800 l 288 800 l 288 136 "},"E":{"ha":869,"x_min":0,"x_max":0,"o":"m 144 0 l 144 936 l 725 936 l 725 886 l 196 886 l 196 50 l 753 50 l 753 0 m 235 86 l 235 467 l 683 467 l 683 418 l 286 418 l 286 136 l 753 136 l 753 86 m 235 501 l 235 850 l 725 850 l 725 800 l 286 800 l 286 550 l 683 550 l 683 501 "},"F":{"ha":849,"x_min":0,"x_max":0,"o":"m 236 464 l 236 850 l 756 850 l 756 800 l 288 800 l 288 513 l 714 513 l 714 464 m 288 381 l 288 0 l 236 0 l 236 429 l 714 429 l 714 381 m 146 0 l 146 936 l 756 936 l 756 886 l 197 886 l 197 0 "},"G":{"ha":964,"x_min":0,"x_max":0,"o":"m 717 339 l 457 339 l 457 388 l 768 388 l 768 100 b 543 65 697 75 615 65 b 158 468 282 65 158 225 b 499 869 158 668 264 869 b 779 733 614 869 700 835 l 739 697 b 499 819 682 776 603 819 b 211 468 300 819 211 643 b 543 115 211 256 318 115 b 717 138 601 115 668 122 m 804 422 l 457 422 l 457 471 l 856 471 l 856 39 b 535 -18 754 -1 643 -18 b 63 467 236 -18 63 165 b 496 954 63 715 200 954 b 846 792 658 954 769 892 l 808 758 b 496 904 717 864 640 904 b 115 467 236 904 115 690 b 535 32 115 197 269 32 b 804 76 629 32 724 47 "},"H":{"ha":1082,"x_min":0,"x_max":0,"o":"m 236 503 l 236 936 l 288 936 l 288 551 l 794 551 l 794 936 l 846 936 l 846 503 m 885 0 l 885 936 l 936 936 l 936 0 m 794 0 l 794 415 l 288 415 l 288 0 l 236 0 l 236 465 l 846 465 l 846 0 m 146 0 l 146 936 l 197 936 l 197 0 "},"I":{"ha":432,"x_min":0,"x_max":0,"o":"m 235 0 l 235 936 l 286 936 l 286 0 m 146 0 l 146 936 l 197 936 l 197 0 "},"J":{"ha":711,"x_min":0,"x_max":0,"o":"m 514 936 l 565 936 l 565 283 b 299 -18 565 85 472 -18 b 22 142 192 -18 94 19 l 61 174 b 304 32 118 76 192 32 b 514 283 446 32 514 125 m 424 936 l 475 936 l 475 285 b 306 67 475 163 426 67 b 93 199 204 67 139 113 l 133 231 b 297 117 171 157 224 117 b 424 285 383 117 424 174 "},"K":{"ha":950,"x_min":0,"x_max":0,"o":"m 146 0 l 146 936 l 197 936 l 197 0 m 700 0 l 288 450 l 288 0 l 236 0 l 236 936 l 288 936 l 288 504 l 707 936 l 778 936 l 331 479 l 771 0 m 825 0 l 376 479 l 826 936 l 896 936 l 447 479 l 896 0 "},"L":{"ha":842,"x_min":0,"x_max":0,"o":"m 236 86 l 236 936 l 288 936 l 288 136 l 765 136 l 765 86 m 146 0 l 146 936 l 197 936 l 197 50 l 765 50 l 765 0 "},"M":{"ha":1176,"x_min":0,"x_max":0,"o":"m 889 0 l 889 660 l 636 268 l 536 268 l 282 660 l 282 0 l 232 0 l 232 835 l 565 321 l 613 321 l 940 832 l 940 0 m 979 0 l 979 886 l 929 886 l 589 353 l 243 886 l 196 886 l 196 0 l 146 0 l 146 936 l 271 936 l 589 440 l 904 936 l 1031 936 l 1031 0 "},"N":{"ha":1083,"x_min":0,"x_max":0,"o":"m 242 886 l 196 886 l 196 0 l 146 0 l 146 936 l 268 936 l 801 253 l 801 936 l 851 936 l 851 107 m 818 0 l 282 682 l 282 0 l 232 0 l 232 838 l 846 50 l 888 50 l 888 936 l 938 936 l 938 0 "},"O":{"ha":1042,"x_min":0,"x_max":0,"o":"m 522 67 b 158 468 267 67 158 271 b 519 869 158 667 264 869 b 883 468 775 869 883 665 b 522 67 883 269 778 67 m 522 32 b 926 467 794 32 926 240 b 519 904 926 696 793 904 b 115 469 247 904 115 696 b 522 32 115 240 249 32 m 522 -18 b 63 469 214 -18 63 214 b 519 954 63 722 211 954 b 979 467 826 954 979 722 b 522 -18 979 214 831 -18 m 522 117 b 831 468 738 117 831 294 b 519 819 831 639 736 819 b 211 468 304 819 211 642 b 522 117 211 297 306 117 "},"P":{"ha":890,"x_min":0,"x_max":0,"o":"m 236 415 l 236 851 l 500 851 b 724 635 636 851 724 767 b 499 415 724 492 647 415 m 236 0 l 236 381 l 503 381 b 764 638 667 381 764 479 b 504 886 764 789 658 886 l 197 886 l 197 0 l 146 0 l 146 936 l 504 936 b 814 638 689 936 814 821 b 503 331 814 447 700 331 l 288 331 l 288 0 m 499 464 b 672 635 614 464 672 526 b 500 804 672 736 606 804 l 288 804 l 288 464 "},"Q":{"ha":1042,"x_min":0,"x_max":0,"o":"m 522 67 b 158 468 267 67 158 271 b 519 869 158 667 264 869 b 883 468 775 869 883 665 b 522 67 883 269 778 67 m 522 117 b 831 468 738 117 831 294 b 519 819 831 639 736 819 b 211 468 304 819 211 642 b 522 117 211 297 306 117 m 819 -289 l 564 33 b 926 467 813 56 926 256 b 519 904 926 696 793 904 b 115 469 247 904 115 696 b 528 32 115 240 246 32 l 775 -289 l 714 -289 l 506 -18 b 63 469 210 -11 63 218 b 519 954 63 722 211 954 b 979 467 826 954 979 722 b 651 -1 979 253 872 51 l 879 -289 "},"R":{"ha":956,"x_min":0,"x_max":0,"o":"m 701 0 l 454 374 l 288 374 l 288 0 l 236 0 l 236 422 l 482 422 l 764 0 m 236 454 l 236 853 l 499 853 b 707 657 615 853 707 781 b 490 454 707 515 614 454 m 815 0 l 526 424 b 747 658 632 435 747 500 b 503 888 747 801 638 888 l 197 888 l 197 0 l 146 0 l 146 936 l 503 936 b 799 658 665 936 799 836 b 611 393 799 513 718 428 l 879 0 m 490 503 b 656 657 586 503 656 553 b 499 803 656 749 588 803 l 288 803 l 288 503 "},"S":{"ha":913,"x_min":0,"x_max":0,"o":"m 753 756 b 468 904 656 879 567 904 b 210 690 292 904 210 815 b 449 465 210 558 332 506 b 690 240 611 411 690 367 b 461 68 690 147 601 68 b 176 215 356 68 257 107 l 217 253 b 461 118 282 167 357 118 b 639 240 581 118 639 169 b 433 415 639 339 561 371 b 160 690 301 461 160 514 b 468 954 160 858 285 954 b 789 789 596 954 696 910 m 688 694 b 461 818 622 778 556 818 b 308 704 350 818 308 769 b 504 544 308 613 390 585 b 788 257 640 496 788 446 b 454 -18 788 82 642 -18 b 108 153 317 -18 210 29 l 144 186 b 454 32 242 63 347 32 b 736 257 597 32 736 101 b 486 496 736 399 619 449 b 257 704 339 549 257 585 b 461 868 257 796 321 868 b 724 728 561 868 644 835 "},"T":{"ha":875,"x_min":0,"x_max":0,"o":"m 367 0 l 367 800 l 42 800 l 42 850 l 418 850 l 418 0 m 457 0 l 457 850 l 833 850 l 833 800 l 508 800 l 508 0 m 42 886 l 42 936 l 833 936 l 833 886 "},"U":{"ha":1082,"x_min":0,"x_max":0,"o":"m 885 936 l 936 936 l 936 319 b 540 -18 936 107 775 -18 b 146 319 313 -18 146 108 l 146 936 l 197 936 l 197 319 b 540 32 197 143 343 32 b 885 319 744 32 885 142 m 794 936 l 846 936 l 846 326 b 540 67 846 168 725 67 b 236 328 361 67 236 174 l 236 936 l 288 936 l 288 328 b 539 117 288 204 393 117 b 794 326 689 117 794 200 "},"V":{"ha":938,"x_min":0,"x_max":0,"o":"m 404 -7 l 28 936 l 86 936 l 440 43 l 494 43 l 851 936 l 910 936 l 532 -7 m 132 936 l 189 936 l 469 204 l 753 936 l 810 936 l 468 81 "},"W":{"ha":1306,"x_min":0,"x_max":0,"o":"m 833 -7 l 651 682 l 468 -7 l 328 -7 l 75 936 l 129 936 l 368 43 l 425 43 l 653 847 l 875 43 l 935 43 l 1174 936 l 1231 936 l 976 -7 m 683 886 l 625 886 l 396 85 l 179 936 l 233 936 l 400 236 l 586 936 l 725 936 l 901 238 l 1076 936 l 1131 936 l 904 85 "},"X":{"ha":947,"x_min":0,"x_max":0,"o":"m 60 0 l 381 472 l 63 936 l 126 936 l 444 472 l 122 0 m 711 0 l 472 363 l 232 0 l 168 0 l 472 447 l 776 0 m 826 0 l 503 471 l 822 936 l 886 936 l 567 471 l 889 0 m 176 936 l 240 936 l 476 579 l 713 936 l 778 936 l 476 496 "},"Y":{"ha":892,"x_min":0,"x_max":0,"o":"m 374 0 l 374 429 l 36 936 l 100 936 l 425 447 l 425 0 m 464 0 l 464 447 l 792 936 l 856 936 l 515 429 l 515 0 m 150 936 l 213 936 l 447 567 l 682 936 l 744 936 l 446 482 "},"Z":{"ha":861,"x_min":0,"x_max":0,"o":"m 104 0 l 104 106 l 568 800 l 129 800 l 129 850 l 665 850 l 156 89 l 156 50 l 785 50 l 785 0 m 197 86 l 707 844 l 707 885 l 129 885 l 129 936 l 758 936 l 758 831 l 293 136 l 785 136 l 785 86 "},"À":{"ha":938,"x_min":0,"x_max":0,"o":"m 851 0 l 497 893 l 443 893 l 86 0 l 28 0 l 406 943 l 419 943 l 331 1057 l 433 1057 l 519 943 l 533 943 l 910 0 m 264 340 l 469 856 l 672 340 m 749 0 l 649 260 l 285 260 l 185 0 l 128 0 l 251 310 l 685 310 l 806 0 m 468 732 l 336 389 l 600 389 "},"Á":{"ha":938,"x_min":0,"x_max":0,"o":"m 851 0 l 497 893 l 443 893 l 86 0 l 28 0 l 406 943 l 419 943 l 506 1057 l 608 1057 l 519 943 l 533 943 l 910 0 m 264 340 l 469 856 l 672 340 m 749 0 l 649 260 l 285 260 l 185 0 l 128 0 l 251 310 l 685 310 l 806 0 m 468 732 l 336 389 l 600 389 "},"Â":{"ha":938,"x_min":0,"x_max":0,"o":"m 536 936 l 910 0 l 851 0 l 497 893 l 443 893 l 86 0 l 28 0 l 403 936 l 319 936 l 425 1057 l 514 1057 l 619 936 m 264 340 l 469 856 l 672 340 m 749 0 l 649 260 l 285 260 l 185 0 l 128 0 l 251 310 l 685 310 l 806 0 m 468 732 l 336 389 l 600 389 m 425 943 l 514 943 l 469 1000 "},"Ã":{"ha":938,"x_min":0,"x_max":0,"o":"m 572 1057 l 647 1057 b 550 931 642 996 622 931 l 538 931 l 910 0 l 851 0 l 497 893 l 443 893 l 86 0 l 28 0 l 406 943 l 490 943 b 469 953 483 946 476 949 l 376 997 l 368 936 l 293 936 b 390 1063 299 997 318 1063 b 471 1040 418 1063 442 1054 l 564 996 m 264 340 l 469 856 l 672 340 m 749 0 l 649 260 l 285 260 l 185 0 l 128 0 l 251 310 l 685 310 l 806 0 m 468 732 l 336 389 l 600 389 "},"Ä":{"ha":938,"x_min":0,"x_max":0,"o":"m 536 936 l 910 0 l 851 0 l 497 893 l 443 893 l 86 0 l 28 0 l 403 936 l 328 936 l 328 1043 l 428 1043 l 428 943 l 508 943 l 508 1043 l 608 1043 l 608 936 m 264 340 l 469 856 l 672 340 m 749 0 l 649 260 l 285 260 l 185 0 l 128 0 l 251 310 l 685 310 l 806 0 m 468 732 l 336 389 l 600 389 "},"Ā":{"ha":938,"x_min":0,"x_max":0,"o":"m 536 936 l 910 0 l 851 0 l 497 893 l 443 893 l 86 0 l 28 0 l 403 936 l 301 936 l 301 1013 l 638 1013 l 638 936 m 264 340 l 469 856 l 672 340 m 749 0 l 649 260 l 285 260 l 185 0 l 128 0 l 251 310 l 685 310 l 806 0 m 468 732 l 336 389 l 600 389 "},"Ă":{"ha":938,"x_min":0,"x_max":0,"o":"m 643 1057 b 535 938 639 989 600 951 l 910 0 l 851 0 l 497 893 l 443 893 l 86 0 l 28 0 l 403 938 b 296 1057 339 951 299 989 l 365 1057 b 469 996 369 1014 406 996 b 574 1057 532 996 569 1014 m 264 340 l 469 856 l 672 340 m 749 0 l 649 260 l 285 260 l 185 0 l 128 0 l 251 310 l 685 310 l 806 0 m 468 732 l 336 389 l 600 389 "},"Å":{"ha":938,"x_min":0,"x_max":0,"o":"m 581 1025 b 529 943 581 985 561 957 l 533 943 l 910 0 l 851 0 l 497 893 l 443 893 l 86 0 l 28 0 l 406 943 b 353 1025 372 957 353 985 b 467 1118 353 1086 396 1118 b 581 1025 538 1118 581 1085 m 264 340 l 469 856 l 672 340 m 749 0 l 649 260 l 285 260 l 185 0 l 128 0 l 251 310 l 685 310 l 806 0 m 468 732 l 336 389 l 600 389 m 517 1025 b 467 1067 517 1049 501 1067 b 418 1025 433 1067 418 1049 b 467 985 418 1003 433 985 b 517 1025 501 985 517 1000 "},"Ǻ":{"ha":938,"x_min":0,"x_max":0,"o":"m 583 1025 b 532 943 583 985 564 957 l 533 943 l 910 0 l 851 0 l 497 893 l 443 893 l 86 0 l 28 0 l 406 943 l 407 943 b 356 1025 374 957 356 985 b 424 1113 356 1071 381 1101 l 508 1224 l 611 1224 l 522 1110 b 583 1025 561 1097 583 1068 m 264 340 l 469 856 l 672 340 m 749 0 l 649 260 l 285 260 l 185 0 l 128 0 l 251 310 l 685 310 l 806 0 m 468 732 l 336 389 l 600 389 m 519 1025 b 469 1067 519 1049 504 1067 b 421 1025 436 1067 421 1049 b 469 985 421 1003 436 985 b 519 1025 504 985 519 1000 "},"Ą":{"ha":938,"x_min":0,"x_max":0,"o":"m 851 0 l 497 893 l 443 893 l 86 0 l 28 0 l 406 943 l 533 943 l 910 0 l 857 0 l 826 -61 l 894 -67 l 901 -125 b 849 -131 883 -129 869 -131 b 756 -54 786 -131 756 -100 b 776 0 756 -35 764 -15 l 749 0 l 649 260 l 285 260 l 185 0 l 128 0 l 251 310 l 685 310 l 806 0 m 264 340 l 469 856 l 672 340 m 468 732 l 336 389 l 600 389 "},"Æ":{"ha":1350,"x_min":0,"x_max":0,"o":"m 613 886 l 76 0 l 14 0 l 586 936 l 1206 936 l 1206 886 m 757 86 l 757 406 l 1164 406 l 1164 357 l 808 357 l 808 136 l 1233 136 l 1233 86 m 757 440 l 757 850 l 1206 850 l 1206 800 l 808 800 l 808 489 l 1164 489 l 1164 440 m 667 800 l 653 800 l 468 486 l 667 486 m 667 0 l 667 357 l 393 357 l 183 0 l 122 0 l 367 407 l 718 407 l 718 50 l 1233 50 l 1233 0 m 386 438 l 633 850 l 718 850 l 718 438 "},"Ǽ":{"ha":1350,"x_min":0,"x_max":0,"o":"m 1206 936 l 1206 886 l 613 886 l 76 0 l 14 0 l 586 936 l 694 936 l 786 1057 l 889 1057 l 794 936 m 386 438 l 633 850 l 718 850 l 718 438 m 667 0 l 667 357 l 393 357 l 183 0 l 122 0 l 367 407 l 718 407 l 718 50 l 1233 50 l 1233 0 m 757 440 l 757 850 l 1206 850 l 1206 800 l 808 800 l 808 489 l 1164 489 l 1164 440 m 757 86 l 757 406 l 1164 406 l 1164 357 l 808 357 l 808 136 l 1233 136 l 1233 86 m 667 800 l 653 800 l 468 486 l 667 486 "},"Ć":{"ha":947,"x_min":0,"x_max":0,"o":"m 846 143 b 496 -18 760 39 650 -18 b 63 467 200 -18 63 221 b 426 949 63 694 178 914 l 508 1057 l 611 1057 l 529 953 b 846 792 674 944 775 885 l 808 758 b 496 904 717 864 640 904 b 115 467 236 904 115 690 b 499 32 115 246 239 32 b 808 176 622 32 717 71 m 779 201 b 501 67 693 97 611 67 b 158 468 269 67 158 267 b 499 869 158 668 264 869 b 779 733 614 869 700 835 l 739 697 b 499 819 682 776 603 819 b 211 468 300 819 211 643 b 499 117 211 293 300 117 b 739 239 597 117 668 147 "},"Ĉ":{"ha":947,"x_min":0,"x_max":0,"o":"m 636 936 b 846 792 725 910 793 860 l 808 758 b 496 904 717 864 640 904 b 115 467 236 904 115 690 b 499 32 115 246 239 32 b 808 176 622 32 717 71 l 846 143 b 496 -18 760 39 650 -18 b 63 467 200 -18 63 221 b 364 936 63 675 158 876 l 350 936 l 456 1057 l 544 1057 l 650 936 m 779 201 b 501 67 693 97 611 67 b 158 468 269 67 158 267 b 499 869 158 668 264 869 b 779 733 614 869 700 835 l 739 697 b 499 819 682 776 603 819 b 211 468 300 819 211 643 b 499 117 211 293 300 117 b 739 239 597 117 668 147 m 496 954 b 538 953 510 954 524 953 l 500 1000 l 463 953 b 496 954 474 953 485 954 "},"Č":{"ha":947,"x_min":0,"x_max":0,"o":"m 846 143 b 496 -18 760 39 650 -18 b 63 467 200 -18 63 221 b 442 951 63 700 183 924 l 350 1057 l 450 1057 l 500 993 l 550 1057 l 650 1057 l 557 950 b 846 792 686 936 779 878 l 808 758 b 496 904 717 864 640 904 b 115 467 236 904 115 690 b 499 32 115 246 239 32 b 808 176 622 32 717 71 m 779 201 b 501 67 693 97 611 67 b 158 468 269 67 158 267 b 499 869 158 668 264 869 b 779 733 614 869 700 835 l 739 697 b 499 819 682 776 603 819 b 211 468 300 819 211 643 b 499 117 211 293 300 117 b 739 239 597 117 668 147 "},"Ċ":{"ha":947,"x_min":0,"x_max":0,"o":"m 846 143 b 496 -18 760 39 650 -18 b 63 467 200 -18 63 221 b 453 951 63 703 186 929 l 453 1043 l 553 1043 l 553 951 b 846 792 685 938 778 879 l 808 758 b 496 904 717 864 640 904 b 115 467 236 904 115 690 b 499 32 115 246 239 32 b 808 176 622 32 717 71 m 779 201 b 501 67 693 97 611 67 b 158 468 269 67 158 267 b 499 869 158 668 264 869 b 779 733 614 869 700 835 l 739 697 b 499 819 682 776 603 819 b 211 468 300 819 211 643 b 499 117 211 293 300 117 b 739 239 597 117 668 147 "},"Ç":{"ha":947,"x_min":0,"x_max":0,"o":"m 367 -121 l 449 -15 b 63 467 185 8 63 233 b 496 954 63 715 200 954 b 846 792 658 954 769 892 l 808 758 b 496 904 717 864 640 904 b 115 467 236 904 115 690 b 499 32 115 246 239 32 b 808 176 622 32 717 71 l 846 143 b 549 -15 769 51 675 -4 l 469 -121 m 779 201 b 501 67 693 97 611 67 b 158 468 269 67 158 267 b 499 869 158 668 264 869 b 779 733 614 869 700 835 l 739 697 b 499 819 682 776 603 819 b 211 468 300 819 211 643 b 499 117 211 293 300 117 b 739 239 597 117 668 147 "},"Ď":{"ha":1031,"x_min":0,"x_max":0,"o":"m 531 936 b 968 469 829 932 968 722 b 524 0 968 213 818 0 l 146 0 l 146 936 l 442 936 l 336 1057 l 436 1057 l 486 993 l 536 1057 l 636 1057 l 531 936 m 524 50 b 917 469 783 50 917 242 b 524 886 917 696 792 886 l 197 886 l 197 50 m 236 86 l 236 850 l 517 850 b 874 468 735 850 874 703 b 517 86 874 243 753 86 m 517 136 b 822 468 719 136 822 274 b 517 800 822 671 704 800 l 288 800 l 288 136 "},"Đ":{"ha":1031,"x_min":0,"x_max":0,"o":"m 146 0 l 146 454 l 14 454 l 14 515 l 146 515 l 146 936 l 524 936 b 968 469 828 936 968 725 b 524 0 968 213 818 0 m 524 50 b 917 469 783 50 917 242 b 524 886 917 696 792 886 l 197 886 l 197 50 m 236 86 l 236 850 l 517 850 b 874 468 735 850 874 703 b 517 86 874 243 753 86 m 517 136 b 822 468 719 136 822 274 b 517 800 822 671 704 800 l 288 800 l 288 515 l 528 515 l 528 454 l 288 454 l 288 136 "},"È":{"ha":869,"x_min":0,"x_max":0,"o":"m 725 936 l 725 886 l 196 886 l 196 50 l 753 50 l 753 0 l 144 0 l 144 936 l 397 936 l 303 1057 l 406 1057 l 497 936 m 235 86 l 235 467 l 683 467 l 683 418 l 286 418 l 286 136 l 753 136 l 753 86 m 235 501 l 235 850 l 725 850 l 725 800 l 286 800 l 286 550 l 683 550 l 683 501 "},"É":{"ha":869,"x_min":0,"x_max":0,"o":"m 725 936 l 725 886 l 196 886 l 196 50 l 753 50 l 753 0 l 144 0 l 144 936 l 386 936 l 478 1057 l 581 1057 l 486 936 m 235 86 l 235 467 l 683 467 l 683 418 l 286 418 l 286 136 l 753 136 l 753 86 m 235 501 l 235 850 l 725 850 l 725 800 l 286 800 l 286 550 l 683 550 l 683 501 "},"Ê":{"ha":869,"x_min":0,"x_max":0,"o":"m 725 936 l 725 886 l 196 886 l 196 50 l 753 50 l 753 0 l 144 0 l 144 936 l 286 936 l 392 1057 l 481 1057 l 586 936 m 235 86 l 235 467 l 683 467 l 683 418 l 286 418 l 286 136 l 753 136 l 753 86 m 235 501 l 235 850 l 725 850 l 725 800 l 286 800 l 286 550 l 683 550 l 683 501 m 386 936 l 486 936 l 436 1000 "},"Ě":{"ha":869,"x_min":0,"x_max":0,"o":"m 725 936 l 725 886 l 196 886 l 196 50 l 753 50 l 753 0 l 144 0 l 144 936 l 397 936 l 292 1057 l 392 1057 l 442 993 l 492 1057 l 592 1057 l 486 936 m 235 86 l 235 467 l 683 467 l 683 418 l 286 418 l 286 136 l 753 136 l 753 86 m 235 501 l 235 850 l 725 850 l 725 800 l 286 800 l 286 550 l 683 550 l 683 501 "},"Ë":{"ha":869,"x_min":0,"x_max":0,"o":"m 725 936 l 725 886 l 196 886 l 196 50 l 753 50 l 753 0 l 144 0 l 144 936 l 303 936 l 303 1043 l 403 1043 l 403 936 l 483 936 l 483 1043 l 583 1043 l 583 936 m 235 86 l 235 467 l 683 467 l 683 418 l 286 418 l 286 136 l 753 136 l 753 86 m 235 501 l 235 850 l 725 850 l 725 800 l 286 800 l 286 550 l 683 550 l 683 501 "},"Ē":{"ha":869,"x_min":0,"x_max":0,"o":"m 725 936 l 725 886 l 196 886 l 196 50 l 753 50 l 753 0 l 144 0 l 144 936 l 276 936 l 276 1013 l 613 1013 l 613 936 m 235 86 l 235 467 l 683 467 l 683 418 l 286 418 l 286 136 l 753 136 l 753 86 m 235 501 l 235 850 l 725 850 l 725 800 l 286 800 l 286 550 l 683 550 l 683 501 "},"Ĕ":{"ha":869,"x_min":0,"x_max":0,"o":"m 622 1057 b 508 936 618 988 576 949 l 725 936 l 725 886 l 196 886 l 196 50 l 753 50 l 753 0 l 144 0 l 144 936 l 388 936 b 275 1057 319 949 278 988 l 344 1057 b 449 996 349 1014 385 996 b 553 1057 511 996 549 1014 m 235 86 l 235 467 l 683 467 l 683 418 l 286 418 l 286 136 l 753 136 l 753 86 m 235 501 l 235 850 l 725 850 l 725 800 l 286 800 l 286 550 l 683 550 l 683 501 "},"Ė":{"ha":869,"x_min":0,"x_max":0,"o":"m 725 936 l 725 886 l 196 886 l 196 50 l 753 50 l 753 0 l 144 0 l 144 936 l 392 936 l 392 1043 l 492 1043 l 492 936 m 235 86 l 235 467 l 683 467 l 683 418 l 286 418 l 286 136 l 753 136 l 753 86 m 235 501 l 235 850 l 725 850 l 725 800 l 286 800 l 286 550 l 683 550 l 683 501 "},"Ę":{"ha":869,"x_min":0,"x_max":0,"o":"m 144 0 l 144 936 l 725 936 l 725 886 l 196 886 l 196 50 l 753 50 l 753 0 l 707 0 l 676 -61 l 744 -67 l 751 -125 b 699 -131 733 -129 719 -131 b 606 -54 636 -131 606 -100 b 626 0 606 -35 614 -15 m 235 86 l 235 467 l 683 467 l 683 418 l 286 418 l 286 136 l 753 136 l 753 86 m 235 501 l 235 850 l 725 850 l 725 800 l 286 800 l 286 550 l 683 550 l 683 501 "},"":{"ha":1281,"x_min":0,"x_max":0,"o":"m 236 464 l 236 850 l 756 850 l 756 800 l 288 800 l 288 513 l 714 513 l 714 464 m 288 381 l 288 0 l 236 0 l 236 429 l 714 429 l 714 381 m 146 0 l 146 936 l 756 936 l 756 886 l 197 886 l 197 0 m 1083 0 l 1083 936 l 1135 936 l 1135 0 m 994 0 l 994 936 l 1046 936 l 1046 0 "},"":{"ha":1690,"x_min":0,"x_max":0,"o":"m 236 464 l 236 850 l 756 850 l 756 800 l 288 800 l 288 513 l 714 513 l 714 464 m 288 381 l 288 0 l 236 0 l 236 429 l 714 429 l 714 381 m 146 0 l 146 936 l 756 936 l 756 886 l 197 886 l 197 0 m 1085 86 l 1085 936 l 1136 936 l 1136 136 l 1614 136 l 1614 86 m 994 0 l 994 936 l 1046 936 l 1046 50 l 1614 50 l 1614 0 "},"Ĝ":{"ha":964,"x_min":0,"x_max":0,"o":"m 636 936 b 846 792 725 910 793 860 l 808 758 b 496 904 717 864 640 904 b 115 467 236 904 115 690 b 535 32 115 197 269 32 b 804 76 629 32 724 47 l 804 422 l 457 422 l 457 471 l 856 471 l 856 39 b 535 -18 754 -1 643 -18 b 63 467 236 -18 63 165 b 364 936 63 675 158 876 l 350 936 l 456 1057 l 544 1057 l 650 936 m 717 339 l 457 339 l 457 388 l 768 388 l 768 100 b 543 65 697 75 615 65 b 158 468 282 65 158 225 b 499 869 158 668 264 869 b 779 733 614 869 700 835 l 739 697 b 499 819 682 776 603 819 b 211 468 300 819 211 643 b 543 115 211 256 318 115 b 717 138 601 115 668 122 m 496 954 b 538 953 510 954 524 953 l 500 1000 l 463 953 b 496 954 474 953 485 954 "},"Ğ":{"ha":964,"x_min":0,"x_max":0,"o":"m 690 1057 b 606 943 688 999 657 961 b 846 792 710 921 788 867 l 808 758 b 496 904 717 864 640 904 b 115 467 236 904 115 690 b 535 32 115 197 269 32 b 804 76 629 32 724 47 l 804 422 l 457 422 l 457 471 l 856 471 l 856 39 b 535 -18 754 -1 643 -18 b 63 467 236 -18 63 165 b 415 947 63 692 175 908 b 343 1057 371 967 346 1003 l 413 1057 b 517 996 417 1014 453 996 b 621 1057 579 996 617 1014 m 717 339 l 457 339 l 457 388 l 768 388 l 768 100 b 543 65 697 75 615 65 b 158 468 282 65 158 225 b 499 869 158 668 264 869 b 779 733 614 869 700 835 l 739 697 b 499 819 682 776 603 819 b 211 468 300 819 211 643 b 543 115 211 256 318 115 b 717 138 601 115 668 122 "},"Ġ":{"ha":964,"x_min":0,"x_max":0,"o":"m 804 422 l 457 422 l 457 471 l 856 471 l 856 39 b 535 -18 754 -1 643 -18 b 63 467 236 -18 63 165 b 454 951 63 703 188 931 l 454 1043 l 554 1043 l 554 951 b 846 792 685 938 779 879 l 808 758 b 496 904 717 864 640 904 b 115 467 236 904 115 690 b 535 32 115 197 269 32 b 804 76 629 32 724 47 m 717 339 l 457 339 l 457 388 l 768 388 l 768 100 b 543 65 697 75 615 65 b 158 468 282 65 158 225 b 499 869 158 668 264 869 b 779 733 614 869 700 835 l 739 697 b 499 819 682 776 603 819 b 211 468 300 819 211 643 b 543 115 211 256 318 115 b 717 138 601 115 668 122 "},"Ģ":{"ha":964,"x_min":0,"x_max":0,"o":"m 717 339 l 457 339 l 457 388 l 768 388 l 768 100 b 543 65 697 75 615 65 b 158 468 282 65 158 225 b 499 869 158 668 264 869 b 779 733 614 869 700 835 l 739 697 b 499 819 682 776 603 819 b 211 468 300 819 211 643 b 543 115 211 256 318 115 b 717 138 601 115 668 122 m 804 422 l 457 422 l 457 471 l 856 471 l 856 39 b 535 -18 754 -1 643 -18 b 63 467 236 -18 63 165 b 496 954 63 715 200 954 b 846 792 658 954 769 892 l 808 758 b 496 904 717 864 640 904 b 115 467 236 904 115 690 b 535 32 115 197 269 32 b 804 76 629 32 724 47 m 382 -121 l 443 -43 l 544 -43 l 485 -121 "},"Ĥ":{"ha":1082,"x_min":0,"x_max":0,"o":"m 236 503 l 236 936 l 288 936 l 288 551 l 794 551 l 794 936 l 846 936 l 846 503 m 885 0 l 885 936 l 936 936 l 936 0 m 794 0 l 794 415 l 288 415 l 288 0 l 236 0 l 236 465 l 846 465 l 846 0 m 146 0 l 146 936 l 197 936 l 197 0 m 590 936 l 540 1000 l 490 936 l 390 936 l 496 1057 l 585 1057 l 690 936 "},"Ħ":{"ha":1082,"x_min":0,"x_max":0,"o":"m 236 503 l 236 936 l 288 936 l 288 736 l 794 736 l 794 936 l 846 936 l 846 503 m 794 0 l 794 415 l 288 415 l 288 0 l 236 0 l 236 465 l 846 465 l 846 0 m 794 551 l 794 675 l 288 675 l 288 551 m 885 0 l 885 936 l 936 936 l 936 736 l 1068 736 l 1068 675 l 936 675 l 936 0 m 146 0 l 146 675 l 14 675 l 14 736 l 146 736 l 146 936 l 197 936 l 197 0 "},"Ì":{"ha":432,"x_min":0,"x_max":0,"o":"m 308 936 l 308 0 l 257 0 l 257 936 l 219 936 l 219 0 l 168 0 l 168 936 l 190 936 l 96 1057 l 199 1057 l 290 936 "},"Í":{"ha":432,"x_min":0,"x_max":0,"o":"m 308 936 l 308 0 l 257 0 l 257 936 l 219 936 l 219 0 l 168 0 l 168 936 l 188 936 l 279 1057 l 382 1057 l 288 936 "},"Î":{"ha":432,"x_min":0,"x_max":0,"o":"m 308 936 l 308 0 l 257 0 l 257 936 l 288 936 l 238 1000 l 188 936 l 219 936 l 219 0 l 168 0 l 168 936 l 88 936 l 193 1057 l 282 1057 l 388 936 "},"Ĩ":{"ha":432,"x_min":0,"x_max":0,"o":"m 235 0 l 235 936 l 256 936 b 215 953 242 940 229 946 l 122 997 l 114 936 l 39 936 b 136 1063 44 997 64 1063 b 217 1040 164 1063 188 1054 l 310 996 l 318 1057 l 393 1057 b 296 931 388 996 368 931 l 286 931 l 286 0 m 146 0 l 146 936 l 197 936 l 197 0 "},"Ï":{"ha":432,"x_min":0,"x_max":0,"o":"m 308 936 l 308 0 l 257 0 l 257 936 l 279 936 l 279 1043 l 379 1043 l 379 936 m 219 936 l 219 0 l 168 0 l 168 936 l 99 936 l 99 1043 l 199 1043 l 199 936 "},"Ī":{"ha":432,"x_min":0,"x_max":0,"o":"m 286 936 l 286 0 l 235 0 l 235 936 l 197 936 l 197 0 l 146 0 l 146 936 l 47 936 l 47 1013 l 383 1013 l 383 936 "},"Ĭ":{"ha":432,"x_min":0,"x_max":0,"o":"m 389 1057 b 275 936 385 988 343 949 l 286 936 l 286 0 l 235 0 l 235 931 l 215 931 l 197 931 l 197 0 l 146 0 l 146 936 l 154 936 b 42 1057 86 949 44 988 l 111 1057 b 215 996 115 1014 151 996 b 319 1057 278 996 315 1014 "},"İ":{"ha":432,"x_min":0,"x_max":0,"o":"m 286 936 l 286 0 l 235 0 l 235 936 l 197 936 l 197 0 l 146 0 l 146 936 l 165 936 l 165 1043 l 265 1043 l 265 936 "},"Į":{"ha":432,"x_min":0,"x_max":0,"o":"m 235 0 l 235 936 l 286 936 l 286 0 l 256 0 l 225 -61 l 293 -67 l 300 -125 b 247 -131 282 -129 268 -131 b 154 -54 185 -131 154 -100 b 175 0 154 -35 163 -15 l 146 0 l 146 936 l 197 936 l 197 0 "},"Ĳ":{"ha":1143,"x_min":0,"x_max":0,"o":"m 235 0 l 235 936 l 286 936 l 286 0 m 146 0 l 146 936 l 197 936 l 197 0 m 946 936 l 997 936 l 997 283 b 731 -18 997 85 904 -18 b 454 142 624 -18 526 19 l 493 174 b 736 32 550 76 624 32 b 946 283 878 32 946 125 m 856 936 l 907 936 l 907 285 b 738 67 907 163 858 67 b 525 199 636 67 571 113 l 565 231 b 729 117 603 157 656 117 b 856 285 815 117 856 174 "},"Ĵ":{"ha":711,"x_min":0,"x_max":0,"o":"m 565 936 l 565 283 b 299 -18 565 85 472 -18 b 22 142 192 -18 94 19 l 61 174 b 304 32 118 76 192 32 b 514 283 446 32 514 125 l 514 936 l 544 936 l 494 1000 l 444 936 l 475 936 l 475 285 b 306 67 475 163 426 67 b 93 199 204 67 139 113 l 133 231 b 297 117 171 157 224 117 b 424 285 383 117 424 174 l 424 936 l 344 936 l 450 1057 l 539 1057 l 644 936 "},"Ķ":{"ha":950,"x_min":0,"x_max":0,"o":"m 146 0 l 146 936 l 197 936 l 197 0 m 700 0 l 288 450 l 288 0 l 236 0 l 236 936 l 288 936 l 288 504 l 707 936 l 778 936 l 331 479 l 771 0 m 825 0 l 376 479 l 826 936 l 896 936 l 447 479 l 896 0 m 347 -121 l 408 -43 l 510 -43 l 450 -121 "},"Ĺ":{"ha":842,"x_min":0,"x_max":0,"o":"m 288 936 l 288 136 l 765 136 l 765 86 l 236 86 l 236 936 l 197 936 l 197 50 l 765 50 l 765 0 l 146 0 l 146 936 l 164 936 l 256 1057 l 358 1057 l 264 936 "},"Ľ":{"ha":842,"x_min":0,"x_max":0,"o":"m 236 86 l 236 936 l 288 936 l 288 136 l 765 136 l 765 86 m 146 0 l 146 936 l 197 936 l 197 50 l 765 50 l 765 0 m 411 772 l 444 936 l 531 936 l 489 772 "},"Ļ":{"ha":842,"x_min":0,"x_max":0,"o":"m 236 86 l 236 936 l 288 936 l 288 136 l 765 136 l 765 86 m 146 0 l 146 936 l 197 936 l 197 50 l 765 50 l 765 0 m 335 -121 l 396 -43 l 497 -43 l 438 -121 "},"Ł":{"ha":842,"x_min":0,"x_max":0,"o":"m 236 86 l 236 936 l 288 936 l 288 496 l 610 671 l 610 601 l 288 425 l 288 136 l 765 136 l 765 86 m 146 0 l 146 349 l 42 292 l 42 363 l 146 419 l 146 936 l 197 936 l 197 50 l 765 50 l 765 0 "},"Ŀ":{"ha":842,"x_min":0,"x_max":0,"o":"m 236 86 l 236 936 l 288 936 l 288 136 l 765 136 l 765 86 m 146 0 l 146 936 l 197 936 l 197 50 l 765 50 l 765 0 m 607 471 l 607 578 l 707 578 l 707 471 "},"Ń":{"ha":1083,"x_min":0,"x_max":0,"o":"m 242 886 l 196 886 l 196 0 l 146 0 l 146 936 l 268 936 l 801 253 l 801 936 l 851 936 l 851 107 m 818 0 l 282 682 l 282 0 l 232 0 l 232 838 l 846 50 l 888 50 l 888 936 l 938 936 l 938 0 m 444 936 l 536 1057 l 639 1057 l 544 936 "},"Ň":{"ha":1083,"x_min":0,"x_max":0,"o":"m 242 886 l 196 886 l 196 0 l 146 0 l 146 936 l 268 936 l 801 253 l 801 936 l 851 936 l 851 107 m 818 0 l 282 682 l 282 0 l 232 0 l 232 838 l 846 50 l 888 50 l 888 936 l 938 936 l 938 0 m 497 936 l 392 1057 l 492 1057 l 542 993 l 592 1057 l 692 1057 l 586 936 "},"Ñ":{"ha":1083,"x_min":0,"x_max":0,"o":"m 242 886 l 196 886 l 196 0 l 146 0 l 146 936 l 268 936 l 801 253 l 801 936 l 851 936 l 851 107 m 818 0 l 282 682 l 282 0 l 232 0 l 232 838 l 846 50 l 888 50 l 888 936 l 938 936 l 938 0 m 663 1057 l 738 1057 b 640 931 732 996 713 931 b 560 953 611 931 588 939 l 467 997 l 458 936 l 383 936 b 481 1063 389 997 408 1063 b 561 1040 508 1063 532 1054 l 654 996 "},"Ņ":{"ha":1083,"x_min":0,"x_max":0,"o":"m 242 886 l 196 886 l 196 0 l 146 0 l 146 936 l 268 936 l 801 253 l 801 936 l 851 936 l 851 107 m 818 0 l 282 682 l 282 0 l 232 0 l 232 838 l 846 50 l 888 50 l 888 936 l 938 936 l 938 0 m 418 -121 l 479 -43 l 581 -43 l 521 -121 "},"Ò":{"ha":1042,"x_min":0,"x_max":0,"o":"m 522 -18 b 63 469 214 -18 63 214 b 461 951 63 706 192 924 l 379 1057 l 482 1057 l 561 953 b 979 467 840 932 979 710 b 522 -18 979 214 831 -18 m 522 32 b 926 467 794 32 926 240 b 519 904 926 696 793 904 b 115 469 247 904 115 696 b 522 32 115 240 249 32 m 522 67 b 158 468 267 67 158 271 b 519 869 158 667 264 869 b 883 468 775 869 883 665 b 522 67 883 269 778 67 m 522 117 b 831 468 738 117 831 294 b 519 819 831 639 736 819 b 211 468 304 819 211 642 b 522 117 211 297 306 117 "},"Ó":{"ha":1042,"x_min":0,"x_max":0,"o":"m 522 -18 b 63 469 214 -18 63 214 b 468 951 63 707 194 928 l 549 1057 l 651 1057 l 569 951 b 979 467 843 928 979 708 b 522 -18 979 214 831 -18 m 522 32 b 926 467 794 32 926 240 b 519 904 926 696 793 904 b 115 469 247 904 115 696 b 522 32 115 240 249 32 m 522 67 b 158 468 267 67 158 271 b 519 869 158 667 264 869 b 883 468 775 869 883 665 b 522 67 883 269 778 67 m 522 117 b 831 468 738 117 831 294 b 519 819 831 639 736 819 b 211 468 304 819 211 642 b 522 117 211 297 306 117 "},"Ô":{"ha":1042,"x_min":0,"x_max":0,"o":"m 658 936 b 979 467 872 876 979 681 b 522 -18 979 214 831 -18 b 63 469 214 -18 63 214 b 381 936 63 681 167 876 l 371 936 l 476 1057 l 565 1057 l 671 936 m 522 32 b 926 467 794 32 926 240 b 519 904 926 696 793 904 b 115 469 247 904 115 696 b 522 32 115 240 249 32 m 522 67 b 158 468 267 67 158 271 b 519 869 158 667 264 869 b 883 468 775 869 883 665 b 522 67 883 269 778 67 m 522 117 b 831 468 738 117 831 294 b 519 819 831 639 736 819 b 211 468 304 819 211 642 b 522 117 211 297 306 117 m 519 954 b 557 953 532 954 544 953 l 521 1000 l 483 953 b 519 954 496 953 507 954 "},"Õ":{"ha":1042,"x_min":0,"x_max":0,"o":"m 626 1057 l 701 1057 b 644 939 697 1010 685 960 b 979 467 868 885 979 685 b 522 -18 979 214 831 -18 b 63 469 214 -18 63 214 b 381 936 63 681 167 876 l 347 936 b 444 1063 353 997 372 1063 b 525 1040 472 1063 496 1054 l 618 996 m 522 32 b 926 467 794 32 926 240 b 519 904 926 696 793 904 b 115 469 247 904 115 696 b 522 32 115 240 249 32 m 522 67 b 158 468 267 67 158 271 b 519 869 158 667 264 869 b 883 468 775 869 883 665 b 522 67 883 269 778 67 m 522 117 b 831 468 738 117 831 294 b 519 819 831 639 736 819 b 211 468 304 819 211 642 b 522 117 211 297 306 117 m 424 946 b 519 954 453 951 485 954 l 521 954 l 431 997 l 424 946 "},"Ö":{"ha":1042,"x_min":0,"x_max":0,"o":"m 658 936 b 979 467 872 876 979 681 b 522 -18 979 214 831 -18 b 63 469 214 -18 63 214 b 381 936 63 681 167 876 l 379 936 l 379 1043 l 479 1043 l 479 953 b 519 954 492 953 506 954 b 560 953 533 954 546 953 l 560 1043 l 660 1043 l 660 936 m 522 32 b 926 467 794 32 926 240 b 519 904 926 696 793 904 b 115 469 247 904 115 696 b 522 32 115 240 249 32 m 522 67 b 158 468 267 67 158 271 b 519 869 158 667 264 869 b 883 468 775 869 883 665 b 522 67 883 269 778 67 m 522 117 b 831 468 738 117 831 294 b 519 819 831 639 736 819 b 211 468 304 819 211 642 b 522 117 211 297 306 117 "},"Ō":{"ha":1042,"x_min":0,"x_max":0,"o":"m 658 936 b 979 467 872 876 979 681 b 522 -18 979 214 831 -18 b 63 469 214 -18 63 214 b 381 936 63 681 167 876 l 353 936 l 353 1013 l 689 1013 l 689 936 m 522 32 b 926 467 794 32 926 240 b 519 904 926 696 793 904 b 115 469 247 904 115 696 b 522 32 115 240 249 32 m 522 67 b 158 468 267 67 158 271 b 519 869 158 667 264 869 b 883 468 775 869 883 665 b 522 67 883 269 778 67 m 522 117 b 831 468 738 117 831 294 b 519 819 831 639 736 819 b 211 468 304 819 211 642 b 522 117 211 297 306 117 "},"Ŏ":{"ha":1042,"x_min":0,"x_max":0,"o":"m 694 1057 b 615 946 692 1000 663 964 b 979 467 858 901 979 693 b 522 -18 979 214 831 -18 b 63 469 214 -18 63 214 b 425 946 63 694 181 903 b 347 1057 378 964 350 1000 l 417 1057 b 521 996 421 1014 457 996 b 625 1057 583 996 621 1014 m 522 32 b 926 467 794 32 926 240 b 519 904 926 696 793 904 b 115 469 247 904 115 696 b 522 32 115 240 249 32 m 522 67 b 158 468 267 67 158 271 b 519 869 158 667 264 869 b 883 468 775 869 883 665 b 522 67 883 269 778 67 m 522 117 b 831 468 738 117 831 294 b 519 819 831 639 736 819 b 211 468 304 819 211 642 b 522 117 211 297 306 117 "},"Ő":{"ha":1042,"x_min":0,"x_max":0,"o":"m 522 -18 b 63 469 214 -18 63 214 b 381 936 63 681 167 876 l 378 936 l 469 1057 l 572 1057 l 490 953 b 519 954 500 954 510 954 b 567 953 535 954 551 954 l 646 1057 l 749 1057 l 654 936 b 979 467 871 879 979 681 b 522 -18 979 214 831 -18 m 522 32 b 926 467 794 32 926 240 b 519 904 926 696 793 904 b 115 469 247 904 115 696 b 522 32 115 240 249 32 m 522 67 b 158 468 267 67 158 271 b 519 869 158 667 264 869 b 883 468 775 869 883 665 b 522 67 883 269 778 67 m 522 117 b 831 468 738 117 831 294 b 519 819 831 639 736 819 b 211 468 304 819 211 642 b 522 117 211 297 306 117 "},"Ø":{"ha":1042,"x_min":0,"x_max":0,"o":"m 522 -18 b 235 74 403 -18 307 17 l 174 0 l 86 0 l 185 119 b 63 469 103 210 63 336 b 519 954 63 722 211 954 b 806 863 638 954 733 919 l 868 936 l 956 936 l 856 817 b 979 467 938 725 979 599 b 522 -18 979 214 831 -18 m 522 32 b 926 467 794 32 926 240 b 519 904 926 696 793 904 b 115 469 247 904 115 696 b 522 32 115 240 249 32 m 522 67 b 158 468 267 67 158 271 b 519 869 158 667 264 869 b 883 468 775 869 883 665 b 522 67 883 269 778 67 m 522 117 b 831 468 738 117 831 294 b 760 703 831 551 808 636 l 326 183 b 522 117 375 142 440 117 m 211 468 b 281 233 211 385 233 299 l 714 751 b 519 819 665 793 601 819 b 211 468 304 819 211 642 "},"Ǿ":{"ha":1042,"x_min":0,"x_max":0,"o":"m 522 -18 b 235 74 403 -18 307 17 l 174 0 l 86 0 l 185 119 b 63 469 103 210 63 336 b 468 951 63 707 194 928 l 549 1057 l 651 1057 l 569 951 b 806 863 665 943 743 911 l 868 936 l 956 936 l 856 817 b 979 467 938 725 979 599 b 522 -18 979 214 831 -18 m 522 32 b 926 467 794 32 926 240 b 519 904 926 696 793 904 b 115 469 247 904 115 696 b 522 32 115 240 249 32 m 522 67 b 158 468 267 67 158 271 b 519 869 158 667 264 869 b 883 468 775 869 883 665 b 522 67 883 269 778 67 m 522 117 b 831 468 738 117 831 294 b 760 703 831 551 808 636 l 326 183 b 522 117 375 142 440 117 m 211 468 b 281 233 211 385 233 299 l 714 751 b 519 819 665 793 601 819 b 211 468 304 819 211 642 "},"Œ":{"ha":1440,"x_min":0,"x_max":0,"o":"m 819 86 l 819 467 l 1254 467 l 1254 418 l 871 418 l 871 136 l 1324 136 l 1324 86 m 819 501 l 819 850 l 1296 850 l 1296 800 l 871 800 l 871 550 l 1254 550 l 1254 501 m 514 86 b 157 468 296 86 157 233 b 514 850 157 693 278 850 l 781 850 l 781 86 m 507 0 b 63 467 203 0 63 211 b 507 936 63 724 213 936 l 1296 936 l 1296 886 l 507 886 b 114 467 247 886 114 694 b 507 50 114 240 239 50 l 1324 50 l 1324 0 m 729 800 l 514 800 b 208 468 311 800 208 663 b 514 136 208 265 326 136 l 729 136 "},"Ŕ":{"ha":956,"x_min":0,"x_max":0,"o":"m 236 454 l 236 853 l 499 853 b 707 657 615 853 707 781 b 490 454 707 515 614 454 m 503 936 b 799 658 665 936 799 836 b 611 393 799 513 718 428 l 879 0 l 815 0 l 526 424 b 747 658 632 435 747 500 b 503 888 747 801 638 888 l 197 888 l 197 0 l 146 0 l 146 936 l 375 936 l 467 1057 l 569 1057 l 475 936 m 490 503 b 656 657 586 503 656 553 b 499 803 656 749 588 803 l 288 803 l 288 503 m 701 0 l 454 374 l 288 374 l 288 0 l 236 0 l 236 422 l 482 422 l 764 0 "},"Ř":{"ha":956,"x_min":0,"x_max":0,"o":"m 236 454 l 236 853 l 499 853 b 707 657 615 853 707 781 b 490 454 707 515 614 454 m 503 936 b 799 658 665 936 799 836 b 611 393 799 513 718 428 l 879 0 l 815 0 l 526 424 b 747 658 632 435 747 500 b 503 888 747 801 638 888 l 197 888 l 197 0 l 146 0 l 146 936 l 375 936 l 269 1057 l 369 1057 l 419 993 l 469 1057 l 569 1057 l 464 936 m 490 503 b 656 657 586 503 656 553 b 499 803 656 749 588 803 l 288 803 l 288 503 m 701 0 l 454 374 l 288 374 l 288 0 l 236 0 l 236 422 l 482 422 l 764 0 "},"Ŗ":{"ha":956,"x_min":0,"x_max":0,"o":"m 701 0 l 454 374 l 288 374 l 288 0 l 236 0 l 236 422 l 482 422 l 764 0 m 236 454 l 236 853 l 499 853 b 707 657 615 853 707 781 b 490 454 707 515 614 454 m 815 0 l 526 424 b 747 658 632 435 747 500 b 503 888 747 801 638 888 l 197 888 l 197 0 l 146 0 l 146 936 l 503 936 b 799 658 665 936 799 836 b 611 393 799 513 718 428 l 879 0 m 490 503 b 656 657 586 503 656 553 b 499 803 656 749 588 803 l 288 803 l 288 503 m 357 -121 l 418 -43 l 519 -43 l 460 -121 "},"Ś":{"ha":913,"x_min":0,"x_max":0,"o":"m 753 756 b 468 904 656 879 567 904 b 210 690 292 904 210 815 b 449 465 210 558 332 506 b 690 240 611 411 690 367 b 461 68 690 147 601 68 b 176 215 356 68 257 107 l 217 253 b 461 118 282 167 357 118 b 639 240 581 118 639 169 b 433 415 639 339 561 371 b 160 690 301 461 160 514 b 394 949 160 835 251 925 l 476 1057 l 579 1057 l 497 953 b 789 789 611 946 703 900 m 688 694 b 461 818 622 778 556 818 b 308 704 350 818 308 769 b 504 544 308 613 390 585 b 788 257 640 496 788 446 b 454 -18 788 82 642 -18 b 108 153 317 -18 210 29 l 144 186 b 454 32 242 63 347 32 b 736 257 597 32 736 101 b 486 496 736 399 619 449 b 257 704 339 549 257 585 b 461 868 257 796 321 868 b 724 728 561 868 644 835 "},"Ŝ":{"ha":913,"x_min":0,"x_max":0,"o":"m 594 936 b 789 789 667 913 729 867 l 753 756 b 468 904 656 879 567 904 b 210 690 292 904 210 815 b 449 465 210 558 332 506 b 690 240 611 411 690 367 b 461 68 690 147 601 68 b 176 215 356 68 257 107 l 217 253 b 461 118 282 167 357 118 b 639 240 581 118 639 169 b 433 415 639 339 561 371 b 160 690 301 461 160 514 b 340 936 160 815 229 900 l 318 936 l 424 1057 l 513 1057 l 618 936 m 688 694 b 461 818 622 778 556 818 b 308 704 350 818 308 769 b 504 544 308 613 390 585 b 788 257 640 496 788 446 b 454 -18 788 82 642 -18 b 108 153 317 -18 210 29 l 144 186 b 454 32 242 63 347 32 b 736 257 597 32 736 101 b 486 496 736 399 619 449 b 257 704 339 549 257 585 b 461 868 257 796 321 868 b 724 728 561 868 644 835 m 468 954 b 504 953 481 954 493 953 l 468 1000 l 431 953 b 468 954 443 953 456 954 "},"Š":{"ha":913,"x_min":0,"x_max":0,"o":"m 753 756 b 468 904 656 879 567 904 b 210 690 292 904 210 815 b 449 465 210 558 332 506 b 690 240 611 411 690 367 b 461 68 690 147 601 68 b 176 215 356 68 257 107 l 217 253 b 461 118 282 167 357 118 b 639 240 581 118 639 169 b 433 415 639 339 561 371 b 160 690 301 461 160 514 b 408 950 160 839 258 932 l 315 1057 l 415 1057 l 465 993 l 515 1057 l 615 1057 l 522 951 b 789 789 625 939 710 892 m 688 694 b 461 818 622 778 556 818 b 308 704 350 818 308 769 b 504 544 308 613 390 585 b 788 257 640 496 788 446 b 454 -18 788 82 642 -18 b 108 153 317 -18 210 29 l 144 186 b 454 32 242 63 347 32 b 736 257 597 32 736 101 b 486 496 736 399 619 449 b 257 704 339 549 257 585 b 461 868 257 796 321 868 b 724 728 561 868 644 835 "},"Ş":{"ha":913,"x_min":0,"x_max":0,"o":"m 351 -121 l 432 -17 b 108 153 304 -12 204 36 l 144 186 b 454 32 242 63 347 32 b 736 257 597 32 736 101 b 486 496 736 399 619 449 b 257 704 339 549 257 585 b 461 868 257 796 321 868 b 724 728 561 868 644 835 l 688 694 b 461 818 622 778 556 818 b 308 704 350 818 308 769 b 504 544 308 613 390 585 b 788 257 640 496 788 446 b 538 -10 788 108 683 15 l 454 -121 m 753 756 b 468 904 656 879 567 904 b 210 690 292 904 210 815 b 449 465 210 558 332 506 b 690 240 611 411 690 367 b 461 68 690 147 601 68 b 176 215 356 68 257 107 l 217 253 b 461 118 282 167 357 118 b 639 240 581 118 639 169 b 433 415 639 339 561 371 b 160 690 301 461 160 514 b 468 954 160 858 285 954 b 789 789 596 954 696 910 "},"Ș":{"ha":913,"x_min":0,"x_max":0,"o":"m 753 756 b 468 904 656 879 567 904 b 210 690 292 904 210 815 b 449 465 210 558 332 506 b 690 240 611 411 690 367 b 461 68 690 147 601 68 b 176 215 356 68 257 107 l 217 253 b 461 118 282 167 357 118 b 639 240 581 118 639 169 b 433 415 639 339 561 371 b 160 690 301 461 160 514 b 468 954 160 858 285 954 b 789 789 596 954 696 910 m 688 694 b 461 818 622 778 556 818 b 308 704 350 818 308 769 b 504 544 308 613 390 585 b 788 257 640 496 788 446 b 454 -18 788 82 642 -18 b 108 153 317 -18 210 29 l 144 186 b 454 32 242 63 347 32 b 736 257 597 32 736 101 b 486 496 736 399 619 449 b 257 704 339 549 257 585 b 461 868 257 796 321 868 b 724 728 561 868 644 835 m 358 -121 l 419 -43 l 521 -43 l 461 -121 "},"Ť":{"ha":875,"x_min":0,"x_max":0,"o":"m 367 0 l 367 800 l 42 800 l 42 850 l 418 850 l 418 0 m 457 0 l 457 850 l 833 850 l 833 800 l 508 800 l 508 0 m 833 936 l 833 886 l 42 886 l 42 936 l 393 936 l 288 1057 l 388 1057 l 438 993 l 488 1057 l 588 1057 l 482 936 "},"Ţ":{"ha":875,"x_min":0,"x_max":0,"o":"m 367 0 l 367 800 l 42 800 l 42 850 l 418 850 l 418 0 m 457 0 l 457 850 l 833 850 l 833 800 l 508 800 l 508 0 m 42 886 l 42 936 l 833 936 l 833 886 m 307 -121 l 368 -43 l 469 -43 l 410 -121 "},"Ŧ":{"ha":875,"x_min":0,"x_max":0,"o":"m 367 0 l 367 424 l 174 424 l 174 485 l 367 485 l 367 800 l 42 800 l 42 850 l 418 850 l 418 0 m 457 0 l 457 850 l 833 850 l 833 800 l 508 800 l 508 485 l 701 485 l 701 424 l 508 424 l 508 0 m 42 886 l 42 936 l 833 936 l 833 886 "},"Ù":{"ha":1082,"x_min":0,"x_max":0,"o":"m 885 936 l 936 936 l 936 319 b 540 -18 936 107 775 -18 b 146 319 313 -18 146 108 l 146 936 l 197 936 l 197 319 b 540 32 197 143 343 32 b 885 319 744 32 885 142 m 794 936 l 846 936 l 846 326 b 540 67 846 168 725 67 b 236 328 361 67 236 174 l 236 936 l 288 936 l 288 328 b 539 117 288 204 393 117 b 794 326 689 117 794 200 m 499 936 l 404 1057 l 507 1057 l 599 936 "},"Ú":{"ha":1082,"x_min":0,"x_max":0,"o":"m 885 936 l 936 936 l 936 319 b 540 -18 936 107 775 -18 b 146 319 313 -18 146 108 l 146 936 l 197 936 l 197 319 b 540 32 197 143 343 32 b 885 319 744 32 885 142 m 794 936 l 846 936 l 846 326 b 540 67 846 168 725 67 b 236 328 361 67 236 174 l 236 936 l 288 936 l 288 328 b 539 117 288 204 393 117 b 794 326 689 117 794 200 m 486 936 l 578 1057 l 681 1057 l 586 936 "},"Û":{"ha":1082,"x_min":0,"x_max":0,"o":"m 885 936 l 936 936 l 936 319 b 540 -18 936 107 775 -18 b 146 319 313 -18 146 108 l 146 936 l 197 936 l 197 319 b 540 32 197 143 343 32 b 885 319 744 32 885 142 m 794 936 l 846 936 l 846 326 b 540 67 846 168 725 67 b 236 328 361 67 236 174 l 236 936 l 288 936 l 288 328 b 539 117 288 204 393 117 b 794 326 689 117 794 200 m 590 936 l 540 1000 l 490 936 l 390 936 l 496 1057 l 585 1057 l 690 936 "},"Ũ":{"ha":1082,"x_min":0,"x_max":0,"o":"m 885 936 l 936 936 l 936 319 b 540 -18 936 107 775 -18 b 146 319 313 -18 146 108 l 146 936 l 197 936 l 197 319 b 540 32 197 143 343 32 b 885 319 744 32 885 142 m 794 936 l 846 936 l 846 326 b 540 67 846 168 725 67 b 236 328 361 67 236 174 l 236 936 l 288 936 l 288 328 b 539 117 288 204 393 117 b 794 326 689 117 794 200 m 643 1057 l 718 1057 b 621 931 713 996 693 931 b 540 953 592 931 568 939 l 447 997 l 439 936 l 364 936 b 461 1063 369 997 389 1063 b 542 1040 489 1063 513 1054 l 635 996 "},"Ü":{"ha":1082,"x_min":0,"x_max":0,"o":"m 885 936 l 936 936 l 936 319 b 540 -18 936 107 775 -18 b 146 319 313 -18 146 108 l 146 936 l 197 936 l 197 319 b 540 32 197 143 343 32 b 885 319 744 32 885 142 m 794 936 l 846 936 l 846 326 b 540 67 846 168 725 67 b 236 328 361 67 236 174 l 236 936 l 288 936 l 288 328 b 539 117 288 204 393 117 b 794 326 689 117 794 200 m 404 936 l 404 1043 l 504 1043 l 504 936 m 585 936 l 585 1043 l 685 1043 l 685 936 "},"Ū":{"ha":1082,"x_min":0,"x_max":0,"o":"m 885 936 l 936 936 l 936 319 b 540 -18 936 107 775 -18 b 146 319 313 -18 146 108 l 146 936 l 197 936 l 197 319 b 540 32 197 143 343 32 b 885 319 744 32 885 142 m 794 936 l 846 936 l 846 326 b 540 67 846 168 725 67 b 236 328 361 67 236 174 l 236 936 l 288 936 l 288 328 b 539 117 288 204 393 117 b 794 326 689 117 794 200 m 372 936 l 372 1013 l 708 1013 l 708 936 "},"Ŭ":{"ha":1082,"x_min":0,"x_max":0,"o":"m 885 936 l 936 936 l 936 319 b 540 -18 936 107 775 -18 b 146 319 313 -18 146 108 l 146 936 l 197 936 l 197 319 b 540 32 197 143 343 32 b 885 319 744 32 885 142 m 794 936 l 846 936 l 846 326 b 540 67 846 168 725 67 b 236 328 361 67 236 174 l 236 936 l 288 936 l 288 328 b 539 117 288 204 393 117 b 794 326 689 117 794 200 m 714 1057 b 540 931 710 969 643 931 b 367 1057 438 931 371 969 l 436 1057 b 540 996 440 1014 476 996 b 644 1057 603 996 640 1014 "},"Ů":{"ha":1082,"x_min":0,"x_max":0,"o":"m 885 936 l 936 936 l 936 319 b 540 -18 936 107 775 -18 b 146 319 313 -18 146 108 l 146 936 l 197 936 l 197 319 b 540 32 197 143 343 32 b 885 319 744 32 885 142 m 794 936 l 846 936 l 846 326 b 540 67 846 168 725 67 b 236 328 361 67 236 174 l 236 936 l 288 936 l 288 328 b 539 117 288 204 393 117 b 794 326 689 117 794 200 m 590 1025 b 540 1067 590 1049 575 1067 b 492 1025 507 1067 492 1049 b 540 985 492 1003 507 985 b 590 1025 575 985 590 1000 m 654 1025 b 540 932 654 964 611 932 b 426 1025 469 932 426 965 b 540 1118 426 1086 469 1118 b 654 1025 611 1118 654 1085 "},"Ű":{"ha":1082,"x_min":0,"x_max":0,"o":"m 885 936 l 936 936 l 936 319 b 540 -18 936 107 775 -18 b 146 319 313 -18 146 108 l 146 936 l 197 936 l 197 319 b 540 32 197 143 343 32 b 885 319 744 32 885 142 m 794 936 l 846 936 l 846 326 b 540 67 846 168 725 67 b 236 328 361 67 236 174 l 236 936 l 288 936 l 288 328 b 539 117 288 204 393 117 b 794 326 689 117 794 200 m 356 936 l 447 1057 l 550 1057 l 456 936 m 532 936 l 624 1057 l 726 1057 l 632 936 "},"Ų":{"ha":1082,"x_min":0,"x_max":0,"o":"m 885 936 l 936 936 l 936 319 b 567 -17 936 115 788 -8 l 546 -61 l 614 -67 l 621 -125 b 568 -131 603 -129 589 -131 b 475 -54 506 -131 475 -100 b 485 -15 475 -40 479 -26 b 146 319 286 3 146 125 l 146 936 l 197 936 l 197 319 b 540 32 197 143 343 32 b 885 319 744 32 885 142 m 794 936 l 846 936 l 846 326 b 540 67 846 168 725 67 b 236 328 361 67 236 174 l 236 936 l 288 936 l 288 328 b 539 117 288 204 393 117 b 794 326 689 117 794 200 "},"Ẁ":{"ha":1306,"x_min":0,"x_max":0,"o":"m 833 -7 l 651 682 l 468 -7 l 328 -7 l 75 936 l 129 936 l 368 43 l 425 43 l 653 847 l 875 43 l 935 43 l 1174 936 l 1231 936 l 976 -7 m 725 936 l 901 238 l 1076 936 l 1131 936 l 904 85 l 683 886 l 625 886 l 396 85 l 179 936 l 233 936 l 400 236 l 586 936 l 608 936 l 514 1057 l 617 1057 l 708 936 "},"Ẃ":{"ha":1306,"x_min":0,"x_max":0,"o":"m 833 -7 l 651 682 l 468 -7 l 328 -7 l 75 936 l 129 936 l 368 43 l 425 43 l 653 847 l 875 43 l 935 43 l 1174 936 l 1231 936 l 976 -7 m 725 936 l 901 238 l 1076 936 l 1131 936 l 904 85 l 683 886 l 625 886 l 396 85 l 179 936 l 233 936 l 400 236 l 586 936 l 597 936 l 689 1057 l 792 1057 l 697 936 "},"Ŵ":{"ha":1306,"x_min":0,"x_max":0,"o":"m 833 -7 l 651 682 l 468 -7 l 328 -7 l 75 936 l 129 936 l 368 43 l 425 43 l 653 847 l 875 43 l 935 43 l 1174 936 l 1231 936 l 976 -7 m 725 936 l 901 238 l 1076 936 l 1131 936 l 904 85 l 683 886 l 625 886 l 396 85 l 179 936 l 233 936 l 400 236 l 586 936 l 503 936 l 608 1057 l 697 1057 l 803 936 m 603 936 l 703 936 l 653 1000 "},"Ẅ":{"ha":1306,"x_min":0,"x_max":0,"o":"m 833 -7 l 651 682 l 468 -7 l 328 -7 l 75 936 l 129 936 l 368 43 l 425 43 l 653 847 l 875 43 l 935 43 l 1174 936 l 1231 936 l 976 -7 m 725 936 l 901 238 l 1076 936 l 1131 936 l 904 85 l 683 886 l 625 886 l 396 85 l 179 936 l 233 936 l 400 236 l 586 936 l 513 936 l 513 1043 l 613 1043 l 613 936 l 693 936 l 693 1043 l 793 1043 l 793 936 "},"Ỳ":{"ha":892,"x_min":0,"x_max":0,"o":"m 374 0 l 374 429 l 36 936 l 100 936 l 425 447 l 425 0 m 464 0 l 464 447 l 792 936 l 856 936 l 515 429 l 515 0 m 150 936 l 213 936 l 447 567 l 682 936 l 744 936 l 446 482 m 443 936 l 349 1057 l 451 1057 l 543 936 "},"Ý":{"ha":892,"x_min":0,"x_max":0,"o":"m 346 0 l 346 429 l 8 936 l 72 936 l 397 447 l 397 0 m 436 0 l 436 447 l 764 936 l 828 936 l 488 429 l 488 0 m 122 936 l 185 936 l 419 567 l 654 936 l 717 936 l 418 482 m 376 936 l 282 1057 l 385 1057 l 476 936 "},"Ŷ":{"ha":892,"x_min":0,"x_max":0,"o":"m 374 0 l 374 429 l 36 936 l 100 936 l 425 447 l 425 0 m 464 0 l 464 447 l 792 936 l 856 936 l 515 429 l 515 0 m 150 936 l 213 936 l 447 567 l 682 936 l 744 936 l 446 482 m 496 936 l 446 1000 l 396 936 l 296 936 l 401 1057 l 490 1057 l 596 936 "},"Ÿ":{"ha":892,"x_min":0,"x_max":0,"o":"m 346 0 l 346 429 l 8 936 l 72 936 l 397 447 l 397 0 m 436 0 l 436 447 l 764 936 l 828 936 l 488 429 l 488 0 m 122 936 l 185 936 l 419 567 l 654 936 l 717 936 l 418 482 m 282 936 l 282 1043 l 382 1043 l 382 936 m 463 936 l 463 1043 l 563 1043 l 563 936 "},"Ź":{"ha":861,"x_min":0,"x_max":0,"o":"m 758 936 l 758 831 l 293 136 l 785 136 l 785 86 l 197 86 l 707 844 l 707 885 l 129 885 l 129 936 l 361 936 l 453 1057 l 556 1057 l 461 936 m 104 0 l 104 106 l 568 800 l 129 800 l 129 850 l 665 850 l 156 89 l 156 50 l 785 50 l 785 0 "},"Ž":{"ha":861,"x_min":0,"x_max":0,"o":"m 758 936 l 758 831 l 293 136 l 785 136 l 785 86 l 197 86 l 707 844 l 707 885 l 129 885 l 129 936 l 400 936 l 294 1057 l 394 1057 l 444 993 l 494 1057 l 594 1057 l 489 936 m 104 0 l 104 106 l 568 800 l 129 800 l 129 850 l 665 850 l 156 89 l 156 50 l 785 50 l 785 0 "},"Ż":{"ha":861,"x_min":0,"x_max":0,"o":"m 758 936 l 758 831 l 293 136 l 785 136 l 785 86 l 197 86 l 707 844 l 707 885 l 129 885 l 129 936 l 396 936 l 396 1043 l 496 1043 l 496 936 m 104 0 l 104 106 l 568 800 l 129 800 l 129 850 l 665 850 l 156 89 l 156 50 l 785 50 l 785 0 "},"Ŋ":{"ha":1083,"x_min":0,"x_max":0,"o":"m 938 -26 b 669 -308 938 -179 853 -286 l 657 -260 b 888 -25 825 -235 888 -137 l 888 936 l 938 936 m 232 0 l 232 838 l 846 50 l 847 -26 b 647 -226 847 -108 790 -208 l 633 -172 b 796 3 746 -157 794 -100 l 796 28 l 282 682 l 282 0 m 851 107 l 242 886 l 196 886 l 196 0 l 146 0 l 146 936 l 268 936 l 801 253 l 801 936 l 851 936 "},"Ð":{"ha":1031,"x_min":0,"x_max":0,"o":"m 146 0 l 146 454 l 14 454 l 14 515 l 146 515 l 146 936 l 524 936 b 968 469 828 936 968 725 b 524 0 968 213 818 0 m 524 50 b 917 469 783 50 917 242 b 524 886 917 696 792 886 l 197 886 l 197 50 m 236 86 l 236 850 l 517 850 b 874 468 735 850 874 703 b 517 86 874 243 753 86 m 517 136 b 822 468 719 136 822 274 b 517 800 822 671 704 800 l 288 800 l 288 515 l 528 515 l 528 454 l 288 454 l 288 136 "},"Þ":{"ha":890,"x_min":0,"x_max":0,"o":"m 236 318 l 236 754 l 500 754 b 724 538 636 754 724 669 b 499 318 724 394 647 318 m 236 0 l 236 283 l 503 283 b 764 540 667 283 764 382 b 504 789 764 692 658 789 l 236 789 l 236 936 l 288 936 l 288 839 l 504 839 b 814 540 689 839 814 724 b 503 233 814 350 700 233 l 288 233 l 288 0 m 499 367 b 672 538 614 367 672 429 b 500 707 672 639 606 707 l 288 707 l 288 367 m 146 0 l 146 936 l 197 936 l 197 0 "},"a":{"ha":938,"x_min":0,"x_max":0,"o":"m 851 0 l 497 893 l 443 893 l 86 0 l 28 0 l 406 943 l 533 943 l 910 0 m 749 0 l 649 260 l 285 260 l 185 0 l 128 0 l 251 310 l 685 310 l 806 0 m 264 340 l 469 856 l 672 340 m 468 732 l 336 389 l 600 389 "},"b":{"ha":947,"x_min":0,"x_max":0,"o":"m 236 500 l 236 851 l 518 851 b 710 675 636 851 710 786 b 517 500 710 560 632 500 m 236 85 l 236 468 l 507 468 b 757 278 657 468 757 408 b 514 85 757 142 676 85 m 524 50 b 797 274 669 50 797 118 b 599 486 797 399 708 481 b 750 681 692 503 750 579 b 531 886 750 822 636 886 l 197 886 l 197 50 m 146 0 l 146 936 l 531 936 b 801 681 663 936 801 858 b 706 496 801 597 764 535 b 849 274 788 463 849 393 b 524 0 849 82 699 0 m 514 132 b 706 278 643 132 706 178 b 507 421 706 374 632 421 l 288 421 l 288 132 m 517 550 b 658 675 601 550 658 592 b 518 804 658 756 604 804 l 288 804 l 288 550 "},"c":{"ha":947,"x_min":0,"x_max":0,"o":"m 846 143 b 496 -18 760 39 650 -18 b 63 467 200 -18 63 221 b 496 954 63 715 200 954 b 846 792 658 954 769 892 l 808 758 b 496 904 717 864 640 904 b 115 467 236 904 115 690 b 499 32 115 246 239 32 b 808 176 622 32 717 71 m 779 201 b 501 67 693 97 611 67 b 158 468 269 67 158 267 b 499 869 158 668 264 869 b 779 733 614 869 700 835 l 739 697 b 499 819 682 776 603 819 b 211 468 300 819 211 643 b 499 117 211 293 300 117 b 739 239 597 117 668 147 "},"d":{"ha":1031,"x_min":0,"x_max":0,"o":"m 236 86 l 236 850 l 517 850 b 874 468 735 850 874 703 b 517 86 874 243 753 86 m 524 50 b 917 469 783 50 917 242 b 524 886 917 696 792 886 l 197 886 l 197 50 m 146 0 l 146 936 l 524 936 b 968 469 828 936 968 725 b 524 0 968 213 818 0 m 517 136 b 822 468 719 136 822 274 b 517 800 822 671 704 800 l 288 800 l 288 136 "},"e":{"ha":869,"x_min":0,"x_max":0,"o":"m 144 0 l 144 936 l 725 936 l 725 886 l 196 886 l 196 50 l 753 50 l 753 0 m 235 86 l 235 467 l 683 467 l 683 418 l 286 418 l 286 136 l 753 136 l 753 86 m 235 501 l 235 850 l 725 850 l 725 800 l 286 800 l 286 550 l 683 550 l 683 501 "},"f":{"ha":849,"x_min":0,"x_max":0,"o":"m 236 464 l 236 850 l 756 850 l 756 800 l 288 800 l 288 513 l 714 513 l 714 464 m 288 381 l 288 0 l 236 0 l 236 429 l 714 429 l 714 381 m 146 0 l 146 936 l 756 936 l 756 886 l 197 886 l 197 0 "},"g":{"ha":964,"x_min":0,"x_max":0,"o":"m 717 339 l 457 339 l 457 388 l 768 388 l 768 100 b 543 65 697 75 615 65 b 158 468 282 65 158 225 b 499 869 158 668 264 869 b 779 733 614 869 700 835 l 739 697 b 499 819 682 776 603 819 b 211 468 300 819 211 643 b 543 115 211 256 318 115 b 717 138 601 115 668 122 m 804 422 l 457 422 l 457 471 l 856 471 l 856 39 b 535 -18 754 -1 643 -18 b 63 467 236 -18 63 165 b 496 954 63 715 200 954 b 846 792 658 954 769 892 l 808 758 b 496 904 717 864 640 904 b 115 467 236 904 115 690 b 535 32 115 197 269 32 b 804 76 629 32 724 47 "},"h":{"ha":1082,"x_min":0,"x_max":0,"o":"m 236 503 l 236 936 l 288 936 l 288 551 l 794 551 l 794 936 l 846 936 l 846 503 m 885 0 l 885 936 l 936 936 l 936 0 m 794 0 l 794 415 l 288 415 l 288 0 l 236 0 l 236 465 l 846 465 l 846 0 m 146 0 l 146 936 l 197 936 l 197 0 "},"i":{"ha":432,"x_min":0,"x_max":0,"o":"m 235 0 l 235 936 l 286 936 l 286 0 m 146 0 l 146 936 l 197 936 l 197 0 "},"j":{"ha":711,"x_min":0,"x_max":0,"o":"m 514 936 l 565 936 l 565 283 b 299 -18 565 85 472 -18 b 22 142 192 -18 94 19 l 61 174 b 304 32 118 76 192 32 b 514 283 446 32 514 125 m 424 936 l 475 936 l 475 285 b 306 67 475 163 426 67 b 93 199 204 67 139 113 l 133 231 b 297 117 171 157 224 117 b 424 285 383 117 424 174 "},"k":{"ha":950,"x_min":0,"x_max":0,"o":"m 146 0 l 146 936 l 197 936 l 197 0 m 700 0 l 288 450 l 288 0 l 236 0 l 236 936 l 288 936 l 288 504 l 707 936 l 778 936 l 331 479 l 771 0 m 825 0 l 376 479 l 826 936 l 896 936 l 447 479 l 896 0 "},"l":{"ha":842,"x_min":0,"x_max":0,"o":"m 236 86 l 236 936 l 288 936 l 288 136 l 765 136 l 765 86 m 146 0 l 146 936 l 197 936 l 197 50 l 765 50 l 765 0 "},"m":{"ha":1176,"x_min":0,"x_max":0,"o":"m 889 0 l 889 660 l 636 268 l 536 268 l 282 660 l 282 0 l 232 0 l 232 835 l 565 321 l 613 321 l 940 832 l 940 0 m 979 0 l 979 886 l 929 886 l 589 353 l 243 886 l 196 886 l 196 0 l 146 0 l 146 936 l 271 936 l 589 440 l 904 936 l 1031 936 l 1031 0 "},"n":{"ha":1083,"x_min":0,"x_max":0,"o":"m 242 886 l 196 886 l 196 0 l 146 0 l 146 936 l 268 936 l 801 253 l 801 936 l 851 936 l 851 107 m 818 0 l 282 682 l 282 0 l 232 0 l 232 838 l 846 50 l 888 50 l 888 936 l 938 936 l 938 0 "},"o":{"ha":1042,"x_min":0,"x_max":0,"o":"m 522 67 b 158 468 267 67 158 271 b 519 869 158 667 264 869 b 883 468 775 869 883 665 b 522 67 883 269 778 67 m 522 32 b 926 467 794 32 926 240 b 519 904 926 696 793 904 b 115 469 247 904 115 696 b 522 32 115 240 249 32 m 522 -18 b 63 469 214 -18 63 214 b 519 954 63 722 211 954 b 979 467 826 954 979 722 b 522 -18 979 214 831 -18 m 522 117 b 831 468 738 117 831 294 b 519 819 831 639 736 819 b 211 468 304 819 211 642 b 522 117 211 297 306 117 "},"p":{"ha":890,"x_min":0,"x_max":0,"o":"m 236 415 l 236 851 l 500 851 b 724 635 636 851 724 767 b 499 415 724 492 647 415 m 236 0 l 236 381 l 503 381 b 764 638 667 381 764 479 b 504 886 764 789 658 886 l 197 886 l 197 0 l 146 0 l 146 936 l 504 936 b 814 638 689 936 814 821 b 503 331 814 447 700 331 l 288 331 l 288 0 m 499 464 b 672 635 614 464 672 526 b 500 804 672 736 606 804 l 288 804 l 288 464 "},"q":{"ha":1042,"x_min":0,"x_max":0,"o":"m 522 67 b 158 468 267 67 158 271 b 519 869 158 667 264 869 b 883 468 775 869 883 665 b 522 67 883 269 778 67 m 522 117 b 831 468 738 117 831 294 b 519 819 831 639 736 819 b 211 468 304 819 211 642 b 522 117 211 297 306 117 m 819 -289 l 564 33 b 926 467 813 56 926 256 b 519 904 926 696 793 904 b 115 469 247 904 115 696 b 528 32 115 240 246 32 l 775 -289 l 714 -289 l 506 -18 b 63 469 210 -11 63 218 b 519 954 63 722 211 954 b 979 467 826 954 979 722 b 651 -1 979 253 872 51 l 879 -289 "},"r":{"ha":956,"x_min":0,"x_max":0,"o":"m 701 0 l 454 374 l 288 374 l 288 0 l 236 0 l 236 422 l 482 422 l 764 0 m 236 454 l 236 853 l 499 853 b 707 657 615 853 707 781 b 490 454 707 515 614 454 m 815 0 l 526 424 b 747 658 632 435 747 500 b 503 888 747 801 638 888 l 197 888 l 197 0 l 146 0 l 146 936 l 503 936 b 799 658 665 936 799 836 b 611 393 799 513 718 428 l 879 0 m 490 503 b 656 657 586 503 656 553 b 499 803 656 749 588 803 l 288 803 l 288 503 "},"s":{"ha":913,"x_min":0,"x_max":0,"o":"m 753 756 b 468 904 656 879 567 904 b 210 690 292 904 210 815 b 449 465 210 558 332 506 b 690 240 611 411 690 367 b 461 68 690 147 601 68 b 176 215 356 68 257 107 l 217 253 b 461 118 282 167 357 118 b 639 240 581 118 639 169 b 433 415 639 339 561 371 b 160 690 301 461 160 514 b 468 954 160 858 285 954 b 789 789 596 954 696 910 m 688 694 b 461 818 622 778 556 818 b 308 704 350 818 308 769 b 504 544 308 613 390 585 b 788 257 640 496 788 446 b 454 -18 788 82 642 -18 b 108 153 317 -18 210 29 l 144 186 b 454 32 242 63 347 32 b 736 257 597 32 736 101 b 486 496 736 399 619 449 b 257 704 339 549 257 585 b 461 868 257 796 321 868 b 724 728 561 868 644 835 "},"t":{"ha":875,"x_min":0,"x_max":0,"o":"m 367 0 l 367 800 l 42 800 l 42 850 l 418 850 l 418 0 m 457 0 l 457 850 l 833 850 l 833 800 l 508 800 l 508 0 m 42 886 l 42 936 l 833 936 l 833 886 "},"u":{"ha":1082,"x_min":0,"x_max":0,"o":"m 885 936 l 936 936 l 936 319 b 540 -18 936 107 775 -18 b 146 319 313 -18 146 108 l 146 936 l 197 936 l 197 319 b 540 32 197 143 343 32 b 885 319 744 32 885 142 m 794 936 l 846 936 l 846 326 b 540 67 846 168 725 67 b 236 328 361 67 236 174 l 236 936 l 288 936 l 288 328 b 539 117 288 204 393 117 b 794 326 689 117 794 200 "},"v":{"ha":938,"x_min":0,"x_max":0,"o":"m 404 -7 l 28 936 l 86 936 l 440 43 l 494 43 l 851 936 l 910 936 l 532 -7 m 132 936 l 189 936 l 469 204 l 753 936 l 810 936 l 468 81 "},"w":{"ha":1306,"x_min":0,"x_max":0,"o":"m 833 -7 l 651 682 l 468 -7 l 328 -7 l 75 936 l 129 936 l 368 43 l 425 43 l 653 847 l 875 43 l 935 43 l 1174 936 l 1231 936 l 976 -7 m 683 886 l 625 886 l 396 85 l 179 936 l 233 936 l 400 236 l 586 936 l 725 936 l 901 238 l 1076 936 l 1131 936 l 904 85 "},"x":{"ha":947,"x_min":0,"x_max":0,"o":"m 60 0 l 381 472 l 63 936 l 126 936 l 444 472 l 122 0 m 711 0 l 472 363 l 232 0 l 168 0 l 472 447 l 776 0 m 826 0 l 503 471 l 822 936 l 886 936 l 567 471 l 889 0 m 176 936 l 240 936 l 476 579 l 713 936 l 778 936 l 476 496 "},"y":{"ha":892,"x_min":0,"x_max":0,"o":"m 374 0 l 374 429 l 36 936 l 100 936 l 425 447 l 425 0 m 464 0 l 464 447 l 792 936 l 856 936 l 515 429 l 515 0 m 150 936 l 213 936 l 447 567 l 682 936 l 744 936 l 446 482 "},"z":{"ha":861,"x_min":0,"x_max":0,"o":"m 104 0 l 104 106 l 568 800 l 129 800 l 129 850 l 665 850 l 156 89 l 156 50 l 785 50 l 785 0 m 197 86 l 707 844 l 707 885 l 129 885 l 129 936 l 758 936 l 758 831 l 293 136 l 785 136 l 785 86 "},"à":{"ha":938,"x_min":0,"x_max":0,"o":"m 851 0 l 497 893 l 443 893 l 86 0 l 28 0 l 406 943 l 419 943 l 331 1057 l 433 1057 l 519 943 l 533 943 l 910 0 m 264 340 l 469 856 l 672 340 m 749 0 l 649 260 l 285 260 l 185 0 l 128 0 l 251 310 l 685 310 l 806 0 m 468 732 l 336 389 l 600 389 "},"á":{"ha":938,"x_min":0,"x_max":0,"o":"m 851 0 l 497 893 l 443 893 l 86 0 l 28 0 l 406 943 l 419 943 l 506 1057 l 608 1057 l 519 943 l 533 943 l 910 0 m 264 340 l 469 856 l 672 340 m 749 0 l 649 260 l 285 260 l 185 0 l 128 0 l 251 310 l 685 310 l 806 0 m 468 732 l 336 389 l 600 389 "},"â":{"ha":938,"x_min":0,"x_max":0,"o":"m 536 936 l 910 0 l 851 0 l 497 893 l 443 893 l 86 0 l 28 0 l 403 936 l 319 936 l 425 1057 l 514 1057 l 619 936 m 264 340 l 469 856 l 672 340 m 749 0 l 649 260 l 285 260 l 185 0 l 128 0 l 251 310 l 685 310 l 806 0 m 468 732 l 336 389 l 600 389 m 425 943 l 514 943 l 469 1000 "},"ã":{"ha":938,"x_min":0,"x_max":0,"o":"m 572 1057 l 647 1057 b 550 931 642 996 622 931 l 538 931 l 910 0 l 851 0 l 497 893 l 443 893 l 86 0 l 28 0 l 406 943 l 490 943 b 469 953 483 946 476 949 l 376 997 l 368 936 l 293 936 b 390 1063 299 997 318 1063 b 471 1040 418 1063 442 1054 l 564 996 m 264 340 l 469 856 l 672 340 m 749 0 l 649 260 l 285 260 l 185 0 l 128 0 l 251 310 l 685 310 l 806 0 m 468 732 l 336 389 l 600 389 "},"ä":{"ha":938,"x_min":0,"x_max":0,"o":"m 536 936 l 910 0 l 851 0 l 497 893 l 443 893 l 86 0 l 28 0 l 403 936 l 328 936 l 328 1043 l 428 1043 l 428 943 l 508 943 l 508 1043 l 608 1043 l 608 936 m 264 340 l 469 856 l 672 340 m 749 0 l 649 260 l 285 260 l 185 0 l 128 0 l 251 310 l 685 310 l 806 0 m 468 732 l 336 389 l 600 389 "},"ā":{"ha":938,"x_min":0,"x_max":0,"o":"m 536 936 l 910 0 l 851 0 l 497 893 l 443 893 l 86 0 l 28 0 l 403 936 l 301 936 l 301 1013 l 638 1013 l 638 936 m 264 340 l 469 856 l 672 340 m 749 0 l 649 260 l 285 260 l 185 0 l 128 0 l 251 310 l 685 310 l 806 0 m 468 732 l 336 389 l 600 389 "},"ă":{"ha":938,"x_min":0,"x_max":0,"o":"m 643 1057 b 535 938 639 989 600 951 l 910 0 l 851 0 l 497 893 l 443 893 l 86 0 l 28 0 l 403 938 b 296 1057 339 951 299 989 l 365 1057 b 469 996 369 1014 406 996 b 574 1057 532 996 569 1014 m 264 340 l 469 856 l 672 340 m 749 0 l 649 260 l 285 260 l 185 0 l 128 0 l 251 310 l 685 310 l 806 0 m 468 732 l 336 389 l 600 389 "},"å":{"ha":938,"x_min":0,"x_max":0,"o":"m 581 1025 b 529 943 581 985 561 957 l 533 943 l 910 0 l 851 0 l 497 893 l 443 893 l 86 0 l 28 0 l 406 943 b 353 1025 372 957 353 985 b 467 1118 353 1086 396 1118 b 581 1025 538 1118 581 1085 m 264 340 l 469 856 l 672 340 m 749 0 l 649 260 l 285 260 l 185 0 l 128 0 l 251 310 l 685 310 l 806 0 m 468 732 l 336 389 l 600 389 m 517 1025 b 467 1067 517 1049 501 1067 b 418 1025 433 1067 418 1049 b 467 985 418 1003 433 985 b 517 1025 501 985 517 1000 "},"ǻ":{"ha":938,"x_min":0,"x_max":0,"o":"m 583 1025 b 532 943 583 985 564 957 l 533 943 l 910 0 l 851 0 l 497 893 l 443 893 l 86 0 l 28 0 l 406 943 l 407 943 b 356 1025 374 957 356 985 b 424 1113 356 1071 381 1101 l 508 1224 l 611 1224 l 522 1110 b 583 1025 561 1097 583 1068 m 264 340 l 469 856 l 672 340 m 749 0 l 649 260 l 285 260 l 185 0 l 128 0 l 251 310 l 685 310 l 806 0 m 468 732 l 336 389 l 600 389 m 519 1025 b 469 1067 519 1049 504 1067 b 421 1025 436 1067 421 1049 b 469 985 421 1003 436 985 b 519 1025 504 985 519 1000 "},"ą":{"ha":938,"x_min":0,"x_max":0,"o":"m 851 0 l 497 893 l 443 893 l 86 0 l 28 0 l 406 943 l 533 943 l 910 0 l 857 0 l 826 -61 l 894 -67 l 901 -125 b 849 -131 883 -129 869 -131 b 756 -54 786 -131 756 -100 b 776 0 756 -35 764 -15 l 749 0 l 649 260 l 285 260 l 185 0 l 128 0 l 251 310 l 685 310 l 806 0 m 264 340 l 469 856 l 672 340 m 468 732 l 336 389 l 600 389 "},"æ":{"ha":1350,"x_min":0,"x_max":0,"o":"m 613 886 l 76 0 l 14 0 l 586 936 l 1206 936 l 1206 886 m 757 86 l 757 406 l 1164 406 l 1164 357 l 808 357 l 808 136 l 1233 136 l 1233 86 m 757 440 l 757 850 l 1206 850 l 1206 800 l 808 800 l 808 489 l 1164 489 l 1164 440 m 667 800 l 653 800 l 468 486 l 667 486 m 667 0 l 667 357 l 393 357 l 183 0 l 122 0 l 367 407 l 718 407 l 718 50 l 1233 50 l 1233 0 m 386 438 l 633 850 l 718 850 l 718 438 "},"ǽ":{"ha":1350,"x_min":0,"x_max":0,"o":"m 1206 936 l 1206 886 l 613 886 l 76 0 l 14 0 l 586 936 l 694 936 l 786 1057 l 889 1057 l 794 936 m 386 438 l 633 850 l 718 850 l 718 438 m 667 0 l 667 357 l 393 357 l 183 0 l 122 0 l 367 407 l 718 407 l 718 50 l 1233 50 l 1233 0 m 757 440 l 757 850 l 1206 850 l 1206 800 l 808 800 l 808 489 l 1164 489 l 1164 440 m 757 86 l 757 406 l 1164 406 l 1164 357 l 808 357 l 808 136 l 1233 136 l 1233 86 m 667 800 l 653 800 l 468 486 l 667 486 "},"ć":{"ha":947,"x_min":0,"x_max":0,"o":"m 846 143 b 496 -18 760 39 650 -18 b 63 467 200 -18 63 221 b 426 949 63 694 178 914 l 508 1057 l 611 1057 l 529 953 b 846 792 674 944 775 885 l 808 758 b 496 904 717 864 640 904 b 115 467 236 904 115 690 b 499 32 115 246 239 32 b 808 176 622 32 717 71 m 779 201 b 501 67 693 97 611 67 b 158 468 269 67 158 267 b 499 869 158 668 264 869 b 779 733 614 869 700 835 l 739 697 b 499 819 682 776 603 819 b 211 468 300 819 211 643 b 499 117 211 293 300 117 b 739 239 597 117 668 147 "},"ĉ":{"ha":947,"x_min":0,"x_max":0,"o":"m 636 936 b 846 792 725 910 793 860 l 808 758 b 496 904 717 864 640 904 b 115 467 236 904 115 690 b 499 32 115 246 239 32 b 808 176 622 32 717 71 l 846 143 b 496 -18 760 39 650 -18 b 63 467 200 -18 63 221 b 364 936 63 675 158 876 l 350 936 l 456 1057 l 544 1057 l 650 936 m 779 201 b 501 67 693 97 611 67 b 158 468 269 67 158 267 b 499 869 158 668 264 869 b 779 733 614 869 700 835 l 739 697 b 499 819 682 776 603 819 b 211 468 300 819 211 643 b 499 117 211 293 300 117 b 739 239 597 117 668 147 m 496 954 b 538 953 510 954 524 953 l 500 1000 l 463 953 b 496 954 474 953 485 954 "},"č":{"ha":947,"x_min":0,"x_max":0,"o":"m 846 143 b 496 -18 760 39 650 -18 b 63 467 200 -18 63 221 b 442 951 63 700 183 924 l 350 1057 l 450 1057 l 500 993 l 550 1057 l 650 1057 l 557 950 b 846 792 686 936 779 878 l 808 758 b 496 904 717 864 640 904 b 115 467 236 904 115 690 b 499 32 115 246 239 32 b 808 176 622 32 717 71 m 779 201 b 501 67 693 97 611 67 b 158 468 269 67 158 267 b 499 869 158 668 264 869 b 779 733 614 869 700 835 l 739 697 b 499 819 682 776 603 819 b 211 468 300 819 211 643 b 499 117 211 293 300 117 b 739 239 597 117 668 147 "},"ċ":{"ha":947,"x_min":0,"x_max":0,"o":"m 846 143 b 496 -18 760 39 650 -18 b 63 467 200 -18 63 221 b 453 951 63 703 186 929 l 453 1043 l 553 1043 l 553 951 b 846 792 685 938 778 879 l 808 758 b 496 904 717 864 640 904 b 115 467 236 904 115 690 b 499 32 115 246 239 32 b 808 176 622 32 717 71 m 779 201 b 501 67 693 97 611 67 b 158 468 269 67 158 267 b 499 869 158 668 264 869 b 779 733 614 869 700 835 l 739 697 b 499 819 682 776 603 819 b 211 468 300 819 211 643 b 499 117 211 293 300 117 b 739 239 597 117 668 147 "},"ç":{"ha":947,"x_min":0,"x_max":0,"o":"m 367 -121 l 449 -15 b 63 467 185 8 63 233 b 496 954 63 715 200 954 b 846 792 658 954 769 892 l 808 758 b 496 904 717 864 640 904 b 115 467 236 904 115 690 b 499 32 115 246 239 32 b 808 176 622 32 717 71 l 846 143 b 549 -15 769 51 675 -4 l 469 -121 m 779 201 b 501 67 693 97 611 67 b 158 468 269 67 158 267 b 499 869 158 668 264 869 b 779 733 614 869 700 835 l 739 697 b 499 819 682 776 603 819 b 211 468 300 819 211 643 b 499 117 211 293 300 117 b 739 239 597 117 668 147 "},"ď":{"ha":1031,"x_min":0,"x_max":0,"o":"m 531 936 b 968 469 829 932 968 722 b 524 0 968 213 818 0 l 146 0 l 146 936 l 442 936 l 336 1057 l 436 1057 l 486 993 l 536 1057 l 636 1057 l 531 936 m 524 50 b 917 469 783 50 917 242 b 524 886 917 696 792 886 l 197 886 l 197 50 m 236 86 l 236 850 l 517 850 b 874 468 735 850 874 703 b 517 86 874 243 753 86 m 517 136 b 822 468 719 136 822 274 b 517 800 822 671 704 800 l 288 800 l 288 136 "},"đ":{"ha":1031,"x_min":0,"x_max":0,"o":"m 146 0 l 146 454 l 14 454 l 14 515 l 146 515 l 146 936 l 524 936 b 968 469 828 936 968 725 b 524 0 968 213 818 0 m 524 50 b 917 469 783 50 917 242 b 524 886 917 696 792 886 l 197 886 l 197 50 m 236 86 l 236 850 l 517 850 b 874 468 735 850 874 703 b 517 86 874 243 753 86 m 517 136 b 822 468 719 136 822 274 b 517 800 822 671 704 800 l 288 800 l 288 515 l 528 515 l 528 454 l 288 454 l 288 136 "},"è":{"ha":869,"x_min":0,"x_max":0,"o":"m 725 936 l 725 886 l 196 886 l 196 50 l 753 50 l 753 0 l 144 0 l 144 936 l 397 936 l 303 1057 l 406 1057 l 497 936 m 235 86 l 235 467 l 683 467 l 683 418 l 286 418 l 286 136 l 753 136 l 753 86 m 235 501 l 235 850 l 725 850 l 725 800 l 286 800 l 286 550 l 683 550 l 683 501 "},"é":{"ha":869,"x_min":0,"x_max":0,"o":"m 725 936 l 725 886 l 196 886 l 196 50 l 753 50 l 753 0 l 144 0 l 144 936 l 386 936 l 478 1057 l 581 1057 l 486 936 m 235 86 l 235 467 l 683 467 l 683 418 l 286 418 l 286 136 l 753 136 l 753 86 m 235 501 l 235 850 l 725 850 l 725 800 l 286 800 l 286 550 l 683 550 l 683 501 "},"ê":{"ha":869,"x_min":0,"x_max":0,"o":"m 725 936 l 725 886 l 196 886 l 196 50 l 753 50 l 753 0 l 144 0 l 144 936 l 286 936 l 392 1057 l 481 1057 l 586 936 m 235 86 l 235 467 l 683 467 l 683 418 l 286 418 l 286 136 l 753 136 l 753 86 m 235 501 l 235 850 l 725 850 l 725 800 l 286 800 l 286 550 l 683 550 l 683 501 m 386 936 l 486 936 l 436 1000 "},"ě":{"ha":869,"x_min":0,"x_max":0,"o":"m 725 936 l 725 886 l 196 886 l 196 50 l 753 50 l 753 0 l 144 0 l 144 936 l 397 936 l 292 1057 l 392 1057 l 442 993 l 492 1057 l 592 1057 l 486 936 m 235 86 l 235 467 l 683 467 l 683 418 l 286 418 l 286 136 l 753 136 l 753 86 m 235 501 l 235 850 l 725 850 l 725 800 l 286 800 l 286 550 l 683 550 l 683 501 "},"ë":{"ha":869,"x_min":0,"x_max":0,"o":"m 725 936 l 725 886 l 196 886 l 196 50 l 753 50 l 753 0 l 144 0 l 144 936 l 303 936 l 303 1043 l 403 1043 l 403 936 l 483 936 l 483 1043 l 583 1043 l 583 936 m 235 86 l 235 467 l 683 467 l 683 418 l 286 418 l 286 136 l 753 136 l 753 86 m 235 501 l 235 850 l 725 850 l 725 800 l 286 800 l 286 550 l 683 550 l 683 501 "},"ē":{"ha":869,"x_min":0,"x_max":0,"o":"m 725 936 l 725 886 l 196 886 l 196 50 l 753 50 l 753 0 l 144 0 l 144 936 l 276 936 l 276 1013 l 613 1013 l 613 936 m 235 86 l 235 467 l 683 467 l 683 418 l 286 418 l 286 136 l 753 136 l 753 86 m 235 501 l 235 850 l 725 850 l 725 800 l 286 800 l 286 550 l 683 550 l 683 501 "},"ĕ":{"ha":869,"x_min":0,"x_max":0,"o":"m 622 1057 b 508 936 618 988 576 949 l 725 936 l 725 886 l 196 886 l 196 50 l 753 50 l 753 0 l 144 0 l 144 936 l 388 936 b 275 1057 319 949 278 988 l 344 1057 b 449 996 349 1014 385 996 b 553 1057 511 996 549 1014 m 235 86 l 235 467 l 683 467 l 683 418 l 286 418 l 286 136 l 753 136 l 753 86 m 235 501 l 235 850 l 725 850 l 725 800 l 286 800 l 286 550 l 683 550 l 683 501 "},"ė":{"ha":869,"x_min":0,"x_max":0,"o":"m 725 936 l 725 886 l 196 886 l 196 50 l 753 50 l 753 0 l 144 0 l 144 936 l 392 936 l 392 1043 l 492 1043 l 492 936 m 235 86 l 235 467 l 683 467 l 683 418 l 286 418 l 286 136 l 753 136 l 753 86 m 235 501 l 235 850 l 725 850 l 725 800 l 286 800 l 286 550 l 683 550 l 683 501 "},"ę":{"ha":869,"x_min":0,"x_max":0,"o":"m 144 0 l 144 936 l 725 936 l 725 886 l 196 886 l 196 50 l 753 50 l 753 0 l 707 0 l 676 -61 l 744 -67 l 751 -125 b 699 -131 733 -129 719 -131 b 606 -54 636 -131 606 -100 b 626 0 606 -35 614 -15 m 235 86 l 235 467 l 683 467 l 683 418 l 286 418 l 286 136 l 753 136 l 753 86 m 235 501 l 235 850 l 725 850 l 725 800 l 286 800 l 286 550 l 683 550 l 683 501 "},"ĝ":{"ha":964,"x_min":0,"x_max":0,"o":"m 636 936 b 846 792 725 910 793 860 l 808 758 b 496 904 717 864 640 904 b 115 467 236 904 115 690 b 535 32 115 197 269 32 b 804 76 629 32 724 47 l 804 422 l 457 422 l 457 471 l 856 471 l 856 39 b 535 -18 754 -1 643 -18 b 63 467 236 -18 63 165 b 364 936 63 675 158 876 l 350 936 l 456 1057 l 544 1057 l 650 936 m 717 339 l 457 339 l 457 388 l 768 388 l 768 100 b 543 65 697 75 615 65 b 158 468 282 65 158 225 b 499 869 158 668 264 869 b 779 733 614 869 700 835 l 739 697 b 499 819 682 776 603 819 b 211 468 300 819 211 643 b 543 115 211 256 318 115 b 717 138 601 115 668 122 m 496 954 b 538 953 510 954 524 953 l 500 1000 l 463 953 b 496 954 474 953 485 954 "},"ğ":{"ha":964,"x_min":0,"x_max":0,"o":"m 690 1057 b 606 943 688 999 657 961 b 846 792 710 921 788 867 l 808 758 b 496 904 717 864 640 904 b 115 467 236 904 115 690 b 535 32 115 197 269 32 b 804 76 629 32 724 47 l 804 422 l 457 422 l 457 471 l 856 471 l 856 39 b 535 -18 754 -1 643 -18 b 63 467 236 -18 63 165 b 415 947 63 692 175 908 b 343 1057 371 967 346 1003 l 413 1057 b 517 996 417 1014 453 996 b 621 1057 579 996 617 1014 m 717 339 l 457 339 l 457 388 l 768 388 l 768 100 b 543 65 697 75 615 65 b 158 468 282 65 158 225 b 499 869 158 668 264 869 b 779 733 614 869 700 835 l 739 697 b 499 819 682 776 603 819 b 211 468 300 819 211 643 b 543 115 211 256 318 115 b 717 138 601 115 668 122 "},"ġ":{"ha":964,"x_min":0,"x_max":0,"o":"m 804 422 l 457 422 l 457 471 l 856 471 l 856 39 b 535 -18 754 -1 643 -18 b 63 467 236 -18 63 165 b 454 951 63 703 188 931 l 454 1043 l 554 1043 l 554 951 b 846 792 685 938 779 879 l 808 758 b 496 904 717 864 640 904 b 115 467 236 904 115 690 b 535 32 115 197 269 32 b 804 76 629 32 724 47 m 717 339 l 457 339 l 457 388 l 768 388 l 768 100 b 543 65 697 75 615 65 b 158 468 282 65 158 225 b 499 869 158 668 264 869 b 779 733 614 869 700 835 l 739 697 b 499 819 682 776 603 819 b 211 468 300 819 211 643 b 543 115 211 256 318 115 b 717 138 601 115 668 122 "},"ģ":{"ha":964,"x_min":0,"x_max":0,"o":"m 717 339 l 457 339 l 457 388 l 768 388 l 768 100 b 543 65 697 75 615 65 b 158 468 282 65 158 225 b 499 869 158 668 264 869 b 779 733 614 869 700 835 l 739 697 b 499 819 682 776 603 819 b 211 468 300 819 211 643 b 543 115 211 256 318 115 b 717 138 601 115 668 122 m 804 422 l 457 422 l 457 471 l 856 471 l 856 39 b 535 -18 754 -1 643 -18 b 63 467 236 -18 63 165 b 496 954 63 715 200 954 b 846 792 658 954 769 892 l 808 758 b 496 904 717 864 640 904 b 115 467 236 904 115 690 b 535 32 115 197 269 32 b 804 76 629 32 724 47 m 382 -121 l 443 -43 l 544 -43 l 485 -121 "},"ĥ":{"ha":1082,"x_min":0,"x_max":0,"o":"m 236 503 l 236 936 l 288 936 l 288 551 l 794 551 l 794 936 l 846 936 l 846 503 m 885 0 l 885 936 l 936 936 l 936 0 m 794 0 l 794 415 l 288 415 l 288 0 l 236 0 l 236 465 l 846 465 l 846 0 m 146 0 l 146 936 l 197 936 l 197 0 m 590 936 l 540 1000 l 490 936 l 390 936 l 496 1057 l 585 1057 l 690 936 "},"ħ":{"ha":1082,"x_min":0,"x_max":0,"o":"m 236 503 l 236 936 l 288 936 l 288 736 l 794 736 l 794 936 l 846 936 l 846 503 m 794 0 l 794 415 l 288 415 l 288 0 l 236 0 l 236 465 l 846 465 l 846 0 m 794 551 l 794 675 l 288 675 l 288 551 m 885 0 l 885 936 l 936 936 l 936 736 l 1068 736 l 1068 675 l 936 675 l 936 0 m 146 0 l 146 675 l 14 675 l 14 736 l 146 736 l 146 936 l 197 936 l 197 0 "},"ì":{"ha":432,"x_min":0,"x_max":0,"o":"m 308 936 l 308 0 l 257 0 l 257 936 l 219 936 l 219 0 l 168 0 l 168 936 l 190 936 l 96 1057 l 199 1057 l 290 936 "},"í":{"ha":432,"x_min":0,"x_max":0,"o":"m 308 936 l 308 0 l 257 0 l 257 936 l 219 936 l 219 0 l 168 0 l 168 936 l 188 936 l 279 1057 l 382 1057 l 288 936 "},"î":{"ha":432,"x_min":0,"x_max":0,"o":"m 308 936 l 308 0 l 257 0 l 257 936 l 288 936 l 238 1000 l 188 936 l 219 936 l 219 0 l 168 0 l 168 936 l 88 936 l 193 1057 l 282 1057 l 388 936 "},"ĩ":{"ha":432,"x_min":0,"x_max":0,"o":"m 235 0 l 235 936 l 256 936 b 215 953 242 940 229 946 l 122 997 l 114 936 l 39 936 b 136 1063 44 997 64 1063 b 217 1040 164 1063 188 1054 l 310 996 l 318 1057 l 393 1057 b 296 931 388 996 368 931 l 286 931 l 286 0 m 146 0 l 146 936 l 197 936 l 197 0 "},"ï":{"ha":432,"x_min":0,"x_max":0,"o":"m 308 936 l 308 0 l 257 0 l 257 936 l 279 936 l 279 1043 l 379 1043 l 379 936 m 219 936 l 219 0 l 168 0 l 168 936 l 99 936 l 99 1043 l 199 1043 l 199 936 "},"ī":{"ha":432,"x_min":0,"x_max":0,"o":"m 286 936 l 286 0 l 235 0 l 235 936 l 197 936 l 197 0 l 146 0 l 146 936 l 47 936 l 47 1013 l 383 1013 l 383 936 "},"ĭ":{"ha":432,"x_min":0,"x_max":0,"o":"m 389 1057 b 275 936 385 988 343 949 l 286 936 l 286 0 l 235 0 l 235 931 l 215 931 l 197 931 l 197 0 l 146 0 l 146 936 l 154 936 b 42 1057 86 949 44 988 l 111 1057 b 215 996 115 1014 151 996 b 319 1057 278 996 315 1014 "},"į":{"ha":432,"x_min":0,"x_max":0,"o":"m 235 0 l 235 936 l 286 936 l 286 0 l 256 0 l 225 -61 l 293 -67 l 300 -125 b 247 -131 282 -129 268 -131 b 154 -54 185 -131 154 -100 b 175 0 154 -35 163 -15 l 146 0 l 146 936 l 197 936 l 197 0 "},"ı":{"ha":432,"x_min":0,"x_max":0,"o":"m 235 0 l 235 936 l 286 936 l 286 0 m 146 0 l 146 936 l 197 936 l 197 0 "},"":{"ha":432,"x_min":0,"x_max":0,"o":"m 235 0 l 235 936 l 286 936 l 286 0 m 146 0 l 146 936 l 197 936 l 197 0 "},"ĳ":{"ha":1143,"x_min":0,"x_max":0,"o":"m 235 0 l 235 936 l 286 936 l 286 0 m 146 0 l 146 936 l 197 936 l 197 0 m 946 936 l 997 936 l 997 283 b 731 -18 997 85 904 -18 b 454 142 624 -18 526 19 l 493 174 b 736 32 550 76 624 32 b 946 283 878 32 946 125 m 856 936 l 907 936 l 907 285 b 738 67 907 163 858 67 b 525 199 636 67 571 113 l 565 231 b 729 117 603 157 656 117 b 856 285 815 117 856 174 "},"ĵ":{"ha":711,"x_min":0,"x_max":0,"o":"m 565 936 l 565 283 b 299 -18 565 85 472 -18 b 22 142 192 -18 94 19 l 61 174 b 304 32 118 76 192 32 b 514 283 446 32 514 125 l 514 936 l 544 936 l 494 1000 l 444 936 l 475 936 l 475 285 b 306 67 475 163 426 67 b 93 199 204 67 139 113 l 133 231 b 297 117 171 157 224 117 b 424 285 383 117 424 174 l 424 936 l 344 936 l 450 1057 l 539 1057 l 644 936 "},"ķ":{"ha":950,"x_min":0,"x_max":0,"o":"m 146 0 l 146 936 l 197 936 l 197 0 m 700 0 l 288 450 l 288 0 l 236 0 l 236 936 l 288 936 l 288 504 l 707 936 l 778 936 l 331 479 l 771 0 m 825 0 l 376 479 l 826 936 l 896 936 l 447 479 l 896 0 m 347 -121 l 408 -43 l 510 -43 l 450 -121 "},"ĺ":{"ha":842,"x_min":0,"x_max":0,"o":"m 288 936 l 288 136 l 765 136 l 765 86 l 236 86 l 236 936 l 197 936 l 197 50 l 765 50 l 765 0 l 146 0 l 146 936 l 164 936 l 256 1057 l 358 1057 l 264 936 "},"ľ":{"ha":842,"x_min":0,"x_max":0,"o":"m 236 86 l 236 936 l 288 936 l 288 136 l 765 136 l 765 86 m 146 0 l 146 936 l 197 936 l 197 50 l 765 50 l 765 0 m 411 772 l 444 936 l 531 936 l 489 772 "},"ļ":{"ha":842,"x_min":0,"x_max":0,"o":"m 236 86 l 236 936 l 288 936 l 288 136 l 765 136 l 765 86 m 146 0 l 146 936 l 197 936 l 197 50 l 765 50 l 765 0 m 335 -121 l 396 -43 l 497 -43 l 438 -121 "},"ł":{"ha":842,"x_min":0,"x_max":0,"o":"m 236 86 l 236 936 l 288 936 l 288 496 l 610 671 l 610 601 l 288 425 l 288 136 l 765 136 l 765 86 m 146 0 l 146 349 l 42 292 l 42 363 l 146 419 l 146 936 l 197 936 l 197 50 l 765 50 l 765 0 "},"ŀ":{"ha":842,"x_min":0,"x_max":0,"o":"m 236 86 l 236 936 l 288 936 l 288 136 l 765 136 l 765 86 m 146 0 l 146 936 l 197 936 l 197 50 l 765 50 l 765 0 m 604 435 l 604 542 l 704 542 l 704 435 "},"ń":{"ha":1083,"x_min":0,"x_max":0,"o":"m 242 886 l 196 886 l 196 0 l 146 0 l 146 936 l 268 936 l 801 253 l 801 936 l 851 936 l 851 107 m 818 0 l 282 682 l 282 0 l 232 0 l 232 838 l 846 50 l 888 50 l 888 936 l 938 936 l 938 0 m 444 936 l 536 1057 l 639 1057 l 544 936 "},"ň":{"ha":1083,"x_min":0,"x_max":0,"o":"m 242 886 l 196 886 l 196 0 l 146 0 l 146 936 l 268 936 l 801 253 l 801 936 l 851 936 l 851 107 m 818 0 l 282 682 l 282 0 l 232 0 l 232 838 l 846 50 l 888 50 l 888 936 l 938 936 l 938 0 m 497 936 l 392 1057 l 492 1057 l 542 993 l 592 1057 l 692 1057 l 586 936 "},"ñ":{"ha":1083,"x_min":0,"x_max":0,"o":"m 242 886 l 196 886 l 196 0 l 146 0 l 146 936 l 268 936 l 801 253 l 801 936 l 851 936 l 851 107 m 818 0 l 282 682 l 282 0 l 232 0 l 232 838 l 846 50 l 888 50 l 888 936 l 938 936 l 938 0 m 663 1057 l 738 1057 b 640 931 732 996 713 931 b 560 953 611 931 588 939 l 467 997 l 458 936 l 383 936 b 481 1063 389 997 408 1063 b 561 1040 508 1063 532 1054 l 654 996 "},"ņ":{"ha":1083,"x_min":0,"x_max":0,"o":"m 242 886 l 196 886 l 196 0 l 146 0 l 146 936 l 268 936 l 801 253 l 801 936 l 851 936 l 851 107 m 818 0 l 282 682 l 282 0 l 232 0 l 232 838 l 846 50 l 888 50 l 888 936 l 938 936 l 938 0 m 418 -121 l 479 -43 l 581 -43 l 521 -121 "},"ò":{"ha":1042,"x_min":0,"x_max":0,"o":"m 522 -18 b 63 469 214 -18 63 214 b 461 951 63 706 192 924 l 379 1057 l 482 1057 l 561 953 b 979 467 840 932 979 710 b 522 -18 979 214 831 -18 m 522 32 b 926 467 794 32 926 240 b 519 904 926 696 793 904 b 115 469 247 904 115 696 b 522 32 115 240 249 32 m 522 67 b 158 468 267 67 158 271 b 519 869 158 667 264 869 b 883 468 775 869 883 665 b 522 67 883 269 778 67 m 522 117 b 831 468 738 117 831 294 b 519 819 831 639 736 819 b 211 468 304 819 211 642 b 522 117 211 297 306 117 "},"ó":{"ha":1042,"x_min":0,"x_max":0,"o":"m 522 -18 b 63 469 214 -18 63 214 b 468 951 63 707 194 928 l 549 1057 l 651 1057 l 569 951 b 979 467 843 928 979 708 b 522 -18 979 214 831 -18 m 522 32 b 926 467 794 32 926 240 b 519 904 926 696 793 904 b 115 469 247 904 115 696 b 522 32 115 240 249 32 m 522 67 b 158 468 267 67 158 271 b 519 869 158 667 264 869 b 883 468 775 869 883 665 b 522 67 883 269 778 67 m 522 117 b 831 468 738 117 831 294 b 519 819 831 639 736 819 b 211 468 304 819 211 642 b 522 117 211 297 306 117 "},"ô":{"ha":1042,"x_min":0,"x_max":0,"o":"m 658 936 b 979 467 872 876 979 681 b 522 -18 979 214 831 -18 b 63 469 214 -18 63 214 b 381 936 63 681 167 876 l 371 936 l 476 1057 l 565 1057 l 671 936 m 522 32 b 926 467 794 32 926 240 b 519 904 926 696 793 904 b 115 469 247 904 115 696 b 522 32 115 240 249 32 m 522 67 b 158 468 267 67 158 271 b 519 869 158 667 264 869 b 883 468 775 869 883 665 b 522 67 883 269 778 67 m 522 117 b 831 468 738 117 831 294 b 519 819 831 639 736 819 b 211 468 304 819 211 642 b 522 117 211 297 306 117 m 519 954 b 557 953 532 954 544 953 l 521 1000 l 483 953 b 519 954 496 953 507 954 "},"õ":{"ha":1042,"x_min":0,"x_max":0,"o":"m 626 1057 l 701 1057 b 644 939 697 1010 685 960 b 979 467 868 885 979 685 b 522 -18 979 214 831 -18 b 63 469 214 -18 63 214 b 381 936 63 681 167 876 l 347 936 b 444 1063 353 997 372 1063 b 525 1040 472 1063 496 1054 l 618 996 m 522 32 b 926 467 794 32 926 240 b 519 904 926 696 793 904 b 115 469 247 904 115 696 b 522 32 115 240 249 32 m 522 67 b 158 468 267 67 158 271 b 519 869 158 667 264 869 b 883 468 775 869 883 665 b 522 67 883 269 778 67 m 522 117 b 831 468 738 117 831 294 b 519 819 831 639 736 819 b 211 468 304 819 211 642 b 522 117 211 297 306 117 m 424 946 b 519 954 453 951 485 954 l 521 954 l 431 997 l 424 946 "},"ö":{"ha":1042,"x_min":0,"x_max":0,"o":"m 658 936 b 979 467 872 876 979 681 b 522 -18 979 214 831 -18 b 63 469 214 -18 63 214 b 381 936 63 681 167 876 l 379 936 l 379 1043 l 479 1043 l 479 953 b 519 954 492 953 506 954 b 560 953 533 954 546 953 l 560 1043 l 660 1043 l 660 936 m 522 32 b 926 467 794 32 926 240 b 519 904 926 696 793 904 b 115 469 247 904 115 696 b 522 32 115 240 249 32 m 522 67 b 158 468 267 67 158 271 b 519 869 158 667 264 869 b 883 468 775 869 883 665 b 522 67 883 269 778 67 m 522 117 b 831 468 738 117 831 294 b 519 819 831 639 736 819 b 211 468 304 819 211 642 b 522 117 211 297 306 117 "},"ō":{"ha":1042,"x_min":0,"x_max":0,"o":"m 658 936 b 979 467 872 876 979 681 b 522 -18 979 214 831 -18 b 63 469 214 -18 63 214 b 381 936 63 681 167 876 l 353 936 l 353 1013 l 689 1013 l 689 936 m 522 32 b 926 467 794 32 926 240 b 519 904 926 696 793 904 b 115 469 247 904 115 696 b 522 32 115 240 249 32 m 522 67 b 158 468 267 67 158 271 b 519 869 158 667 264 869 b 883 468 775 869 883 665 b 522 67 883 269 778 67 m 522 117 b 831 468 738 117 831 294 b 519 819 831 639 736 819 b 211 468 304 819 211 642 b 522 117 211 297 306 117 "},"ŏ":{"ha":1042,"x_min":0,"x_max":0,"o":"m 694 1057 b 615 946 692 1000 663 964 b 979 467 858 901 979 693 b 522 -18 979 214 831 -18 b 63 469 214 -18 63 214 b 425 946 63 694 181 903 b 347 1057 378 964 350 1000 l 417 1057 b 521 996 421 1014 457 996 b 625 1057 583 996 621 1014 m 522 32 b 926 467 794 32 926 240 b 519 904 926 696 793 904 b 115 469 247 904 115 696 b 522 32 115 240 249 32 m 522 67 b 158 468 267 67 158 271 b 519 869 158 667 264 869 b 883 468 775 869 883 665 b 522 67 883 269 778 67 m 522 117 b 831 468 738 117 831 294 b 519 819 831 639 736 819 b 211 468 304 819 211 642 b 522 117 211 297 306 117 "},"ő":{"ha":1042,"x_min":0,"x_max":0,"o":"m 522 -18 b 63 469 214 -18 63 214 b 381 936 63 681 167 876 l 378 936 l 469 1057 l 572 1057 l 490 953 b 519 954 500 954 510 954 b 567 953 535 954 551 954 l 646 1057 l 749 1057 l 654 936 b 979 467 871 879 979 681 b 522 -18 979 214 831 -18 m 522 32 b 926 467 794 32 926 240 b 519 904 926 696 793 904 b 115 469 247 904 115 696 b 522 32 115 240 249 32 m 522 67 b 158 468 267 67 158 271 b 519 869 158 667 264 869 b 883 468 775 869 883 665 b 522 67 883 269 778 67 m 522 117 b 831 468 738 117 831 294 b 519 819 831 639 736 819 b 211 468 304 819 211 642 b 522 117 211 297 306 117 "},"ø":{"ha":1042,"x_min":0,"x_max":0,"o":"m 522 -18 b 235 74 403 -18 307 17 l 174 0 l 86 0 l 185 119 b 63 469 103 210 63 336 b 519 954 63 722 211 954 b 806 863 638 954 733 919 l 868 936 l 956 936 l 856 817 b 979 467 938 725 979 599 b 522 -18 979 214 831 -18 m 522 32 b 926 467 794 32 926 240 b 519 904 926 696 793 904 b 115 469 247 904 115 696 b 522 32 115 240 249 32 m 522 67 b 158 468 267 67 158 271 b 519 869 158 667 264 869 b 883 468 775 869 883 665 b 522 67 883 269 778 67 m 522 117 b 831 468 738 117 831 294 b 760 703 831 551 808 636 l 326 183 b 522 117 375 142 440 117 m 211 468 b 281 233 211 385 233 299 l 714 751 b 519 819 665 793 601 819 b 211 468 304 819 211 642 "},"ǿ":{"ha":1042,"x_min":0,"x_max":0,"o":"m 522 -18 b 235 74 403 -18 307 17 l 174 0 l 86 0 l 185 119 b 63 469 103 210 63 336 b 468 951 63 707 194 928 l 549 1057 l 651 1057 l 569 951 b 806 863 665 943 743 911 l 868 936 l 956 936 l 856 817 b 979 467 938 725 979 599 b 522 -18 979 214 831 -18 m 522 32 b 926 467 794 32 926 240 b 519 904 926 696 793 904 b 115 469 247 904 115 696 b 522 32 115 240 249 32 m 522 67 b 158 468 267 67 158 271 b 519 869 158 667 264 869 b 883 468 775 869 883 665 b 522 67 883 269 778 67 m 522 117 b 831 468 738 117 831 294 b 760 703 831 551 808 636 l 326 183 b 522 117 375 142 440 117 m 211 468 b 281 233 211 385 233 299 l 714 751 b 519 819 665 793 601 819 b 211 468 304 819 211 642 "},"œ":{"ha":1440,"x_min":0,"x_max":0,"o":"m 819 86 l 819 467 l 1254 467 l 1254 418 l 871 418 l 871 136 l 1324 136 l 1324 86 m 819 501 l 819 850 l 1296 850 l 1296 800 l 871 800 l 871 550 l 1254 550 l 1254 501 m 514 86 b 157 468 296 86 157 233 b 514 850 157 693 278 850 l 781 850 l 781 86 m 507 0 b 63 467 203 0 63 211 b 507 936 63 724 213 936 l 1296 936 l 1296 886 l 507 886 b 114 467 247 886 114 694 b 507 50 114 240 239 50 l 1324 50 l 1324 0 m 729 800 l 514 800 b 208 468 311 800 208 663 b 514 136 208 265 326 136 l 729 136 "},"ŕ":{"ha":956,"x_min":0,"x_max":0,"o":"m 236 454 l 236 853 l 499 853 b 707 657 615 853 707 781 b 490 454 707 515 614 454 m 503 936 b 799 658 665 936 799 836 b 611 393 799 513 718 428 l 879 0 l 815 0 l 526 424 b 747 658 632 435 747 500 b 503 888 747 801 638 888 l 197 888 l 197 0 l 146 0 l 146 936 l 375 936 l 467 1057 l 569 1057 l 475 936 m 490 503 b 656 657 586 503 656 553 b 499 803 656 749 588 803 l 288 803 l 288 503 m 701 0 l 454 374 l 288 374 l 288 0 l 236 0 l 236 422 l 482 422 l 764 0 "},"ř":{"ha":956,"x_min":0,"x_max":0,"o":"m 236 454 l 236 853 l 499 853 b 707 657 615 853 707 781 b 490 454 707 515 614 454 m 503 936 b 799 658 665 936 799 836 b 611 393 799 513 718 428 l 879 0 l 815 0 l 526 424 b 747 658 632 435 747 500 b 503 888 747 801 638 888 l 197 888 l 197 0 l 146 0 l 146 936 l 375 936 l 269 1057 l 369 1057 l 419 993 l 469 1057 l 569 1057 l 464 936 m 490 503 b 656 657 586 503 656 553 b 499 803 656 749 588 803 l 288 803 l 288 503 m 701 0 l 454 374 l 288 374 l 288 0 l 236 0 l 236 422 l 482 422 l 764 0 "},"ŗ":{"ha":956,"x_min":0,"x_max":0,"o":"m 701 0 l 454 374 l 288 374 l 288 0 l 236 0 l 236 422 l 482 422 l 764 0 m 236 454 l 236 853 l 499 853 b 707 657 615 853 707 781 b 490 454 707 515 614 454 m 815 0 l 526 424 b 747 658 632 435 747 500 b 503 888 747 801 638 888 l 197 888 l 197 0 l 146 0 l 146 936 l 503 936 b 799 658 665 936 799 836 b 611 393 799 513 718 428 l 879 0 m 490 503 b 656 657 586 503 656 553 b 499 803 656 749 588 803 l 288 803 l 288 503 m 357 -121 l 418 -43 l 519 -43 l 460 -121 "},"ś":{"ha":913,"x_min":0,"x_max":0,"o":"m 753 756 b 468 904 656 879 567 904 b 210 690 292 904 210 815 b 449 465 210 558 332 506 b 690 240 611 411 690 367 b 461 68 690 147 601 68 b 176 215 356 68 257 107 l 217 253 b 461 118 282 167 357 118 b 639 240 581 118 639 169 b 433 415 639 339 561 371 b 160 690 301 461 160 514 b 394 949 160 835 251 925 l 476 1057 l 579 1057 l 497 953 b 789 789 611 946 703 900 m 688 694 b 461 818 622 778 556 818 b 308 704 350 818 308 769 b 504 544 308 613 390 585 b 788 257 640 496 788 446 b 454 -18 788 82 642 -18 b 108 153 317 -18 210 29 l 144 186 b 454 32 242 63 347 32 b 736 257 597 32 736 101 b 486 496 736 399 619 449 b 257 704 339 549 257 585 b 461 868 257 796 321 868 b 724 728 561 868 644 835 "},"ŝ":{"ha":913,"x_min":0,"x_max":0,"o":"m 594 936 b 789 789 667 913 729 867 l 753 756 b 468 904 656 879 567 904 b 210 690 292 904 210 815 b 449 465 210 558 332 506 b 690 240 611 411 690 367 b 461 68 690 147 601 68 b 176 215 356 68 257 107 l 217 253 b 461 118 282 167 357 118 b 639 240 581 118 639 169 b 433 415 639 339 561 371 b 160 690 301 461 160 514 b 340 936 160 815 229 900 l 318 936 l 424 1057 l 513 1057 l 618 936 m 688 694 b 461 818 622 778 556 818 b 308 704 350 818 308 769 b 504 544 308 613 390 585 b 788 257 640 496 788 446 b 454 -18 788 82 642 -18 b 108 153 317 -18 210 29 l 144 186 b 454 32 242 63 347 32 b 736 257 597 32 736 101 b 486 496 736 399 619 449 b 257 704 339 549 257 585 b 461 868 257 796 321 868 b 724 728 561 868 644 835 m 468 954 b 504 953 481 954 493 953 l 468 1000 l 431 953 b 468 954 443 953 456 954 "},"š":{"ha":913,"x_min":0,"x_max":0,"o":"m 753 756 b 468 904 656 879 567 904 b 210 690 292 904 210 815 b 449 465 210 558 332 506 b 690 240 611 411 690 367 b 461 68 690 147 601 68 b 176 215 356 68 257 107 l 217 253 b 461 118 282 167 357 118 b 639 240 581 118 639 169 b 433 415 639 339 561 371 b 160 690 301 461 160 514 b 408 950 160 839 258 932 l 315 1057 l 415 1057 l 465 993 l 515 1057 l 615 1057 l 522 951 b 789 789 625 939 710 892 m 688 694 b 461 818 622 778 556 818 b 308 704 350 818 308 769 b 504 544 308 613 390 585 b 788 257 640 496 788 446 b 454 -18 788 82 642 -18 b 108 153 317 -18 210 29 l 144 186 b 454 32 242 63 347 32 b 736 257 597 32 736 101 b 486 496 736 399 619 449 b 257 704 339 549 257 585 b 461 868 257 796 321 868 b 724 728 561 868 644 835 "},"ş":{"ha":913,"x_min":0,"x_max":0,"o":"m 351 -121 l 432 -17 b 108 153 304 -12 204 36 l 144 186 b 454 32 242 63 347 32 b 736 257 597 32 736 101 b 486 496 736 399 619 449 b 257 704 339 549 257 585 b 461 868 257 796 321 868 b 724 728 561 868 644 835 l 688 694 b 461 818 622 778 556 818 b 308 704 350 818 308 769 b 504 544 308 613 390 585 b 788 257 640 496 788 446 b 538 -10 788 108 683 15 l 454 -121 m 753 756 b 468 904 656 879 567 904 b 210 690 292 904 210 815 b 449 465 210 558 332 506 b 690 240 611 411 690 367 b 461 68 690 147 601 68 b 176 215 356 68 257 107 l 217 253 b 461 118 282 167 357 118 b 639 240 581 118 639 169 b 433 415 639 339 561 371 b 160 690 301 461 160 514 b 468 954 160 858 285 954 b 789 789 596 954 696 910 "},"ș":{"ha":913,"x_min":0,"x_max":0,"o":"m 753 756 b 468 904 656 879 567 904 b 210 690 292 904 210 815 b 449 465 210 558 332 506 b 690 240 611 411 690 367 b 461 68 690 147 601 68 b 176 215 356 68 257 107 l 217 253 b 461 118 282 167 357 118 b 639 240 581 118 639 169 b 433 415 639 339 561 371 b 160 690 301 461 160 514 b 468 954 160 858 285 954 b 789 789 596 954 696 910 m 688 694 b 461 818 622 778 556 818 b 308 704 350 818 308 769 b 504 544 308 613 390 585 b 788 257 640 496 788 446 b 454 -18 788 82 642 -18 b 108 153 317 -18 210 29 l 144 186 b 454 32 242 63 347 32 b 736 257 597 32 736 101 b 486 496 736 399 619 449 b 257 704 339 549 257 585 b 461 868 257 796 321 868 b 724 728 561 868 644 835 m 358 -121 l 419 -43 l 521 -43 l 461 -121 "},"ß":{"ha":1714,"x_min":0,"x_max":0,"o":"m 753 756 b 468 904 656 879 567 904 b 210 690 292 904 210 815 b 449 465 210 558 332 506 b 690 240 611 411 690 367 b 461 68 690 147 601 68 b 176 215 356 68 257 107 l 217 253 b 461 118 282 167 357 118 b 639 240 581 118 639 169 b 433 415 639 339 561 371 b 160 690 301 461 160 514 b 468 954 160 858 285 954 b 789 789 596 954 696 910 m 688 694 b 461 818 622 778 556 818 b 308 704 350 818 308 769 b 504 544 308 613 390 585 b 788 257 640 496 788 446 b 454 -18 788 82 642 -18 b 108 153 317 -18 210 29 l 144 186 b 454 32 242 63 347 32 b 736 257 597 32 736 101 b 486 496 736 399 619 449 b 257 704 339 549 257 585 b 461 868 257 796 321 868 b 724 728 561 868 644 835 m 1554 756 b 1269 904 1457 879 1368 904 b 1011 690 1093 904 1011 815 b 1250 465 1011 558 1133 506 b 1492 240 1413 411 1492 367 b 1263 68 1492 147 1403 68 b 978 215 1157 68 1058 107 l 1018 253 b 1263 118 1083 167 1158 118 b 1440 240 1382 118 1440 169 b 1235 415 1440 339 1363 371 b 961 690 1103 461 961 514 b 1269 954 961 858 1086 954 b 1590 789 1397 954 1497 910 m 1489 694 b 1263 818 1424 778 1357 818 b 1110 704 1151 818 1110 769 b 1306 544 1110 613 1192 585 b 1589 257 1442 496 1589 446 b 1256 -18 1589 82 1443 -18 b 910 153 1118 -18 1011 29 l 946 186 b 1256 32 1043 63 1149 32 b 1538 257 1399 32 1538 101 b 1288 496 1538 399 1421 449 b 1058 704 1140 549 1058 585 b 1263 868 1058 796 1122 868 b 1525 728 1363 868 1446 835 "},"ť":{"ha":875,"x_min":0,"x_max":0,"o":"m 367 0 l 367 800 l 42 800 l 42 850 l 418 850 l 418 0 m 457 0 l 457 850 l 833 850 l 833 800 l 508 800 l 508 0 m 833 936 l 833 886 l 42 886 l 42 936 l 393 936 l 288 1057 l 388 1057 l 438 993 l 488 1057 l 588 1057 l 482 936 "},"ţ":{"ha":875,"x_min":0,"x_max":0,"o":"m 367 0 l 367 800 l 42 800 l 42 850 l 418 850 l 418 0 m 457 0 l 457 850 l 833 850 l 833 800 l 508 800 l 508 0 m 42 886 l 42 936 l 833 936 l 833 886 m 307 -121 l 368 -43 l 469 -43 l 410 -121 "},"ŧ":{"ha":875,"x_min":0,"x_max":0,"o":"m 367 0 l 367 424 l 174 424 l 174 485 l 367 485 l 367 800 l 42 800 l 42 850 l 418 850 l 418 0 m 457 0 l 457 850 l 833 850 l 833 800 l 508 800 l 508 485 l 701 485 l 701 424 l 508 424 l 508 0 m 42 886 l 42 936 l 833 936 l 833 886 "},"ù":{"ha":1082,"x_min":0,"x_max":0,"o":"m 885 936 l 936 936 l 936 319 b 540 -18 936 107 775 -18 b 146 319 313 -18 146 108 l 146 936 l 197 936 l 197 319 b 540 32 197 143 343 32 b 885 319 744 32 885 142 m 794 936 l 846 936 l 846 326 b 540 67 846 168 725 67 b 236 328 361 67 236 174 l 236 936 l 288 936 l 288 328 b 539 117 288 204 393 117 b 794 326 689 117 794 200 m 499 936 l 404 1057 l 507 1057 l 599 936 "},"ú":{"ha":1082,"x_min":0,"x_max":0,"o":"m 885 936 l 936 936 l 936 319 b 540 -18 936 107 775 -18 b 146 319 313 -18 146 108 l 146 936 l 197 936 l 197 319 b 540 32 197 143 343 32 b 885 319 744 32 885 142 m 794 936 l 846 936 l 846 326 b 540 67 846 168 725 67 b 236 328 361 67 236 174 l 236 936 l 288 936 l 288 328 b 539 117 288 204 393 117 b 794 326 689 117 794 200 m 486 936 l 578 1057 l 681 1057 l 586 936 "},"û":{"ha":1082,"x_min":0,"x_max":0,"o":"m 885 936 l 936 936 l 936 319 b 540 -18 936 107 775 -18 b 146 319 313 -18 146 108 l 146 936 l 197 936 l 197 319 b 540 32 197 143 343 32 b 885 319 744 32 885 142 m 794 936 l 846 936 l 846 326 b 540 67 846 168 725 67 b 236 328 361 67 236 174 l 236 936 l 288 936 l 288 328 b 539 117 288 204 393 117 b 794 326 689 117 794 200 m 590 936 l 540 1000 l 490 936 l 390 936 l 496 1057 l 585 1057 l 690 936 "},"ũ":{"ha":1082,"x_min":0,"x_max":0,"o":"m 885 936 l 936 936 l 936 319 b 540 -18 936 107 775 -18 b 146 319 313 -18 146 108 l 146 936 l 197 936 l 197 319 b 540 32 197 143 343 32 b 885 319 744 32 885 142 m 794 936 l 846 936 l 846 326 b 540 67 846 168 725 67 b 236 328 361 67 236 174 l 236 936 l 288 936 l 288 328 b 539 117 288 204 393 117 b 794 326 689 117 794 200 m 643 1057 l 718 1057 b 621 931 713 996 693 931 b 540 953 592 931 568 939 l 447 997 l 439 936 l 364 936 b 461 1063 369 997 389 1063 b 542 1040 489 1063 513 1054 l 635 996 "},"ü":{"ha":1082,"x_min":0,"x_max":0,"o":"m 885 936 l 936 936 l 936 319 b 540 -18 936 107 775 -18 b 146 319 313 -18 146 108 l 146 936 l 197 936 l 197 319 b 540 32 197 143 343 32 b 885 319 744 32 885 142 m 794 936 l 846 936 l 846 326 b 540 67 846 168 725 67 b 236 328 361 67 236 174 l 236 936 l 288 936 l 288 328 b 539 117 288 204 393 117 b 794 326 689 117 794 200 m 404 936 l 404 1043 l 504 1043 l 504 936 m 585 936 l 585 1043 l 685 1043 l 685 936 "},"ū":{"ha":1082,"x_min":0,"x_max":0,"o":"m 885 936 l 936 936 l 936 319 b 540 -18 936 107 775 -18 b 146 319 313 -18 146 108 l 146 936 l 197 936 l 197 319 b 540 32 197 143 343 32 b 885 319 744 32 885 142 m 794 936 l 846 936 l 846 326 b 540 67 846 168 725 67 b 236 328 361 67 236 174 l 236 936 l 288 936 l 288 328 b 539 117 288 204 393 117 b 794 326 689 117 794 200 m 372 936 l 372 1013 l 708 1013 l 708 936 "},"ŭ":{"ha":1082,"x_min":0,"x_max":0,"o":"m 885 936 l 936 936 l 936 319 b 540 -18 936 107 775 -18 b 146 319 313 -18 146 108 l 146 936 l 197 936 l 197 319 b 540 32 197 143 343 32 b 885 319 744 32 885 142 m 794 936 l 846 936 l 846 326 b 540 67 846 168 725 67 b 236 328 361 67 236 174 l 236 936 l 288 936 l 288 328 b 539 117 288 204 393 117 b 794 326 689 117 794 200 m 714 1057 b 540 931 710 969 643 931 b 367 1057 438 931 371 969 l 436 1057 b 540 996 440 1014 476 996 b 644 1057 603 996 640 1014 "},"ů":{"ha":1082,"x_min":0,"x_max":0,"o":"m 885 936 l 936 936 l 936 319 b 540 -18 936 107 775 -18 b 146 319 313 -18 146 108 l 146 936 l 197 936 l 197 319 b 540 32 197 143 343 32 b 885 319 744 32 885 142 m 794 936 l 846 936 l 846 326 b 540 67 846 168 725 67 b 236 328 361 67 236 174 l 236 936 l 288 936 l 288 328 b 539 117 288 204 393 117 b 794 326 689 117 794 200 m 590 1025 b 540 1067 590 1049 575 1067 b 492 1025 507 1067 492 1049 b 540 985 492 1003 507 985 b 590 1025 575 985 590 1000 m 654 1025 b 540 932 654 964 611 932 b 426 1025 469 932 426 965 b 540 1118 426 1086 469 1118 b 654 1025 611 1118 654 1085 "},"ű":{"ha":1082,"x_min":0,"x_max":0,"o":"m 885 936 l 936 936 l 936 319 b 540 -18 936 107 775 -18 b 146 319 313 -18 146 108 l 146 936 l 197 936 l 197 319 b 540 32 197 143 343 32 b 885 319 744 32 885 142 m 794 936 l 846 936 l 846 326 b 540 67 846 168 725 67 b 236 328 361 67 236 174 l 236 936 l 288 936 l 288 328 b 539 117 288 204 393 117 b 794 326 689 117 794 200 m 356 936 l 447 1057 l 550 1057 l 456 936 m 532 936 l 624 1057 l 726 1057 l 632 936 "},"ų":{"ha":1082,"x_min":0,"x_max":0,"o":"m 885 936 l 936 936 l 936 319 b 567 -17 936 115 788 -8 l 546 -61 l 614 -67 l 621 -125 b 568 -131 603 -129 589 -131 b 475 -54 506 -131 475 -100 b 485 -15 475 -40 479 -26 b 146 319 286 3 146 125 l 146 936 l 197 936 l 197 319 b 540 32 197 143 343 32 b 885 319 744 32 885 142 m 794 936 l 846 936 l 846 326 b 540 67 846 168 725 67 b 236 328 361 67 236 174 l 236 936 l 288 936 l 288 328 b 539 117 288 204 393 117 b 794 326 689 117 794 200 "},"ẁ":{"ha":1306,"x_min":0,"x_max":0,"o":"m 833 -7 l 651 682 l 468 -7 l 328 -7 l 75 936 l 129 936 l 368 43 l 425 43 l 653 847 l 875 43 l 935 43 l 1174 936 l 1231 936 l 976 -7 m 725 936 l 901 238 l 1076 936 l 1131 936 l 904 85 l 683 886 l 625 886 l 396 85 l 179 936 l 233 936 l 400 236 l 586 936 l 608 936 l 514 1057 l 617 1057 l 708 936 "},"ẃ":{"ha":1306,"x_min":0,"x_max":0,"o":"m 833 -7 l 651 682 l 468 -7 l 328 -7 l 75 936 l 129 936 l 368 43 l 425 43 l 653 847 l 875 43 l 935 43 l 1174 936 l 1231 936 l 976 -7 m 725 936 l 901 238 l 1076 936 l 1131 936 l 904 85 l 683 886 l 625 886 l 396 85 l 179 936 l 233 936 l 400 236 l 586 936 l 597 936 l 689 1057 l 792 1057 l 697 936 "},"ŵ":{"ha":1306,"x_min":0,"x_max":0,"o":"m 833 -7 l 651 682 l 468 -7 l 328 -7 l 75 936 l 129 936 l 368 43 l 425 43 l 653 847 l 875 43 l 935 43 l 1174 936 l 1231 936 l 976 -7 m 725 936 l 901 238 l 1076 936 l 1131 936 l 904 85 l 683 886 l 625 886 l 396 85 l 179 936 l 233 936 l 400 236 l 586 936 l 503 936 l 608 1057 l 697 1057 l 803 936 m 603 936 l 703 936 l 653 1000 "},"ẅ":{"ha":1306,"x_min":0,"x_max":0,"o":"m 833 -7 l 651 682 l 468 -7 l 328 -7 l 75 936 l 129 936 l 368 43 l 425 43 l 653 847 l 875 43 l 935 43 l 1174 936 l 1231 936 l 976 -7 m 725 936 l 901 238 l 1076 936 l 1131 936 l 904 85 l 683 886 l 625 886 l 396 85 l 179 936 l 233 936 l 400 236 l 586 936 l 513 936 l 513 1043 l 613 1043 l 613 936 l 693 936 l 693 1043 l 793 1043 l 793 936 "},"ỳ":{"ha":892,"x_min":0,"x_max":0,"o":"m 374 0 l 374 429 l 36 936 l 100 936 l 425 447 l 425 0 m 464 0 l 464 447 l 792 936 l 856 936 l 515 429 l 515 0 m 150 936 l 213 936 l 447 567 l 682 936 l 744 936 l 446 482 m 443 936 l 349 1057 l 451 1057 l 543 936 "},"ý":{"ha":892,"x_min":0,"x_max":0,"o":"m 346 0 l 346 429 l 8 936 l 72 936 l 397 447 l 397 0 m 436 0 l 436 447 l 764 936 l 828 936 l 488 429 l 488 0 m 122 936 l 185 936 l 419 567 l 654 936 l 717 936 l 418 482 m 376 936 l 282 1057 l 385 1057 l 476 936 "},"ŷ":{"ha":892,"x_min":0,"x_max":0,"o":"m 374 0 l 374 429 l 36 936 l 100 936 l 425 447 l 425 0 m 464 0 l 464 447 l 792 936 l 856 936 l 515 429 l 515 0 m 150 936 l 213 936 l 447 567 l 682 936 l 744 936 l 446 482 m 496 936 l 446 1000 l 396 936 l 296 936 l 401 1057 l 490 1057 l 596 936 "},"ÿ":{"ha":892,"x_min":0,"x_max":0,"o":"m 346 0 l 346 429 l 8 936 l 72 936 l 397 447 l 397 0 m 436 0 l 436 447 l 764 936 l 828 936 l 488 429 l 488 0 m 122 936 l 185 936 l 419 567 l 654 936 l 717 936 l 418 482 m 282 936 l 282 1043 l 382 1043 l 382 936 m 463 936 l 463 1043 l 563 1043 l 563 936 "},"ź":{"ha":861,"x_min":0,"x_max":0,"o":"m 758 936 l 758 831 l 293 136 l 785 136 l 785 86 l 197 86 l 707 844 l 707 885 l 129 885 l 129 936 l 361 936 l 453 1057 l 556 1057 l 461 936 m 104 0 l 104 106 l 568 800 l 129 800 l 129 850 l 665 850 l 156 89 l 156 50 l 785 50 l 785 0 "},"ž":{"ha":861,"x_min":0,"x_max":0,"o":"m 717 936 l 717 831 l 251 136 l 743 136 l 743 86 l 156 86 l 665 844 l 665 885 l 88 885 l 88 936 l 358 936 l 253 1057 l 353 1057 l 403 993 l 453 1057 l 553 1057 l 447 936 m 63 0 l 63 106 l 526 800 l 88 800 l 88 850 l 624 850 l 114 89 l 114 50 l 743 50 l 743 0 "},"ż":{"ha":861,"x_min":0,"x_max":0,"o":"m 758 936 l 758 831 l 293 136 l 785 136 l 785 86 l 197 86 l 707 844 l 707 885 l 129 885 l 129 936 l 396 936 l 396 1043 l 496 1043 l 496 936 m 104 0 l 104 106 l 568 800 l 129 800 l 129 850 l 665 850 l 156 89 l 156 50 l 785 50 l 785 0 "},"ŋ":{"ha":1083,"x_min":0,"x_max":0,"o":"m 938 -26 b 669 -308 938 -179 853 -286 l 657 -260 b 888 -25 825 -235 888 -137 l 888 936 l 938 936 m 232 0 l 232 838 l 846 50 l 847 -26 b 647 -226 847 -108 790 -208 l 633 -172 b 796 3 746 -157 794 -100 l 796 28 l 282 682 l 282 0 m 851 107 l 242 886 l 196 886 l 196 0 l 146 0 l 146 936 l 268 936 l 801 253 l 801 936 l 851 936 "},"ð":{"ha":1031,"x_min":0,"x_max":0,"o":"m 146 0 l 146 454 l 14 454 l 14 515 l 146 515 l 146 936 l 524 936 b 968 469 828 936 968 725 b 524 0 968 213 818 0 m 524 50 b 917 469 783 50 917 242 b 524 886 917 696 792 886 l 197 886 l 197 50 m 236 86 l 236 850 l 517 850 b 874 468 735 850 874 703 b 517 86 874 243 753 86 m 517 136 b 822 468 719 136 822 274 b 517 800 822 671 704 800 l 288 800 l 288 515 l 528 515 l 528 454 l 288 454 l 288 136 "},"þ":{"ha":890,"x_min":0,"x_max":0,"o":"m 236 318 l 236 754 l 500 754 b 724 538 636 754 724 669 b 499 318 724 394 647 318 m 236 0 l 236 283 l 503 283 b 764 540 667 283 764 382 b 504 789 764 692 658 789 l 236 789 l 236 936 l 288 936 l 288 839 l 504 839 b 814 540 689 839 814 724 b 503 233 814 350 700 233 l 288 233 l 288 0 m 499 367 b 672 538 614 367 672 429 b 500 707 672 639 606 707 l 288 707 l 288 367 m 146 0 l 146 936 l 197 936 l 197 0 "},"`":{"ha":694,"x_min":0,"x_max":0,"o":"m 344 936 l 250 1057 l 353 1057 l 444 936 "},"":{"ha":694,"x_min":0,"x_max":0,"o":"m 344 936 l 250 1057 l 353 1057 l 444 936 "},"´":{"ha":694,"x_min":0,"x_max":0,"o":"m 250 936 l 342 1057 l 444 1057 l 350 936 "},"":{"ha":694,"x_min":0,"x_max":0,"o":"m 250 936 l 342 1057 l 444 1057 l 350 936 "},"ˆ":{"ha":694,"x_min":0,"x_max":0,"o":"m 397 936 l 347 1000 l 297 936 l 197 936 l 303 1057 l 392 1057 l 497 936 "},"":{"ha":694,"x_min":0,"x_max":0,"o":"m 397 936 l 347 1000 l 297 936 l 197 936 l 303 1057 l 392 1057 l 497 936 "},"ˇ":{"ha":694,"x_min":0,"x_max":0,"o":"m 303 936 l 197 1057 l 297 1057 l 347 993 l 397 1057 l 497 1057 l 392 936 "},"":{"ha":694,"x_min":0,"x_max":0,"o":"m 303 936 l 197 1057 l 297 1057 l 347 993 l 397 1057 l 497 1057 l 392 936 "},"̕":{"ha":694,"x_min":0,"x_max":0,"o":"m 297 772 l 331 936 l 417 936 l 375 772 "},"˜":{"ha":694,"x_min":0,"x_max":0,"o":"m 449 1057 l 524 1057 b 426 931 518 996 499 931 b 346 953 397 931 374 939 l 253 997 l 244 936 l 169 936 b 267 1063 175 997 194 1063 b 347 1040 294 1063 318 1054 l 440 996 "},"":{"ha":694,"x_min":0,"x_max":0,"o":"m 449 1057 l 524 1057 b 426 931 518 996 499 931 b 346 953 397 931 374 939 l 253 997 l 244 936 l 169 936 b 267 1063 175 997 194 1063 b 347 1040 294 1063 318 1054 l 440 996 "},"¨":{"ha":694,"x_min":0,"x_max":0,"o":"m 207 936 l 207 1043 l 307 1043 l 307 936 m 388 936 l 388 1043 l 488 1043 l 488 936 "},"":{"ha":694,"x_min":0,"x_max":0,"o":"m 207 936 l 207 1043 l 307 1043 l 307 936 m 388 936 l 388 1043 l 488 1043 l 488 936 "},"¯":{"ha":694,"x_min":0,"x_max":0,"o":"m 179 936 l 179 1013 l 515 1013 l 515 936 "},"":{"ha":694,"x_min":0,"x_max":0,"o":"m 179 936 l 179 1013 l 515 1013 l 515 936 "},"˘":{"ha":694,"x_min":0,"x_max":0,"o":"m 521 1057 b 347 931 517 969 450 931 b 174 1057 244 931 178 969 l 243 1057 b 347 996 247 1014 283 996 b 451 1057 410 996 447 1014 "},"":{"ha":694,"x_min":0,"x_max":0,"o":"m 521 1057 b 347 931 517 969 450 931 b 174 1057 244 931 178 969 l 243 1057 b 347 996 247 1014 283 996 b 451 1057 410 996 447 1014 "},"˚":{"ha":694,"x_min":0,"x_max":0,"o":"m 397 1025 b 347 1067 397 1049 382 1067 b 299 1025 314 1067 299 1049 b 347 985 299 1003 314 985 b 397 1025 382 985 397 1000 m 461 1025 b 347 932 461 964 418 932 b 233 1025 276 932 233 965 b 347 1118 233 1086 276 1118 b 461 1025 418 1118 461 1085 "},"":{"ha":694,"x_min":0,"x_max":0,"o":"m 397 1025 b 347 1067 397 1049 382 1067 b 299 1025 314 1067 299 1049 b 347 985 299 1003 314 985 b 397 1025 382 985 397 1000 m 461 1025 b 347 932 461 964 418 932 b 233 1025 276 932 233 965 b 347 1118 233 1086 276 1118 b 461 1025 418 1118 461 1085 "},"˝":{"ha":694,"x_min":0,"x_max":0,"o":"m 161 936 l 253 1057 l 356 1057 l 261 936 m 338 936 l 429 1057 l 532 1057 l 438 936 "},"":{"ha":694,"x_min":0,"x_max":0,"o":"m 161 936 l 253 1057 l 356 1057 l 261 936 m 338 936 l 429 1057 l 532 1057 l 438 936 "},"˙":{"ha":694,"x_min":0,"x_max":0,"o":"m 297 936 l 297 1043 l 397 1043 l 397 936 "},"":{"ha":694,"x_min":0,"x_max":0,"o":"m 297 936 l 297 1043 l 397 1043 l 397 936 "},"¸":{"ha":694,"x_min":0,"x_max":0,"o":"m 250 -121 l 344 0 l 444 0 l 353 -121 "},"˛":{"ha":694,"x_min":0,"x_max":0,"o":"m 363 0 l 332 -61 l 400 -67 l 407 -125 b 354 -131 389 -129 375 -131 b 261 -54 292 -131 261 -100 b 282 0 261 -35 269 -15 "},"̦":{"ha":694,"x_min":0,"x_max":0,"o":"m 250 -121 l 311 -43 l 413 -43 l 353 -121 "},"ʻ":{"ha":694,"x_min":0,"x_max":0,"o":"m 279 742 l 346 954 l 415 954 l 368 742 "},",":{"ha":347,"x_min":0,"x_max":0,"o":"m 93 -212 l 201 142 l 249 142 l 135 -212 m 19 -212 l 117 142 l 164 142 l 61 -212 "},";":{"ha":347,"x_min":0,"x_max":0,"o":"m 93 -212 l 201 142 l 249 142 l 135 -212 m 19 -212 l 117 142 l 164 142 l 61 -212 m 190 482 l 190 624 l 236 624 l 236 482 m 110 482 l 110 624 l 156 624 l 156 482 "},":":{"ha":347,"x_min":0,"x_max":0,"o":"m 190 0 l 190 142 l 236 142 l 236 0 m 110 0 l 110 142 l 156 142 l 156 0 m 190 482 l 190 624 l 236 624 l 236 482 m 110 482 l 110 624 l 156 624 l 156 482 "},".":{"ha":347,"x_min":0,"x_max":0,"o":"m 190 0 l 190 142 l 236 142 l 236 0 m 110 0 l 110 142 l 156 142 l 156 0 "},"…":{"ha":1389,"x_min":0,"x_max":0,"o":"m 254 0 l 254 142 l 300 142 l 300 0 m 174 0 l 174 142 l 219 142 l 219 0 m 1174 0 l 1174 142 l 1219 142 l 1219 0 m 1093 0 l 1093 142 l 1139 142 l 1139 0 m 714 0 l 714 142 l 760 142 l 760 0 m 633 0 l 633 142 l 679 142 l 679 0 "},"-":{"ha":347,"x_min":0,"x_max":0,"o":"m 28 488 l 28 532 l 319 532 l 319 488 m 28 408 l 28 453 l 319 453 l 319 408 "},"!":{"ha":347,"x_min":0,"x_max":0,"o":"m 190 0 l 190 142 l 236 142 l 236 0 m 110 0 l 110 142 l 156 142 l 156 0 m 115 246 l 100 936 l 154 936 l 158 246 m 189 246 l 192 936 l 246 936 l 232 246 "},"¡":{"ha":347,"x_min":0,"x_max":0,"o":"m 110 794 l 110 936 l 156 936 l 156 794 m 190 794 l 190 936 l 236 936 l 236 794 m 192 0 l 188 690 l 231 690 l 246 0 m 100 0 l 114 690 l 157 690 l 154 0 "},"?":{"ha":610,"x_min":0,"x_max":0,"o":"m 296 0 l 296 142 l 342 142 l 342 0 m 215 0 l 215 142 l 261 142 l 261 0 m 221 246 l 215 476 b 417 704 358 567 417 621 b 282 824 417 783 358 824 b 114 736 207 824 163 796 l 83 771 b 282 874 133 836 192 874 b 468 704 389 874 468 807 b 263 451 468 603 393 543 l 264 246 m 294 246 l 296 438 b 504 707 399 507 504 583 b 282 904 504 840 401 904 b 63 794 188 904 121 867 l 31 829 b 283 954 99 911 175 954 b 554 707 433 954 554 868 b 343 411 554 564 447 482 l 338 246 "},"¿":{"ha":610,"x_min":0,"x_max":0,"o":"m 268 794 l 268 936 l 314 936 l 314 794 m 349 794 l 349 936 l 394 936 l 394 794 m 526 165 b 328 63 476 100 418 63 b 142 232 221 63 142 129 b 347 485 142 333 217 393 l 346 690 l 389 690 l 394 460 b 193 232 251 369 193 315 b 328 113 193 153 251 113 b 496 200 403 113 447 140 m 579 107 b 326 -18 511 25 435 -18 b 56 229 176 -18 56 68 b 267 525 56 372 163 454 l 272 690 l 315 690 l 314 499 b 106 229 211 429 106 353 b 328 32 106 96 208 32 b 547 142 422 32 489 69 "},"‘":{"ha":347,"x_min":0,"x_max":0,"o":"m 63 582 l 176 936 l 218 936 l 110 582 m 147 582 l 250 936 l 292 936 l 194 582 "},"’":{"ha":347,"x_min":0,"x_max":0,"o":"m 129 582 l 238 936 l 285 936 l 171 582 m 56 582 l 153 936 l 200 936 l 97 582 "},"“":{"ha":569,"x_min":0,"x_max":0,"o":"m 285 582 l 399 936 l 440 936 l 332 582 m 369 582 l 472 936 l 514 936 l 417 582 m 63 582 l 176 936 l 218 936 l 110 582 m 147 582 l 250 936 l 292 936 l 194 582 "},"”":{"ha":569,"x_min":0,"x_max":0,"o":"m 129 582 l 238 936 l 285 936 l 171 582 m 56 582 l 153 936 l 200 936 l 97 582 m 351 582 l 460 936 l 507 936 l 393 582 m 278 582 l 375 936 l 422 936 l 319 582 "},"‚":{"ha":347,"x_min":0,"x_max":0,"o":"m 129 -212 l 238 142 l 285 142 l 171 -212 m 56 -212 l 153 142 l 200 142 l 97 -212 "},"„":{"ha":569,"x_min":0,"x_max":0,"o":"m 129 -212 l 238 142 l 285 142 l 171 -212 m 56 -212 l 153 142 l 200 142 l 97 -212 m 351 -212 l 460 142 l 507 142 l 393 -212 m 278 -212 l 375 142 l 422 142 l 319 -212 "},"'":{"ha":347,"x_min":0,"x_max":0,"o":"m 111 596 l 108 936 l 156 936 l 153 596 m 185 596 l 193 936 l 240 936 l 226 596 "},"\"":{"ha":569,"x_min":0,"x_max":0,"o":"m 111 596 l 108 936 l 156 936 l 153 596 m 185 596 l 193 936 l 240 936 l 226 596 m 332 596 l 329 936 l 376 936 l 374 596 m 406 596 l 414 936 l 461 936 l 447 596 "},"‹":{"ha":347,"x_min":0,"x_max":0,"o":"m 249 239 l 143 468 l 249 697 l 290 697 l 192 468 l 290 239 m 175 239 l 57 468 l 175 697 l 217 697 l 106 468 l 217 239 "},"›":{"ha":347,"x_min":0,"x_max":0,"o":"m 99 697 l 204 468 l 99 239 l 57 239 l 156 468 l 57 697 m 172 697 l 290 468 l 172 239 l 131 239 l 242 468 l 131 697 "},"«":{"ha":569,"x_min":0,"x_max":0,"o":"m 249 239 l 143 468 l 249 697 l 290 697 l 192 468 l 290 239 m 175 239 l 57 468 l 175 697 l 217 697 l 106 468 l 217 239 m 471 239 l 365 468 l 471 697 l 513 697 l 414 468 l 513 239 m 397 239 l 279 468 l 397 697 l 439 697 l 328 468 l 439 239 "},"»":{"ha":569,"x_min":0,"x_max":0,"o":"m 321 697 l 426 468 l 321 239 l 279 239 l 378 468 l 279 697 m 394 697 l 513 468 l 394 239 l 353 239 l 464 468 l 353 697 m 99 697 l 204 468 l 99 239 l 57 239 l 156 468 l 57 697 m 172 697 l 290 468 l 172 239 l 131 239 l 242 468 l 131 697 "},"/":{"ha":467,"x_min":0,"x_max":0,"o":"m -21 0 l 353 936 l 401 936 l 28 0 m 64 0 l 438 936 l 486 936 l 113 0 "},"\\":{"ha":467,"x_min":0,"x_max":0,"o":"m 438 0 l 64 936 l 113 936 l 486 0 m 353 0 l -21 936 l 28 936 l 401 0 "},"|":{"ha":347,"x_min":0,"x_max":0,"o":"m 111 -289 l 111 1100 l 156 1100 l 156 -289 m 190 -289 l 190 1100 l 235 1100 l 235 -289 "},"¦":{"ha":347,"x_min":0,"x_max":0,"o":"m 156 261 l 156 -289 l 111 -289 l 111 261 m 235 261 l 235 -289 l 190 -289 l 190 261 m 190 550 l 190 1100 l 235 1100 l 235 550 m 111 550 l 111 1100 l 156 1100 l 156 550 "},"–":{"ha":694,"x_min":0,"x_max":0,"o":"m 28 488 l 28 532 l 667 532 l 667 488 m 28 408 l 28 453 l 667 453 l 667 408 "},"_":{"ha":694,"x_min":0,"x_max":0,"o":"m 0 -210 l 0 -165 l 694 -165 l 694 -210 m 0 -289 l 0 -244 l 694 -244 l 694 -289 "},"—":{"ha":1389,"x_min":0,"x_max":0,"o":"m 28 488 l 28 532 l 1361 532 l 1361 488 m 28 408 l 28 453 l 1361 453 l 1361 408 "},"•":{"ha":475,"x_min":0,"x_max":0,"o":"m 214 342 l 214 597 l 260 597 l 260 342 m 133 342 l 133 597 l 179 597 l 179 342 m 294 342 l 294 597 l 340 597 l 340 342 "},"·":{"ha":347,"x_min":0,"x_max":0,"o":"m 190 400 l 190 542 l 236 542 l 236 400 m 110 400 l 110 542 l 156 542 l 156 400 "},"(":{"ha":426,"x_min":0,"x_max":0,"o":"m 381 -144 b 168 468 251 44 168 226 b 381 1081 168 710 251 892 l 433 1081 b 214 468 311 908 214 711 b 433 -144 214 225 311 28 m 292 -144 b 88 468 193 -7 88 182 b 292 1081 88 754 193 943 l 344 1081 b 133 468 228 906 133 718 b 344 -144 133 218 228 31 "},")":{"ha":426,"x_min":0,"x_max":0,"o":"m -7 -144 b 213 468 115 28 213 225 b -7 1081 213 711 115 908 l 46 1081 b 258 468 175 892 258 710 b 46 -144 258 226 175 44 m 82 -144 b 293 468 199 31 293 218 b 82 1081 293 718 199 906 l 135 1081 b 339 468 233 943 339 754 b 135 -144 339 182 233 -7 "},"[":{"ha":426,"x_min":0,"x_max":0,"o":"m 121 -144 l 121 1081 l 399 1081 l 399 1038 l 165 1038 l 165 -101 l 399 -101 l 399 -144 m 200 -69 l 200 1006 l 399 1006 l 399 963 l 244 963 l 244 -26 l 399 -26 l 399 -69 "},"]":{"ha":426,"x_min":0,"x_max":0,"o":"m 28 -144 l 28 -101 l 261 -101 l 261 1038 l 28 1038 l 28 1081 l 306 1081 l 306 -144 m 28 -69 l 28 -26 l 182 -26 l 182 963 l 28 963 l 28 1006 l 226 1006 l 226 -69 "},"{":{"ha":426,"x_min":0,"x_max":0,"o":"m 311 -144 b 125 56 176 -144 125 -51 b 151 238 125 126 139 188 b 165 342 160 272 165 308 b 67 408 165 388 132 408 l 67 451 l 81 451 b 208 338 178 451 208 397 b 193 226 208 303 201 265 b 169 56 182 176 169 124 b 321 -101 169 -35 208 -101 l 399 -101 l 399 -144 m 322 -69 b 203 57 250 -69 203 -32 b 225 208 203 115 215 163 b 243 335 235 253 243 296 b 151 468 243 390 226 440 b 243 601 226 494 243 546 b 225 728 243 640 235 683 b 203 879 214 774 203 821 b 322 1006 203 968 250 1006 l 399 1006 l 399 963 l 322 963 b 247 879 278 963 247 932 b 265 740 247 824 256 782 b 285 592 276 694 285 647 b 229 468 285 542 264 497 b 285 344 264 438 285 394 b 265 196 285 289 276 242 b 247 57 256 154 247 113 b 324 -26 247 4 279 -26 l 399 -26 l 399 -69 m 67 528 b 165 594 132 528 165 549 b 151 699 165 628 160 664 b 125 881 139 749 125 810 b 311 1081 125 988 176 1081 l 399 1081 l 399 1038 l 321 1038 b 169 881 208 1038 169 971 b 193 710 169 813 182 760 b 208 599 201 671 208 633 b 81 485 208 539 178 485 l 67 485 "},"}":{"ha":426,"x_min":0,"x_max":0,"o":"m 28 -144 l 28 -101 l 106 -101 b 257 56 218 -101 257 -35 b 233 226 257 124 244 176 b 218 338 225 265 218 303 b 346 451 218 397 249 451 l 360 451 l 360 408 b 261 342 294 408 261 388 b 275 238 261 308 267 272 b 301 56 288 188 301 126 b 115 -144 301 -51 250 -144 m 28 -69 l 28 -26 l 103 -26 b 179 57 147 -26 179 4 b 161 196 179 113 171 154 b 142 344 150 242 142 289 b 197 468 142 394 163 438 b 142 592 163 497 142 542 b 161 740 142 647 150 694 b 179 879 171 782 179 824 b 104 963 179 932 149 963 l 28 963 l 28 1006 l 104 1006 b 224 879 176 1006 224 968 b 201 728 224 821 213 774 b 183 601 192 683 183 640 b 275 468 183 546 200 494 b 183 335 200 440 183 390 b 201 208 183 296 192 253 b 224 57 211 163 224 115 b 104 -69 224 -32 176 -69 m 360 485 l 346 485 b 218 599 249 485 218 539 b 233 710 218 633 225 671 b 257 881 244 760 257 813 b 106 1038 257 971 218 1038 l 28 1038 l 28 1081 l 115 1081 b 301 881 250 1081 301 988 b 275 699 301 810 288 749 b 261 594 267 664 261 628 b 360 528 261 549 294 528 "},"*":{"ha":596,"x_min":0,"x_max":0,"o":"m 69 788 l 85 828 l 242 767 l 240 936 l 283 936 l 283 707 m 122 510 l 89 538 l 203 663 l 44 722 l 60 763 l 274 681 m 174 461 l 142 490 l 297 663 l 453 490 l 421 461 l 297 601 m 321 681 l 535 763 l 550 722 l 392 663 l 506 538 l 472 510 m 311 707 l 311 936 l 354 936 l 353 767 l 510 828 l 525 788 "},"†":{"ha":669,"x_min":0,"x_max":0,"o":"m 275 0 l 278 594 l 61 593 l 61 639 l 318 638 l 321 0 m 350 0 l 350 638 l 608 639 l 608 593 l 393 594 l 396 0 m 350 669 l 350 936 l 396 936 l 393 711 l 608 714 l 608 668 m 61 668 l 61 714 l 276 711 b 275 936 276 783 275 864 l 321 936 l 318 669 "},"‡":{"ha":669,"x_min":0,"x_max":0,"o":"m 275 0 b 276 225 275 72 276 153 l 61 222 l 61 268 l 318 267 l 321 0 m 350 0 l 350 267 l 608 268 l 608 222 l 393 225 l 396 0 m 350 299 l 350 638 l 608 639 l 608 593 l 393 594 l 396 467 l 393 342 l 608 343 l 608 297 m 350 669 l 350 936 l 396 936 l 393 711 l 608 714 l 608 668 m 61 668 l 61 714 l 276 711 b 275 936 276 783 275 864 l 321 936 l 318 669 m 61 297 l 61 343 l 278 342 l 275 467 l 278 594 l 61 593 l 61 639 l 318 638 l 318 299 "},"§":{"ha":801,"x_min":0,"x_max":0,"o":"m 372 172 b 219 339 263 215 219 268 b 406 528 219 415 283 490 b 558 361 507 490 558 436 b 372 172 558 288 508 210 m 425 153 b 604 372 550 193 604 286 b 410 571 604 472 519 532 b 221 738 289 614 221 649 b 389 869 221 817 288 869 b 606 760 463 869 540 847 l 569 726 b 389 824 513 794 464 824 b 272 743 313 824 272 793 b 428 619 272 674 333 654 b 656 381 539 579 656 513 b 532 161 656 279 603 206 b 651 -33 600 121 650 67 b 383 -254 653 -164 544 -254 b 86 -121 271 -254 163 -221 l 122 -87 b 388 -207 204 -186 297 -207 b 600 -32 543 -207 600 -122 b 425 153 600 71 511 121 m 356 546 b 174 328 207 496 174 392 b 368 129 174 228 258 168 b 557 -37 489 86 557 51 b 389 -169 557 -117 490 -169 b 151 -60 314 -169 219 -146 l 188 -26 b 389 -124 244 -94 317 -124 b 506 -43 465 -124 506 -93 b 350 81 506 26 444 46 b 122 319 239 121 122 188 b 246 539 122 421 175 494 b 126 733 182 576 126 633 b 394 954 126 863 233 954 b 671 821 500 954 594 921 l 635 788 b 390 907 553 886 474 907 b 178 732 235 907 178 822 b 356 546 178 624 267 582 m 507 360 b 396 475 507 404 471 444 b 271 340 329 454 271 404 b 382 225 271 299 304 258 b 507 360 463 253 507 299 "},"¶":{"ha":818,"x_min":0,"x_max":0,"o":"m 378 443 b 153 649 229 443 153 514 b 376 853 153 774 240 853 l 561 853 l 561 443 m 240 72 b 390 32 290 44 328 32 b 600 285 532 32 600 125 l 600 888 l 372 888 b 113 651 218 888 113 793 b 374 408 113 501 210 408 l 561 408 l 561 285 b 392 67 561 163 513 67 b 258 104 339 67 300 81 l 282 149 b 383 117 311 131 344 117 b 510 285 469 117 510 174 l 510 358 l 374 358 b 63 651 176 358 63 471 b 372 936 63 825 188 936 l 651 936 l 651 285 b 385 -18 651 85 558 -18 b 215 28 310 -18 263 0 "},"@":{"ha":1089,"x_min":0,"x_max":0,"o":"m 692 250 l 556 607 l 465 374 l 596 374 l 596 326 l 393 326 l 557 731 l 731 297 b 974 507 863 297 974 321 b 543 946 974 772 807 946 b 114 476 253 946 114 724 b 547 4 114 200 271 4 b 890 135 697 4 797 51 l 918 101 b 547 -40 818 4 692 -40 b 67 476 238 -40 67 175 b 543 990 67 744 231 990 b 1021 507 826 990 1021 801 b 757 250 1021 326 919 250 m 586 761 l 529 761 l 343 297 l 596 297 l 596 250 l 274 250 l 501 811 l 615 811 l 790 374 b 883 503 847 379 883 417 b 542 864 883 738 746 864 b 204 475 314 864 204 689 b 553 86 204 246 315 86 b 840 194 667 86 760 114 l 871 158 b 553 42 775 69 676 42 b 157 475 286 42 157 218 b 543 908 157 718 281 908 b 931 503 779 908 931 772 b 760 328 931 404 900 329 "},"©":{"ha":1088,"x_min":0,"x_max":0,"o":"m 1015 468 b 544 -4 1015 194 810 -4 b 72 468 279 -4 72 196 b 544 939 72 742 279 939 b 1015 468 810 939 1015 740 m 954 468 b 544 885 954 700 779 885 b 133 468 310 885 133 700 b 544 50 133 236 310 50 b 954 468 779 50 954 236 m 750 281 b 550 192 703 226 639 192 b 303 472 382 192 303 328 b 550 756 303 619 382 756 b 749 667 639 756 701 721 l 700 622 b 553 697 660 675 611 697 b 371 474 428 697 371 586 b 553 250 371 361 428 250 b 701 325 611 250 660 272 l 750 281 "},"®":{"ha":1088,"x_min":0,"x_max":0,"o":"m 1015 468 b 544 -4 1015 194 810 -4 b 72 468 279 -4 72 196 b 544 939 72 742 279 939 b 1015 468 810 939 1015 740 m 954 468 b 544 885 954 700 779 885 b 133 468 310 885 133 700 b 544 50 133 236 310 50 b 954 468 779 50 954 236 m 694 204 l 543 426 l 433 426 l 433 204 l 367 204 l 367 747 l 569 747 b 740 592 665 747 740 690 b 615 438 740 501 683 450 l 778 204 m 674 589 b 564 690 674 653 625 690 l 433 690 l 433 485 l 558 485 b 674 589 624 485 674 518 "},"℗":{"ha":1088,"x_min":0,"x_max":0,"o":"m 771 575 b 586 401 771 467 703 401 l 456 401 l 456 203 l 389 203 l 389 746 l 589 746 b 771 575 697 746 771 681 m 703 574 b 583 689 703 643 656 689 l 456 689 l 456 458 l 582 458 b 703 574 661 458 703 501 m 1015 468 b 544 -4 1015 194 810 -4 b 72 468 279 -4 72 196 b 544 939 72 742 279 939 b 1015 468 810 939 1015 740 m 954 468 b 544 885 954 700 779 885 b 133 468 310 885 133 700 b 544 50 133 236 310 50 b 954 468 779 50 954 236 "},"™":{"ha":1272,"x_min":0,"x_max":0,"o":"m 1065 394 l 1065 813 l 906 551 l 856 551 l 697 806 l 697 394 l 632 394 l 632 943 l 688 943 l 882 629 l 1078 943 l 1133 943 l 1133 394 m 256 393 l 256 876 l 58 876 l 58 936 l 521 936 l 521 876 l 325 876 l 325 393 "},"ª":{"ha":465,"x_min":0,"x_max":0,"o":"m 43 332 l 43 394 l 393 394 l 393 332 m 43 579 b 204 707 43 671 117 707 b 321 686 247 707 286 699 l 321 736 b 214 826 321 793 282 826 b 106 776 171 826 133 811 l 61 818 b 219 886 97 860 150 886 b 393 740 324 886 393 836 l 393 467 l 325 467 l 325 518 b 186 456 292 478 244 456 b 43 579 103 456 43 503 m 321 636 b 217 657 290 650 254 657 b 113 582 165 657 113 640 b 206 513 113 540 147 513 b 321 574 251 513 294 533 "},"º":{"ha":479,"x_min":0,"x_max":0,"o":"m 38 332 l 38 394 l 442 394 l 442 332 m 367 671 b 240 829 367 761 331 829 b 113 671 150 829 113 763 b 240 513 113 582 150 513 b 367 671 331 513 367 579 m 442 669 b 240 456 442 549 374 456 b 38 672 106 456 38 551 b 240 886 38 793 106 886 b 442 669 374 886 442 790 "},"№":{"ha":1583,"x_min":0,"x_max":0,"o":"m 1142 332 l 1142 394 l 1546 394 l 1546 332 m 1546 669 b 1344 456 1546 549 1478 456 b 1142 672 1210 456 1142 551 b 1344 886 1142 793 1210 886 b 1546 669 1478 886 1546 790 m 1471 671 b 1344 829 1471 761 1435 829 b 1217 671 1254 829 1217 763 b 1344 513 1217 582 1254 513 b 1471 671 1435 513 1471 579 m 242 886 l 196 886 l 196 0 l 146 0 l 146 936 l 268 936 l 801 253 l 801 936 l 851 936 l 851 107 m 818 0 l 282 682 l 282 0 l 232 0 l 232 838 l 846 50 l 888 50 l 888 936 l 938 936 l 938 0 "},"#":{"ha":750,"x_min":0,"x_max":0,"o":"m 240 331 l 282 606 l 510 606 l 468 331 m 286 635 l 332 936 l 372 936 l 332 678 l 481 678 l 521 936 l 561 936 l 515 635 m 378 0 l 417 258 l 268 258 l 229 0 l 189 0 l 235 301 l 464 301 l 418 0 m 463 563 l 315 563 l 286 374 l 433 374 m 501 331 l 543 606 l 676 606 l 676 563 l 576 563 l 547 374 l 676 374 l 676 331 m 74 331 l 74 374 l 172 374 l 201 563 l 74 563 l 74 606 l 249 606 l 207 331 m 451 0 l 497 301 l 676 301 l 676 258 l 531 258 l 492 0 m 74 635 l 74 678 l 218 678 l 258 936 l 299 936 l 253 635 m 115 0 l 154 258 l 74 258 l 74 301 l 201 301 l 156 0 m 549 635 l 594 936 l 635 936 l 594 678 l 676 678 l 676 635 "},"€":{"ha":849,"x_min":0,"x_max":0,"o":"m 92 444 l 193 444 b 193 497 192 460 192 479 l 92 497 l 92 543 l 247 543 b 246 399 242 496 242 449 l 92 399 m 522 113 b 696 200 601 113 643 139 l 731 164 b 519 63 676 100 617 63 b 285 369 399 63 314 147 l 617 369 l 617 324 l 343 324 b 522 113 367 172 433 113 m 517 32 b 753 142 621 32 688 69 l 788 107 b 517 -18 710 25 636 -18 b 199 324 350 -18 232 92 l 92 324 l 92 369 l 249 369 b 517 32 275 138 367 32 m 282 399 b 282 543 276 444 276 493 l 617 543 l 617 497 l 336 497 b 336 444 335 481 335 463 l 617 444 l 617 399 m 517 824 b 340 618 415 824 361 749 l 617 618 l 617 572 l 285 572 b 517 874 307 765 372 874 b 731 772 617 874 676 836 l 696 736 b 517 824 643 797 596 824 m 517 904 b 249 572 353 904 272 771 l 92 572 l 92 618 l 199 618 b 517 954 226 821 332 954 b 788 829 636 954 710 911 l 753 794 b 517 904 688 867 621 904 "},"$":{"ha":706,"x_min":0,"x_max":0,"o":"m 154 213 b 340 113 200 147 261 113 b 506 240 447 113 506 169 b 322 418 506 336 443 374 b 78 690 197 464 78 518 b 300 950 78 832 171 928 l 300 1093 l 344 1093 l 344 904 b 128 690 201 900 128 811 b 338 468 128 558 226 508 b 557 240 492 414 557 371 b 340 63 557 147 465 63 b 115 181 240 63 163 111 m 593 794 b 379 904 533 861 471 899 l 379 1093 l 424 1093 l 424 949 b 628 829 508 935 568 893 m 300 -157 l 300 -15 b 53 129 199 -3 114 51 l 92 160 b 344 32 149 82 240 32 l 344 -157 m 379 -157 l 379 33 b 596 257 490 46 596 115 b 375 493 596 399 501 446 b 168 704 235 546 168 582 b 357 874 168 796 238 874 b 571 772 457 874 517 836 l 536 736 b 357 824 483 797 436 824 b 219 704 265 824 219 769 b 393 542 219 615 285 582 b 647 257 522 493 647 443 b 424 -8 647 114 558 25 l 424 -157 "},"¢":{"ha":711,"x_min":0,"x_max":0,"o":"m 328 -157 l 328 -14 b 61 476 157 14 61 171 b 328 950 61 733 140 918 l 328 1093 l 372 1093 l 372 904 b 113 476 188 896 113 704 b 372 32 113 186 208 40 l 372 -157 m 407 -157 l 407 32 b 622 142 500 36 561 75 l 657 107 b 451 -12 594 42 535 0 l 451 -157 m 600 164 b 389 63 546 100 486 63 b 147 476 246 63 147 194 b 386 874 147 693 211 874 b 600 772 486 874 546 836 l 565 736 b 386 824 513 797 465 824 b 201 476 254 824 201 697 b 392 113 201 218 275 113 b 565 200 471 113 513 139 l 600 164 m 622 794 b 407 904 561 861 499 899 l 407 1093 l 451 1093 l 451 950 b 657 829 535 936 593 896 l 622 794 "},"£":{"ha":721,"x_min":0,"x_max":0,"o":"m 154 50 l 656 50 l 656 0 l 104 0 l 104 107 b 269 310 217 186 269 244 b 239 410 269 339 257 371 l 88 410 l 88 456 l 272 456 b 318 308 301 397 318 351 b 154 85 318 225 265 172 m 656 133 l 656 83 l 204 83 b 350 307 307 172 350 225 b 307 456 350 354 329 406 l 578 456 l 578 410 l 381 410 b 400 307 392 375 400 343 b 326 133 400 229 364 178 m 401 824 b 268 701 315 824 268 771 b 326 531 268 646 297 588 l 578 531 l 578 485 l 289 485 b 218 701 243 579 218 631 b 401 874 218 807 288 874 b 615 772 501 874 561 836 l 581 736 b 401 824 528 797 481 824 m 401 904 b 183 701 249 904 183 797 b 256 485 183 632 217 564 l 88 485 l 88 531 l 176 531 b 133 701 151 585 133 636 b 401 954 133 821 214 954 b 672 829 521 954 594 911 l 638 794 b 401 904 572 867 506 904 "},"ƒ":{"ha":754,"x_min":0,"x_max":0,"o":"m 193 0 l 193 410 l 69 410 l 69 456 l 244 456 l 244 0 m 279 0 l 279 456 l 560 456 l 560 410 l 331 410 l 331 0 m 279 485 l 279 685 b 457 874 279 792 325 874 b 671 772 557 874 617 836 l 636 736 b 457 824 583 797 536 824 b 331 685 364 824 331 767 l 331 531 l 560 531 l 560 485 m 69 485 l 69 531 l 193 531 l 193 685 b 457 954 193 851 292 954 b 728 829 569 954 653 925 l 693 794 b 457 904 628 867 561 904 b 244 685 313 904 244 832 l 244 485 "},"¥":{"ha":763,"x_min":0,"x_max":0,"o":"m 633 410 l 449 410 l 449 357 l 633 357 l 633 311 l 397 311 l 397 456 l 633 456 m 633 236 l 449 236 l 449 0 l 397 0 l 397 282 l 633 282 m 126 357 l 313 357 l 313 410 l 126 410 l 126 456 l 364 456 l 364 311 l 126 311 m 364 282 l 364 0 l 313 0 l 313 236 l 126 236 l 126 282 m 711 936 l 499 531 l 633 531 l 633 485 l 417 485 l 651 936 m 383 486 l 153 936 l 210 936 l 383 588 l 556 936 l 613 936 m 111 936 b 343 485 181 799 274 619 l 126 485 l 126 531 l 261 531 l 53 936 "},"⁰":{"ha":524,"x_min":0,"x_max":0,"o":"m 410 771 b 261 517 410 613 358 517 b 114 771 161 517 114 613 b 261 1026 114 935 163 1026 b 410 771 364 1026 410 935 m 442 772 b 261 1054 442 932 383 1054 b 82 772 139 1054 82 932 b 261 489 82 613 139 489 b 442 772 383 489 442 613 m 481 772 b 261 456 481 582 404 456 b 43 772 118 456 43 582 b 261 1088 43 963 118 1088 b 481 772 404 1088 481 963 m 368 771 b 261 993 368 901 338 993 b 154 771 185 993 154 901 b 261 550 154 642 185 550 b 368 771 338 550 368 642 "},"¹":{"ha":326,"x_min":0,"x_max":0,"o":"m 197 467 l 197 1033 l 36 978 l 25 1015 l 236 1086 l 236 467 m 133 467 l 133 947 l 54 922 l 43 954 l 172 997 l 172 467 "},"²":{"ha":506,"x_min":0,"x_max":0,"o":"m 53 467 l 53 546 b 308 906 272 756 308 822 b 233 993 308 960 285 993 b 121 917 189 993 154 972 l 93 936 b 233 1028 122 985 165 1028 b 349 907 299 1028 347 993 b 92 535 347 806 311 743 l 92 506 l 461 506 l 461 467 m 125 532 b 381 903 300 701 381 775 b 233 1056 381 1007 313 1056 b 71 950 154 1056 111 1013 l 43 971 b 233 1089 92 1050 150 1089 b 418 903 333 1089 418 1029 b 210 571 418 758 314 675 l 461 571 l 461 532 "},"³":{"ha":504,"x_min":0,"x_max":0,"o":"m 136 801 l 136 839 l 203 839 b 314 925 276 839 314 865 b 229 993 314 964 278 993 b 113 944 181 993 146 983 l 90 967 b 226 1028 128 1008 172 1028 b 353 921 304 1028 353 988 b 203 801 353 849 303 801 m 65 568 b 232 489 106 524 164 489 b 411 639 328 489 411 538 b 283 790 411 726 356 778 b 385 924 349 807 385 860 b 229 1056 385 1015 308 1056 b 72 985 164 1056 113 1029 l 50 1007 b 229 1089 100 1061 151 1089 b 424 924 339 1089 424 1029 b 357 794 424 868 397 822 b 449 646 407 769 449 718 b 232 456 449 517 351 456 b 40 544 150 456 96 486 m 107 611 b 232 551 143 567 182 551 b 339 639 308 551 339 572 b 201 738 339 706 299 738 l 136 738 l 136 775 l 201 775 b 379 639 321 775 379 719 b 235 517 379 551 314 517 b 85 589 175 517 124 542 "},"⁴":{"ha":524,"x_min":0,"x_max":0,"o":"m 100 682 l 356 1038 l 356 682 m 317 467 l 317 618 l 35 618 l 35 694 l 319 1086 l 419 1086 l 419 719 l 500 719 l 500 682 l 381 682 l 381 1056 l 339 1056 l 68 685 l 68 656 l 356 656 l 356 467 m 381 467 l 381 656 l 500 656 l 500 618 l 419 618 l 419 467 m 317 921 l 174 719 l 317 719 "},"":{"ha":524,"x_min":0,"x_max":0,"o":"m 410 632 b 261 378 410 474 358 378 b 114 632 161 378 114 474 b 261 888 114 796 163 888 b 410 632 364 888 410 796 m 442 633 b 261 915 442 793 383 915 b 82 633 139 915 82 793 b 261 350 82 474 139 350 b 442 633 383 350 442 474 m 481 633 b 261 317 481 443 404 317 b 43 633 118 317 43 443 b 261 949 43 824 118 949 b 481 633 404 949 481 824 m 368 632 b 261 854 368 763 338 854 b 154 632 185 854 154 763 b 261 411 154 503 185 411 b 368 632 338 411 368 503 "},"":{"ha":326,"x_min":0,"x_max":0,"o":"m 197 328 l 197 894 l 36 839 l 25 876 l 236 947 l 236 328 m 133 328 l 133 808 l 54 783 l 43 815 l 172 858 l 172 328 "},"":{"ha":506,"x_min":0,"x_max":0,"o":"m 53 328 l 53 407 b 308 767 272 617 308 683 b 233 854 308 821 285 854 b 121 778 189 854 154 833 l 93 797 b 233 889 122 846 165 889 b 349 768 299 889 347 854 b 92 396 347 667 311 604 l 92 367 l 461 367 l 461 328 m 125 393 b 381 764 300 563 381 636 b 233 917 381 868 313 917 b 71 811 154 917 111 874 l 43 832 b 233 950 92 911 150 950 b 418 764 333 950 418 890 b 210 432 418 619 314 536 l 461 432 l 461 393 "},"":{"ha":504,"x_min":0,"x_max":0,"o":"m 136 663 l 136 700 l 203 700 b 314 786 276 700 314 726 b 229 854 314 825 278 854 b 113 806 181 854 146 844 l 90 828 b 226 889 128 869 172 889 b 353 782 304 889 353 849 b 203 663 353 710 303 663 m 65 429 b 232 350 106 385 164 350 b 411 500 328 350 411 399 b 283 651 411 588 356 639 b 385 785 349 668 385 721 b 229 917 385 876 308 917 b 72 846 164 917 113 890 l 50 868 b 229 950 100 922 151 950 b 424 785 339 950 424 890 b 357 656 424 729 397 683 b 449 507 407 631 449 579 b 232 317 449 378 351 317 b 40 406 150 317 96 347 m 107 472 b 232 413 143 428 182 413 b 339 500 308 413 339 433 b 201 599 339 567 299 599 l 136 599 l 136 636 l 201 636 b 379 500 321 636 379 581 b 235 378 379 413 314 378 b 85 450 175 378 124 403 "},"":{"ha":524,"x_min":0,"x_max":0,"o":"m 100 543 l 356 899 l 356 543 m 317 328 l 317 479 l 35 479 l 35 556 l 319 947 l 419 947 l 419 581 l 500 581 l 500 543 l 381 543 l 381 917 l 339 917 l 68 546 l 68 517 l 356 517 l 356 328 m 381 328 l 381 517 l 500 517 l 500 479 l 419 479 l 419 328 m 317 782 l 174 581 l 317 581 "},"":{"ha":524,"x_min":0,"x_max":0,"o":"m 410 304 b 261 50 410 146 358 50 b 114 304 161 50 114 146 b 261 560 114 468 163 560 b 410 304 364 560 410 468 m 442 306 b 261 588 442 465 383 588 b 82 306 139 588 82 465 b 261 22 82 146 139 22 b 442 306 383 22 442 146 m 481 306 b 261 -11 481 115 404 -11 b 43 306 118 -11 43 115 b 261 621 43 496 118 621 b 481 306 404 621 481 496 m 368 304 b 261 526 368 435 338 526 b 154 304 185 526 154 435 b 261 83 154 175 185 83 b 368 304 338 83 368 175 "},"":{"ha":326,"x_min":0,"x_max":0,"o":"m 197 0 l 197 567 l 36 511 l 25 549 l 236 619 l 236 0 m 133 0 l 133 481 l 54 456 l 43 488 l 172 531 l 172 0 "},"":{"ha":506,"x_min":0,"x_max":0,"o":"m 53 0 l 53 79 b 308 439 272 289 308 356 b 233 526 308 493 285 526 b 121 450 189 526 154 506 l 93 469 b 233 561 122 518 165 561 b 349 440 299 561 347 526 b 92 68 347 339 311 276 l 92 39 l 461 39 l 461 0 m 125 65 b 381 436 300 235 381 308 b 233 589 381 540 313 589 b 71 483 154 589 111 546 l 43 504 b 233 622 92 583 150 622 b 418 436 333 622 418 563 b 210 104 418 292 314 208 l 461 104 l 461 65 "},"":{"ha":504,"x_min":0,"x_max":0,"o":"m 136 335 l 136 372 l 203 372 b 314 458 276 372 314 399 b 229 526 314 497 278 526 b 113 478 181 526 146 517 l 90 500 b 226 561 128 542 172 561 b 353 454 304 561 353 521 b 203 335 353 382 303 335 m 65 101 b 232 22 106 57 164 22 b 411 172 328 22 411 71 b 283 324 411 260 356 311 b 385 457 349 340 385 393 b 229 589 385 549 308 589 b 72 518 164 589 113 563 l 50 540 b 229 622 100 594 151 622 b 424 457 339 622 424 563 b 357 328 424 401 397 356 b 449 179 407 303 449 251 b 232 -11 449 50 351 -11 b 40 78 150 -11 96 19 m 107 144 b 232 85 143 100 182 85 b 339 172 308 85 339 106 b 201 271 339 239 299 271 l 136 271 l 136 308 l 201 308 b 379 172 321 308 379 253 b 235 50 379 85 314 50 b 85 122 175 50 124 75 "},"":{"ha":524,"x_min":0,"x_max":0,"o":"m 100 215 l 356 571 l 356 215 m 317 0 l 317 151 l 35 151 l 35 228 l 319 619 l 419 619 l 419 253 l 500 253 l 500 215 l 381 215 l 381 589 l 339 589 l 68 218 l 68 189 l 356 189 l 356 0 m 381 0 l 381 189 l 500 189 l 500 151 l 419 151 l 419 0 m 317 454 l 174 253 l 317 253 "},"⁄":{"ha":178,"x_min":0,"x_max":0,"o":"m -193 0 l 324 936 l 371 936 l -146 0 "},"½":{"ha":1010,"x_min":0,"x_max":0,"o":"m 197 328 l 197 894 l 36 839 l 25 876 l 236 947 l 236 328 m 133 328 l 133 808 l 54 783 l 43 815 l 172 858 l 172 328 m 133 0 l 650 936 l 697 936 l 181 0 m 557 0 l 557 79 b 813 439 776 289 813 356 b 738 526 813 493 789 526 b 625 450 693 526 658 506 l 597 469 b 738 561 626 518 669 561 b 853 440 803 561 851 526 b 596 68 851 339 815 276 l 596 39 l 965 39 l 965 0 m 629 65 b 885 436 804 235 885 308 b 738 589 885 540 817 589 b 575 483 658 589 615 546 l 547 504 b 738 622 596 583 654 622 b 922 436 838 622 922 563 b 714 104 922 292 818 208 l 965 104 l 965 65 "},"¼":{"ha":958,"x_min":0,"x_max":0,"o":"m 197 328 l 197 894 l 36 839 l 25 876 l 236 947 l 236 328 m 133 328 l 133 808 l 54 783 l 43 815 l 172 858 l 172 328 m 133 0 l 650 936 l 697 936 l 181 0 m 535 215 l 790 571 l 790 215 m 751 0 l 751 151 l 469 151 l 469 228 l 754 619 l 854 619 l 854 253 l 935 253 l 935 215 l 815 215 l 815 589 l 774 589 l 503 218 l 503 189 l 790 189 l 790 0 m 815 0 l 815 189 l 935 189 l 935 151 l 854 151 l 854 0 m 751 454 l 608 253 l 751 253 "},"¾":{"ha":1136,"x_min":0,"x_max":0,"o":"m 136 663 l 136 700 l 203 700 b 314 786 276 700 314 726 b 229 854 314 825 278 854 b 113 806 181 854 146 844 l 90 828 b 226 889 128 869 172 889 b 353 782 304 889 353 849 b 203 663 353 710 303 663 m 65 429 b 232 350 106 385 164 350 b 411 500 328 350 411 399 b 283 651 411 588 356 639 b 385 785 349 668 385 721 b 229 917 385 876 308 917 b 72 846 164 917 113 890 l 50 868 b 229 950 100 922 151 950 b 424 785 339 950 424 890 b 357 656 424 729 397 683 b 449 507 407 631 449 579 b 232 317 449 378 351 317 b 40 406 150 317 96 347 m 107 472 b 232 413 143 428 182 413 b 339 500 308 413 339 433 b 201 599 339 567 299 599 l 136 599 l 136 636 l 201 636 b 379 500 321 636 379 581 b 235 378 379 413 314 378 b 85 450 175 378 124 403 m 311 0 l 828 936 l 875 936 l 358 0 m 713 215 l 968 571 l 968 215 m 929 0 l 929 151 l 647 151 l 647 228 l 932 619 l 1032 619 l 1032 253 l 1113 253 l 1113 215 l 993 215 l 993 589 l 951 589 l 681 218 l 681 189 l 968 189 l 968 0 m 993 0 l 993 189 l 1113 189 l 1113 151 l 1032 151 l 1032 0 m 929 454 l 786 253 l 929 253 "},"%":{"ha":1225,"x_min":0,"x_max":0,"o":"m 410 632 b 261 378 410 474 358 378 b 114 632 161 378 114 474 b 261 888 114 796 163 888 b 410 632 364 888 410 796 m 442 633 b 261 915 442 793 383 915 b 82 633 139 915 82 793 b 261 350 82 474 139 350 b 442 633 383 350 442 474 m 481 633 b 261 317 481 443 404 317 b 43 633 118 317 43 443 b 261 949 43 824 118 949 b 481 633 404 949 481 824 m 368 632 b 261 854 368 763 338 854 b 154 632 185 854 154 763 b 261 411 154 503 185 411 b 368 632 338 411 368 503 m 331 0 l 847 936 l 894 936 l 378 0 m 1111 304 b 963 50 1111 146 1060 50 b 815 304 863 50 815 146 b 963 560 815 468 864 560 b 1111 304 1065 560 1111 468 m 1143 306 b 963 588 1143 465 1085 588 b 783 306 840 588 783 465 b 963 22 783 146 840 22 b 1143 306 1085 22 1143 146 m 1182 306 b 963 -11 1182 115 1106 -11 b 744 306 819 -11 744 115 b 963 621 744 496 819 621 b 1182 306 1106 621 1182 496 m 1069 304 b 963 526 1069 435 1039 526 b 856 304 886 526 856 435 b 963 83 856 175 886 83 b 1069 304 1039 83 1069 175 "},"‰":{"ha":1749,"x_min":0,"x_max":0,"o":"m 410 632 b 261 378 410 474 358 378 b 114 632 161 378 114 474 b 261 888 114 796 163 888 b 410 632 364 888 410 796 m 442 633 b 261 915 442 793 383 915 b 82 633 139 915 82 793 b 261 350 82 474 139 350 b 442 633 383 350 442 474 m 481 633 b 261 317 481 443 404 317 b 43 633 118 317 43 443 b 261 949 43 824 118 949 b 481 633 404 949 481 824 m 368 632 b 261 854 368 763 338 854 b 154 632 185 854 154 763 b 261 411 154 503 185 411 b 368 632 338 411 368 503 m 331 0 l 847 936 l 894 936 l 378 0 m 1111 304 b 963 50 1111 146 1060 50 b 815 304 863 50 815 146 b 963 560 815 468 864 560 b 1111 304 1065 560 1111 468 m 1143 306 b 963 588 1143 465 1085 588 b 783 306 840 588 783 465 b 963 22 783 146 840 22 b 1143 306 1085 22 1143 146 m 1182 306 b 963 -11 1182 115 1106 -11 b 744 306 819 -11 744 115 b 963 621 744 496 819 621 b 1182 306 1106 621 1182 496 m 1069 304 b 963 526 1069 435 1039 526 b 856 304 886 526 856 435 b 963 83 856 175 886 83 b 1069 304 1039 83 1069 175 m 1635 304 b 1486 50 1635 146 1583 50 b 1339 304 1386 50 1339 146 b 1486 560 1339 468 1388 560 b 1635 304 1589 560 1635 468 m 1667 306 b 1486 588 1667 465 1608 588 b 1307 306 1364 588 1307 465 b 1486 22 1307 146 1364 22 b 1667 306 1608 22 1667 146 m 1706 306 b 1486 -11 1706 115 1629 -11 b 1268 306 1343 -11 1268 115 b 1486 621 1268 496 1343 621 b 1706 306 1629 621 1706 496 m 1593 304 b 1486 526 1593 435 1563 526 b 1379 304 1410 526 1379 435 b 1486 83 1379 175 1410 83 b 1593 304 1563 83 1593 175 "},"+":{"ha":806,"x_min":0,"x_max":0,"o":"m 374 64 l 374 354 l 101 354 l 101 414 l 372 414 l 372 706 l 432 706 l 432 414 l 706 414 l 706 354 l 433 354 l 433 64 "},"−":{"ha":806,"x_min":0,"x_max":0,"o":"m 100 356 l 100 414 l 706 414 l 706 356 "},"±":{"ha":806,"x_min":0,"x_max":0,"o":"m 372 317 l 372 524 l 100 524 l 100 582 l 372 582 l 372 811 l 431 811 l 431 582 l 706 582 l 706 524 l 432 524 l 432 317 m 100 164 l 100 222 l 706 222 l 706 164 "},"×":{"ha":806,"x_min":0,"x_max":0,"o":"m 401 428 l 611 638 l 654 594 l 444 386 l 653 179 l 610 136 l 401 343 l 193 135 l 151 178 l 358 385 l 151 593 l 194 636 "},"÷":{"ha":806,"x_min":0,"x_max":0,"o":"m 100 356 l 100 414 l 704 414 l 704 356 m 461 114 b 404 58 461 82 435 58 b 349 114 372 58 349 82 b 404 171 349 144 372 171 b 461 114 435 171 461 146 m 461 654 b 404 600 461 624 435 600 b 349 654 372 600 349 624 b 404 711 349 686 372 711 b 461 654 435 711 461 688 "},"=":{"ha":806,"x_min":0,"x_max":0,"o":"m 100 186 l 100 246 l 704 246 l 704 186 m 100 521 l 100 581 l 704 581 l 704 521 "},"≠":{"ha":806,"x_min":0,"x_max":0,"o":"m 274 43 l 333 186 l 100 186 l 100 246 l 358 246 l 474 521 l 100 521 l 100 581 l 499 581 l 560 725 l 615 725 l 554 581 l 704 581 l 704 521 l 529 521 l 414 246 l 704 246 l 704 186 l 389 186 l 329 43 "},"~":{"ha":806,"x_min":0,"x_max":0,"o":"m 700 388 b 546 308 656 339 617 308 b 258 394 446 308 354 394 b 104 313 197 394 144 361 l 104 379 b 258 457 138 418 189 457 b 544 369 358 457 449 369 b 700 454 615 369 657 404 l 700 388 "},"≈":{"ha":806,"x_min":0,"x_max":0,"o":"m 546 454 b 258 542 446 454 354 542 b 104 458 197 542 144 507 l 104 526 b 258 603 138 564 189 603 b 544 517 358 603 449 517 b 700 601 615 517 657 551 l 700 533 b 546 454 656 485 617 454 m 700 246 b 546 167 656 197 617 167 b 258 253 446 167 354 253 b 104 171 197 253 144 219 l 104 238 b 258 314 138 276 189 314 b 544 228 358 314 449 228 b 700 313 615 228 657 263 l 700 246 "},"^":{"ha":806,"x_min":0,"x_max":0,"o":"m 600 263 l 404 771 l 403 771 l 204 263 l 135 263 l 375 851 l 433 851 l 669 263 "},"<":{"ha":806,"x_min":0,"x_max":0,"o":"m 99 354 l 99 411 l 707 649 l 707 579 l 188 385 l 188 382 l 707 183 l 707 114 "},">":{"ha":806,"x_min":0,"x_max":0,"o":"m 99 183 l 617 382 l 617 385 l 99 579 l 99 649 l 707 411 l 707 354 l 99 114 "},"≤":{"ha":806,"x_min":0,"x_max":0,"o":"m 100 474 l 100 535 l 706 728 l 706 667 l 185 506 l 185 503 l 706 342 l 706 281 m 101 115 l 101 174 l 706 174 l 706 115 "},"≥":{"ha":806,"x_min":0,"x_max":0,"o":"m 100 281 l 100 342 l 621 503 l 621 506 l 100 667 l 100 728 l 706 535 l 706 474 m 101 115 l 101 174 l 706 174 l 706 115 "},"¬":{"ha":806,"x_min":0,"x_max":0,"o":"m 644 244 l 644 510 l 100 510 l 100 569 l 704 569 l 704 244 "},"¤":{"ha":806,"x_min":0,"x_max":0,"o":"m 528 215 b 403 175 494 190 451 175 b 276 217 356 175 311 190 l 193 135 l 151 176 l 235 260 b 196 383 210 294 196 336 b 236 507 196 428 210 471 l 151 593 l 194 636 l 279 550 b 403 592 313 575 354 592 b 525 550 449 592 492 575 l 611 636 l 654 594 l 568 508 b 611 383 594 472 611 429 b 571 260 611 339 597 296 l 653 178 l 610 135 m 403 225 b 558 383 494 225 558 303 b 403 542 558 471 488 542 b 247 383 308 542 247 461 b 403 225 247 293 319 225 "},"∞":{"ha":907,"x_min":0,"x_max":0,"o":"m 783 383 b 613 192 783 254 697 192 b 429 340 529 192 468 247 b 246 192 394 253 336 192 b 72 383 147 192 72 261 b 244 565 72 488 142 565 b 426 424 333 565 388 501 b 608 565 467 503 515 565 b 783 383 713 565 783 489 m 603 254 b 724 382 663 254 724 293 b 604 503 724 457 669 503 b 468 381 539 503 496 450 b 603 254 492 307 536 254 m 250 254 b 388 382 321 254 364 307 b 250 504 358 451 315 504 b 131 382 185 504 131 454 b 250 254 131 301 186 254 "},"◊":{"ha":806,"x_min":0,"x_max":0,"o":"m 403 44 l 79 383 l 403 721 l 725 383 m 403 644 l 150 383 l 403 122 l 654 383 "},"∆":{"ha":951,"x_min":0,"x_max":0,"o":"m 35 0 l 413 943 l 540 943 l 917 0 m 504 893 l 450 893 l 113 49 l 839 49 m 168 85 l 476 856 l 779 85 m 475 732 l 243 132 l 704 132 "},"Ω":{"ha":1014,"x_min":0,"x_max":0,"o":"m 568 0 l 568 107 b 821 508 744 286 821 367 b 507 819 821 683 692 819 b 193 508 322 819 193 683 b 446 107 193 367 269 286 l 446 0 l 38 0 l 38 50 l 396 50 l 396 85 b 142 508 221 263 142 351 b 507 869 142 713 292 869 b 872 508 722 869 872 713 b 618 85 872 351 793 263 l 618 50 l 976 50 l 976 0 m 664 83 b 913 503 824 242 913 371 b 507 904 913 731 744 904 b 101 503 269 904 101 731 b 350 83 101 371 190 242 l 38 83 l 38 133 l 229 133 b 49 503 121 258 49 371 b 507 954 49 763 238 954 b 965 503 776 954 965 763 b 785 133 965 371 893 258 l 976 133 l 976 83 "},"∂":{"ha":835,"x_min":0,"x_max":0,"o":"m 635 374 b 403 63 635 210 565 63 b 186 297 276 63 186 156 b 404 526 186 431 254 526 b 635 397 499 526 575 472 m 94 824 b 363 954 175 913 263 954 b 724 422 668 954 724 664 b 406 -18 724 189 644 -18 b 97 308 219 -18 97 113 b 386 606 97 486 213 606 b 581 544 464 606 528 581 b 371 824 567 699 510 824 b 192 731 300 824 247 796 l 154 767 b 371 874 213 833 278 874 b 635 443 553 874 635 694 b 388 560 572 513 500 560 b 147 308 242 560 147 454 b 406 32 147 140 250 32 b 672 422 607 32 672 213 b 363 904 672 592 644 904 b 131 789 282 904 203 872 m 583 385 b 406 479 543 440 488 479 b 238 297 289 479 238 403 b 403 113 238 179 297 113 b 583 368 529 113 583 229 "},"∫":{"ha":682,"x_min":0,"x_max":0,"o":"m 414 -37 b 150 -307 414 -204 315 -307 b 15 -286 100 -307 56 -301 l 31 -235 b 150 -257 65 -250 103 -257 b 363 -37 294 -257 363 -185 l 363 685 b 540 874 363 792 408 874 b 650 854 583 874 619 867 l 632 807 b 540 824 606 818 576 824 b 414 685 447 824 414 767 m 328 -37 b 150 -226 328 -144 282 -226 b 40 -207 107 -226 71 -219 l 58 -160 b 150 -176 85 -171 114 -176 b 276 -37 243 -176 276 -119 l 276 685 b 540 954 276 851 375 954 b 675 933 590 954 635 949 l 660 882 b 540 904 625 897 588 904 b 328 685 396 904 328 832 "},"√":{"ha":885,"x_min":0,"x_max":0,"o":"m 408 0 l 176 747 l 51 747 l 51 804 l 225 804 l 446 74 l 450 74 l 738 992 l 803 992 l 483 0 "},"∑":{"ha":868,"x_min":0,"x_max":0,"o":"m 215 850 l 747 850 l 747 800 l 311 800 l 578 288 l 283 -153 l 775 -153 l 775 -203 l 188 -203 l 517 288 m 472 288 b 146 -200 374 135 246 -47 l 146 -239 l 775 -239 l 775 -289 l 94 -289 l 94 -183 l 408 288 l 122 831 l 122 936 l 747 936 l 747 886 l 174 886 l 174 847 b 472 288 274 694 374 440 "},"∏":{"ha":1082,"x_min":0,"x_max":0,"o":"m 797 -287 l 797 800 l 286 800 l 286 -287 l 235 -287 l 235 850 l 849 850 l 849 -287 m 886 -287 l 886 888 l 197 888 l 197 -287 l 146 -287 l 146 936 l 938 936 l 938 -287 "},"π":{"ha":867,"x_min":0,"x_max":0,"o":"m 560 0 l 560 538 l 307 538 l 307 0 l 260 0 l 260 588 l 606 588 l 607 0 m 226 588 l 226 0 l 179 0 l 179 538 l 40 538 l 40 588 m 826 588 l 826 538 l 688 538 l 688 0 l 640 0 l 639 588 m 40 621 l 40 671 l 826 671 l 826 621 "},"µ":{"ha":760,"x_min":0,"x_max":0,"o":"m 81 -289 l 81 671 l 128 671 l 128 -289 m 681 281 b 381 -18 681 47 529 -18 b 207 26 311 -18 244 1 l 207 -289 l 160 -289 l 160 138 b 381 32 200 60 290 32 b 633 281 474 32 633 63 l 633 671 l 681 671 m 381 65 b 160 281 246 65 160 140 l 160 671 l 207 671 l 207 281 b 381 113 207 164 278 113 b 554 281 483 113 554 161 l 554 671 l 601 671 l 601 281 b 381 65 601 140 515 65 "},"°":{"ha":508,"x_min":0,"x_max":0,"o":"m 254 571 b 63 765 132 571 63 657 b 254 954 63 856 125 954 b 446 760 378 954 446 867 b 254 571 446 668 382 571 m 254 624 b 392 758 339 624 392 686 b 254 901 392 844 338 901 b 115 764 165 901 115 835 b 254 624 115 676 174 624 "},"ℓ":{"ha":694,"x_min":0,"x_max":0,"o":"m 397 -18 b 122 246 250 -18 161 76 b -10 208 81 232 38 219 l -28 261 b 111 301 22 274 69 288 b 100 478 103 354 100 414 b 388 954 100 781 207 954 b 590 713 514 954 590 843 b 185 269 590 544 489 385 b 404 39 214 125 279 39 b 621 178 503 39 583 119 l 658 139 b 397 -18 611 68 521 -18 m 168 479 b 176 326 168 424 171 372 b 528 711 443 433 528 574 b 385 896 528 808 474 896 b 168 479 246 896 168 735 "},"℮":{"ha":1258,"x_min":0,"x_max":0,"o":"m 628 -18 b 104 468 339 -18 104 176 b 628 956 104 754 338 956 b 1154 431 917 956 1160 769 l 239 431 l 239 233 b 629 36 322 100 478 36 b 1008 228 799 36 929 111 l 1085 226 b 628 -18 1001 88 842 -18 m 631 903 b 239 700 468 903 319 831 l 239 492 l 1022 490 l 1022 708 b 631 903 936 840 785 903 "},"&":{"ha":1119,"x_min":0,"x_max":0,"o":"m 474 522 b 233 701 321 522 233 585 b 450 874 233 806 313 874 b 679 772 556 874 625 838 l 644 736 b 450 824 592 797 536 824 b 283 701 340 824 283 776 b 474 572 283 610 360 572 l 561 572 l 561 522 m 926 419 b 939 331 933 396 939 358 b 493 -18 939 89 740 -18 b 104 279 233 -18 104 100 b 257 515 104 401 165 475 b 144 703 185 556 144 615 b 450 954 144 864 265 954 b 736 829 575 954 661 911 l 701 794 b 450 904 638 868 560 904 b 194 703 297 904 194 831 b 358 508 194 606 258 533 b 156 279 243 483 156 410 b 493 32 156 132 269 32 b 886 328 693 32 886 113 b 861 446 886 367 876 408 l 1076 538 l 1093 490 m 600 368 l 583 415 l 1047 614 l 1064 567 m 629 292 l 613 339 l 828 431 b 850 324 842 397 850 360 b 500 63 850 135 665 63 b 193 279 321 63 193 132 b 476 489 193 415 293 489 l 561 489 l 561 439 l 476 439 b 244 279 324 439 244 393 b 500 113 244 164 349 113 b 799 317 715 113 799 213 b 794 361 799 332 797 347 "},"ﬁ":{"ha":1281,"x_min":0,"x_max":0,"o":"m 236 464 l 236 850 l 756 850 l 756 800 l 288 800 l 288 513 l 714 513 l 714 464 m 288 381 l 288 0 l 236 0 l 236 429 l 714 429 l 714 381 m 146 0 l 146 936 l 756 936 l 756 886 l 197 886 l 197 0 m 1083 0 l 1083 936 l 1135 936 l 1135 0 m 994 0 l 994 936 l 1046 936 l 1046 0 "},"ﬂ":{"ha":1690,"x_min":0,"x_max":0,"o":"m 236 464 l 236 850 l 756 850 l 756 800 l 288 800 l 288 513 l 714 513 l 714 464 m 288 381 l 288 0 l 236 0 l 236 429 l 714 429 l 714 381 m 146 0 l 146 936 l 756 936 l 756 886 l 197 886 l 197 0 m 1085 86 l 1085 936 l 1136 936 l 1136 136 l 1614 136 l 1614 86 m 994 0 l 994 936 l 1046 936 l 1046 50 l 1614 50 l 1614 0 "},"":{"ha":1026,"x_min":0,"x_max":0,"o":"m 236 415 l 236 610 b 514 869 236 768 329 869 b 790 608 693 869 790 763 l 790 415 m 739 608 b 515 819 739 732 661 819 b 288 610 365 819 288 736 l 288 464 l 739 464 m 829 0 l 829 617 b 514 904 829 793 711 904 b 197 617 310 904 197 794 l 197 0 l 146 0 l 146 617 b 514 954 146 829 279 954 b 881 617 742 954 881 828 l 881 0 m 739 0 l 739 332 l 288 332 l 288 0 l 236 0 l 236 381 l 790 381 l 790 0 "},"":{"ha":964,"x_min":0,"x_max":0,"o":"m 469 449 l 469 497 l 896 497 b 490 -18 896 142 768 -18 b 63 467 221 -18 63 175 b 496 954 63 715 200 954 b 846 792 658 954 769 892 l 808 758 b 496 904 717 864 640 904 b 115 467 236 904 115 690 b 490 32 115 206 254 32 b 844 449 718 32 844 160 m 469 365 l 469 414 l 801 414 b 500 65 801 178 688 65 b 158 468 275 65 158 221 b 499 869 158 668 264 869 b 779 733 614 869 700 835 l 739 697 b 499 819 682 776 603 819 b 211 468 300 819 211 643 b 500 115 211 253 310 115 b 750 365 660 115 744 210 "},"":{"ha":1042,"x_min":0,"x_max":0,"o":"m 522 67 b 158 468 267 67 158 271 b 519 869 158 667 264 869 b 883 468 775 869 883 665 b 522 67 883 269 778 67 m 522 117 b 831 468 738 117 831 294 b 519 819 831 639 736 819 b 211 468 304 819 211 642 b 522 117 211 297 306 117 m 522 32 b 926 467 794 32 926 240 b 519 904 926 696 793 904 b 115 469 247 904 115 696 b 522 32 115 240 249 32 m 522 -18 b 63 469 214 -18 63 214 b 519 954 63 722 211 954 b 979 467 826 954 979 722 b 522 -18 979 214 831 -18 m 475 -125 b 904 -290 628 -125 736 -290 b 1103 -150 1008 -290 1061 -232 l 1150 -172 b 908 -336 1099 -268 1024 -336 b 478 -171 724 -336 611 -171 b 353 -271 399 -171 378 -217 l 306 -250 b 475 -125 336 -183 375 -125 m 901 -260 b 472 -94 751 -260 640 -94 b 274 -235 368 -94 315 -153 l 226 -212 b 468 -49 278 -117 353 -49 b 899 -214 651 -49 765 -214 b 1024 -114 978 -214 999 -168 l 1071 -135 b 901 -260 1040 -201 1001 -260 "},"":{"ha":956,"x_min":0,"x_max":0,"o":"m 236 454 l 236 853 l 499 853 b 707 657 615 853 707 781 b 490 454 707 515 614 454 m 490 503 b 656 657 586 503 656 553 b 499 803 656 750 588 803 l 288 803 l 288 503 m 936 26 b 800 -18 901 3 849 -18 b 579 190 683 -18 639 68 b 375 374 504 342 465 374 l 288 374 l 288 0 l 236 0 l 236 422 l 375 422 b 626 214 489 422 540 389 b 801 31 679 108 718 31 b 917 68 844 31 883 47 m 904 101 b 808 68 879 83 842 68 b 665 226 751 68 728 101 b 514 422 618 322 563 394 b 747 658 624 431 747 494 b 503 888 747 801 638 888 l 197 888 l 197 0 l 146 0 l 146 936 l 503 936 b 799 658 665 936 799 836 b 617 394 799 513 718 428 b 711 251 646 364 675 322 b 817 117 764 147 785 117 b 888 143 840 117 864 126 "},"":{"ha":890,"x_min":0,"x_max":0,"o":"m 463 0 l 463 250 b 808 869 463 494 593 869 b 861 864 825 869 842 868 l 853 815 b 810 821 839 818 824 821 b 514 250 644 821 514 536 l 514 0 m 867 899 b 814 903 847 901 829 903 b 444 413 582 903 479 607 b 69 903 418 604 306 903 b 17 899 54 903 36 901 l 8 949 b 67 954 28 953 47 954 b 446 569 267 954 394 783 b 817 954 499 783 626 954 b 875 949 836 954 856 953 m 374 0 l 374 250 b 74 817 374 529 232 817 b 31 811 60 817 44 814 l 22 863 b 75 868 42 867 58 868 b 425 250 288 868 425 517 l 425 0 "},"":{"ha":1026,"x_min":0,"x_max":0,"o":"m 236 415 l 236 610 b 514 869 236 768 329 869 b 790 608 693 869 790 763 l 790 415 m 739 608 b 515 819 739 732 661 819 b 288 610 365 819 288 736 l 288 464 l 739 464 m 829 0 l 829 617 b 514 904 829 793 711 904 b 197 617 310 904 197 794 l 197 0 l 146 0 l 146 617 b 478 953 146 818 265 942 l 397 1057 l 500 1057 l 581 950 b 881 617 768 928 881 806 l 881 0 m 739 0 l 739 332 l 288 332 l 288 0 l 236 0 l 236 381 l 790 381 l 790 0 "},"":{"ha":1026,"x_min":0,"x_max":0,"o":"m 236 415 l 236 610 b 514 869 236 768 329 869 b 790 608 693 869 790 763 l 790 415 m 739 608 b 515 819 739 732 661 819 b 288 610 365 819 288 736 l 288 464 l 739 464 m 829 0 l 829 617 b 514 904 829 793 711 904 b 197 617 310 904 197 794 l 197 0 l 146 0 l 146 617 b 440 950 146 806 251 926 l 522 1057 l 625 1057 l 544 953 b 881 617 754 942 881 818 l 881 0 m 739 0 l 739 332 l 288 332 l 288 0 l 236 0 l 236 381 l 790 381 l 790 0 "},"":{"ha":1026,"x_min":0,"x_max":0,"o":"m 236 415 l 236 610 b 514 869 236 768 329 869 b 790 608 693 869 790 763 l 790 415 m 739 608 b 515 819 739 732 661 819 b 288 610 365 819 288 736 l 288 464 l 739 464 m 651 936 b 881 617 796 894 881 781 l 881 0 l 829 0 l 829 617 b 514 904 829 793 711 904 b 197 617 310 904 197 794 l 197 0 l 146 0 l 146 617 b 374 936 146 782 226 894 l 363 936 l 468 1057 l 557 1057 l 663 936 m 739 0 l 739 332 l 288 332 l 288 0 l 236 0 l 236 381 l 790 381 l 790 0 m 514 954 b 549 953 525 954 538 954 l 513 1000 l 475 953 b 514 954 488 954 500 954 "},"":{"ha":1026,"x_min":0,"x_max":0,"o":"m 236 415 l 236 610 b 514 869 236 768 329 869 b 790 608 693 869 790 763 l 790 415 m 615 1057 l 690 1057 b 636 940 686 1010 674 961 b 881 617 790 901 881 786 l 881 0 l 829 0 l 829 617 b 514 904 829 793 711 904 b 197 617 310 904 197 794 l 197 0 l 146 0 l 146 617 b 374 936 146 782 226 894 l 336 936 b 433 1063 342 997 361 1063 b 514 1040 461 1063 485 1054 l 607 996 m 739 608 b 515 819 739 732 661 819 b 288 610 365 819 288 736 l 288 464 l 739 464 m 739 0 l 739 332 l 288 332 l 288 0 l 236 0 l 236 381 l 790 381 l 790 0 m 413 944 b 510 954 442 950 475 954 l 419 997 l 413 944 "},"":{"ha":1026,"x_min":0,"x_max":0,"o":"m 236 415 l 236 610 b 514 869 236 768 329 869 b 790 608 693 869 790 763 l 790 415 m 739 608 b 515 819 739 732 661 819 b 288 610 365 819 288 736 l 288 464 l 739 464 m 651 936 b 881 617 796 894 881 781 l 881 0 l 829 0 l 829 617 b 514 904 829 793 711 904 b 197 617 310 904 197 794 l 197 0 l 146 0 l 146 617 b 374 936 146 782 226 894 l 372 936 l 372 1043 l 472 1043 l 472 953 b 514 954 485 953 500 954 b 553 953 526 954 540 953 l 553 1043 l 653 1043 l 653 936 m 739 0 l 739 332 l 288 332 l 288 0 l 236 0 l 236 381 l 790 381 l 790 0 "},"":{"ha":1026,"x_min":0,"x_max":0,"o":"m 236 415 l 236 610 b 514 869 236 768 329 869 b 790 608 693 869 790 763 l 790 415 m 739 608 b 515 819 739 732 661 819 b 288 610 365 819 288 736 l 288 464 l 739 464 m 651 936 b 881 617 796 894 881 781 l 881 0 l 829 0 l 829 617 b 514 904 829 793 711 904 b 197 617 310 904 197 794 l 197 0 l 146 0 l 146 617 b 374 936 146 782 226 894 l 344 936 l 344 1013 l 681 1013 l 681 936 m 739 0 l 739 332 l 288 332 l 288 0 l 236 0 l 236 381 l 790 381 l 790 0 "},"":{"ha":1026,"x_min":0,"x_max":0,"o":"m 236 415 l 236 610 b 514 869 236 768 329 869 b 790 608 693 869 790 763 l 790 415 m 739 608 b 515 819 739 732 661 819 b 288 610 365 819 288 736 l 288 464 l 739 464 m 686 1057 b 608 946 683 1001 656 964 b 881 617 779 914 881 796 l 881 0 l 829 0 l 829 617 b 514 904 829 793 711 904 b 197 617 310 904 197 794 l 197 0 l 146 0 l 146 617 b 417 946 146 797 243 915 b 339 1057 369 964 342 1000 l 408 1057 b 513 996 413 1014 449 996 b 617 1057 575 996 613 1014 m 739 0 l 739 332 l 288 332 l 288 0 l 236 0 l 236 381 l 790 381 l 790 0 "},"":{"ha":1026,"x_min":0,"x_max":0,"o":"m 236 415 l 236 610 b 514 869 236 768 329 869 b 790 608 693 869 790 763 l 790 415 m 626 1025 b 588 949 626 990 613 964 b 881 617 771 924 881 804 l 881 0 l 829 0 l 829 617 b 514 904 829 793 711 904 b 197 617 310 904 197 794 l 197 0 l 146 0 l 146 617 b 438 949 146 804 250 924 b 399 1025 413 964 399 990 b 513 1118 399 1086 442 1118 b 626 1025 583 1118 626 1085 m 739 608 b 515 819 739 732 661 819 b 288 610 365 819 288 736 l 288 464 l 739 464 m 739 0 l 739 332 l 288 332 l 288 0 l 236 0 l 236 381 l 790 381 l 790 0 m 563 1025 b 513 1067 563 1049 547 1067 b 464 1025 479 1067 464 1049 b 513 985 464 1003 479 985 b 563 1025 547 985 563 1000 "},"":{"ha":1026,"x_min":0,"x_max":0,"o":"m 236 415 l 236 610 b 514 869 236 768 329 869 b 790 608 693 869 790 763 l 790 415 m 626 1025 b 588 949 626 990 613 964 b 881 617 771 924 881 804 l 881 0 l 829 0 l 829 617 b 514 904 829 793 711 904 b 197 617 310 904 197 794 l 197 0 l 146 0 l 146 617 b 438 949 146 804 250 924 b 399 1025 413 964 399 990 b 467 1113 399 1071 424 1101 l 551 1224 l 654 1224 l 565 1110 b 626 1025 604 1097 626 1068 m 739 608 b 515 819 739 732 661 819 b 288 610 365 819 288 736 l 288 464 l 739 464 m 739 0 l 739 332 l 288 332 l 288 0 l 236 0 l 236 381 l 790 381 l 790 0 m 563 1025 b 513 1067 563 1049 547 1067 b 464 1025 479 1067 464 1049 b 513 985 464 1003 479 985 b 563 1025 547 985 563 1000 "},"":{"ha":1026,"x_min":0,"x_max":0,"o":"m 236 415 l 236 610 b 514 869 236 768 329 869 b 790 608 693 869 790 763 l 790 415 m 829 0 l 829 617 b 514 904 829 793 711 904 b 197 617 310 904 197 794 l 197 0 l 146 0 l 146 617 b 514 954 146 829 279 954 b 881 617 742 954 881 828 l 881 0 l 838 0 l 807 -61 l 875 -67 l 882 -125 b 829 -131 864 -129 850 -131 b 736 -54 767 -131 736 -100 b 757 0 736 -35 744 -15 l 739 0 l 739 332 l 288 332 l 288 0 l 236 0 l 236 381 l 790 381 l 790 0 m 739 608 b 515 819 739 732 661 819 b 288 610 365 819 288 736 l 288 464 l 739 464 "},"":{"ha":964,"x_min":0,"x_max":0,"o":"m 636 936 b 846 792 725 910 793 860 l 808 758 b 496 904 717 864 640 904 b 115 467 236 904 115 690 b 490 32 115 206 254 32 b 844 449 718 32 844 160 l 469 449 l 469 497 l 896 497 b 490 -18 896 142 768 -18 b 63 467 221 -18 63 175 b 364 936 63 675 158 876 l 350 936 l 456 1057 l 544 1057 l 650 936 m 469 365 l 469 414 l 801 414 b 500 65 801 178 688 65 b 158 468 275 65 158 221 b 499 869 158 668 264 869 b 779 733 614 869 700 835 l 739 697 b 499 819 682 776 603 819 b 211 468 300 819 211 643 b 500 115 211 253 310 115 b 750 365 660 115 744 210 m 496 954 b 538 953 510 954 524 953 l 500 1000 l 463 953 b 496 954 474 953 485 954 "},"":{"ha":964,"x_min":0,"x_max":0,"o":"m 674 1057 b 594 946 671 1000 642 964 b 846 792 706 925 786 869 l 808 758 b 496 904 717 864 640 904 b 115 467 236 904 115 690 b 490 32 115 206 254 32 b 844 449 718 32 844 160 l 469 449 l 469 497 l 896 497 b 490 -18 896 142 768 -18 b 63 467 221 -18 63 175 b 404 946 63 688 171 901 b 326 1057 357 964 329 1000 l 396 1057 b 500 996 400 1014 436 996 b 604 1057 563 996 600 1014 m 469 365 l 469 414 l 801 414 b 500 65 801 178 688 65 b 158 468 275 65 158 221 b 499 869 158 668 264 869 b 779 733 614 869 700 835 l 739 697 b 499 819 682 776 603 819 b 211 468 300 819 211 643 b 500 115 211 253 310 115 b 750 365 660 115 744 210 "},"":{"ha":964,"x_min":0,"x_max":0,"o":"m 469 449 l 469 497 l 896 497 b 490 -18 896 142 768 -18 b 63 467 221 -18 63 175 b 446 951 63 700 185 925 l 446 1043 l 546 1043 l 546 951 b 846 792 681 940 778 881 l 808 758 b 496 904 717 864 640 904 b 115 467 236 904 115 690 b 490 32 115 206 254 32 b 844 449 718 32 844 160 m 469 365 l 469 414 l 801 414 b 500 65 801 178 688 65 b 158 468 275 65 158 221 b 499 869 158 668 264 869 b 779 733 614 869 700 835 l 739 697 b 499 819 682 776 603 819 b 211 468 300 819 211 643 b 500 115 211 253 310 115 b 750 365 660 115 744 210 "},"":{"ha":964,"x_min":0,"x_max":0,"o":"m 469 449 l 469 497 l 896 497 b 490 -18 896 142 768 -18 b 63 467 221 -18 63 175 b 496 954 63 715 200 954 b 846 792 658 954 769 892 l 808 758 b 496 904 717 864 640 904 b 115 467 236 904 115 690 b 490 32 115 206 254 32 b 844 449 718 32 844 160 m 469 365 l 469 414 l 801 414 b 500 65 801 178 688 65 b 158 468 275 65 158 221 b 499 869 158 668 264 869 b 779 733 614 869 700 835 l 739 697 b 499 819 682 776 603 819 b 211 468 300 819 211 643 b 500 115 211 253 310 115 b 750 365 660 115 744 210 m 383 -121 l 444 -43 l 546 -43 l 486 -121 "},"":{"ha":956,"x_min":0,"x_max":0,"o":"m 236 454 l 236 853 l 499 853 b 707 657 615 853 707 781 b 490 454 707 515 614 454 m 904 101 b 808 68 879 83 842 68 b 665 226 751 68 728 101 b 514 422 618 322 563 394 b 747 658 624 431 747 494 b 503 888 747 801 638 888 l 197 888 l 197 0 l 146 0 l 146 936 l 375 936 l 467 1057 l 569 1057 l 475 936 l 503 936 b 799 658 665 936 799 836 b 617 394 799 513 718 428 b 711 251 646 364 675 322 b 817 117 764 147 785 117 b 888 143 840 117 864 126 m 490 503 b 656 657 586 503 656 553 b 499 803 656 750 588 803 l 288 803 l 288 503 m 936 26 b 800 -18 901 3 849 -18 b 579 190 683 -18 639 68 b 375 374 504 342 465 374 l 288 374 l 288 0 l 236 0 l 236 422 l 375 422 b 626 214 489 422 540 389 b 801 31 679 108 718 31 b 917 68 844 31 883 47 "},"":{"ha":956,"x_min":0,"x_max":0,"o":"m 236 454 l 236 853 l 499 853 b 707 657 615 853 707 781 b 490 454 707 515 614 454 m 503 936 b 799 658 665 936 799 836 b 617 394 799 513 718 428 b 711 251 646 364 675 322 b 817 117 764 147 785 117 b 888 143 840 117 864 126 l 904 101 b 808 68 879 83 842 68 b 665 226 751 68 728 101 b 514 422 618 322 563 394 b 747 658 624 431 747 494 b 503 888 747 801 638 888 l 197 888 l 197 0 l 146 0 l 146 936 l 375 936 l 269 1057 l 369 1057 l 419 993 l 469 1057 l 569 1057 l 464 936 m 490 503 b 656 657 586 503 656 553 b 499 803 656 750 588 803 l 288 803 l 288 503 m 936 26 b 800 -18 901 3 849 -18 b 579 190 683 -18 639 68 b 375 374 504 342 465 374 l 288 374 l 288 0 l 236 0 l 236 422 l 375 422 b 626 214 489 422 540 389 b 801 31 679 108 718 31 b 917 68 844 31 883 47 "},"":{"ha":956,"x_min":0,"x_max":0,"o":"m 236 454 l 236 853 l 499 853 b 707 657 615 853 707 781 b 490 454 707 515 614 454 m 490 503 b 656 657 586 503 656 553 b 499 803 656 750 588 803 l 288 803 l 288 503 m 936 26 b 800 -18 901 3 849 -18 b 579 190 683 -18 639 68 b 375 374 504 342 465 374 l 288 374 l 288 0 l 236 0 l 236 422 l 375 422 b 626 214 489 422 540 389 b 801 31 679 108 718 31 b 917 68 844 31 883 47 m 904 101 b 808 68 879 83 842 68 b 665 226 751 68 728 101 b 514 422 618 322 563 394 b 747 658 624 431 747 494 b 503 888 747 801 638 888 l 197 888 l 197 0 l 146 0 l 146 936 l 503 936 b 799 658 665 936 799 836 b 617 394 799 513 718 428 b 711 251 646 364 675 322 b 817 117 764 147 785 117 b 888 143 840 117 864 126 m 357 -121 l 418 -43 l 519 -43 l 460 -121 "},"":{"ha":890,"x_min":0,"x_max":0,"o":"m 463 0 l 463 250 b 808 869 463 494 593 869 b 861 864 825 869 842 868 l 853 815 b 810 821 839 818 824 821 b 514 250 644 821 514 536 l 514 0 m 867 899 b 814 903 847 901 829 903 b 444 413 582 903 479 607 b 69 903 418 604 306 903 b 17 899 54 903 36 901 l 8 949 b 67 954 28 953 47 954 b 446 569 267 954 394 783 b 817 954 499 783 626 954 b 875 949 836 954 856 953 m 374 0 l 374 250 b 74 817 374 529 232 817 b 31 811 60 817 44 814 l 22 863 b 75 868 42 867 58 868 b 425 250 288 868 425 517 l 425 0 m 442 936 l 347 1057 l 450 1057 l 542 936 "},"":{"ha":890,"x_min":0,"x_max":0,"o":"m 463 0 l 463 250 b 808 869 463 494 593 869 b 861 864 825 869 842 868 l 853 815 b 810 821 839 818 824 821 b 514 250 644 821 514 536 l 514 0 m 867 899 b 814 903 847 901 829 903 b 444 413 582 903 479 607 b 69 903 418 604 306 903 b 17 899 54 903 36 901 l 8 949 b 67 954 28 953 47 954 b 446 569 267 954 394 783 b 817 954 499 783 626 954 b 875 949 836 954 856 953 m 374 0 l 374 250 b 74 817 374 529 232 817 b 31 811 60 817 44 814 l 22 863 b 75 868 42 867 58 868 b 425 250 288 868 425 517 l 425 0 m 347 936 l 439 1057 l 542 1057 l 447 936 "},"":{"ha":890,"x_min":0,"x_max":0,"o":"m 463 0 l 463 250 b 808 869 463 494 593 869 b 861 864 825 869 842 868 l 853 815 b 810 821 839 818 824 821 b 514 250 644 821 514 536 l 514 0 m 867 899 b 814 903 847 901 829 903 b 444 413 582 903 479 607 b 69 903 418 604 306 903 b 17 899 54 903 36 901 l 8 949 b 67 954 28 953 47 954 b 446 569 267 954 394 783 b 817 954 499 783 626 954 b 875 949 836 954 856 953 m 374 0 l 374 250 b 74 817 374 529 232 817 b 31 811 60 817 44 814 l 22 863 b 75 868 42 867 58 868 b 425 250 288 868 425 517 l 425 0 m 494 936 l 444 1000 l 394 936 l 294 936 l 400 1057 l 489 1057 l 594 936 "},"":{"ha":890,"x_min":0,"x_max":0,"o":"m 463 0 l 463 250 b 808 869 463 494 593 869 b 861 864 825 869 842 868 l 853 815 b 810 821 839 818 824 821 b 514 250 644 821 514 536 l 514 0 m 867 899 b 814 903 847 901 829 903 b 444 413 582 903 479 607 b 69 903 418 604 306 903 b 17 899 54 903 36 901 l 8 949 b 67 954 28 953 47 954 b 446 569 267 954 394 783 b 817 954 499 783 626 954 b 875 949 836 954 856 953 m 374 0 l 374 250 b 74 817 374 529 232 817 b 31 811 60 817 44 814 l 22 863 b 75 868 42 867 58 868 b 425 250 288 868 425 517 l 425 0 m 304 936 l 304 1043 l 404 1043 l 404 936 m 485 936 l 485 1043 l 585 1043 l 585 936 "},"":{"ha":694,"x_min":0,"x_max":0,"o":"m 151 301 l 322 133 l 322 218 l 208 368 l 208 471 l 489 192 l 489 107 l 543 50 l 543 397 l 489 451 l 489 346 l 208 625 l 208 715 l 322 640 l 322 715 l 151 883 m 114 0 l 114 938 l 583 938 l 583 0 "},"":{"ha":694,"x_min":0,"x_max":0,"o":"m 151 301 l 322 133 l 322 218 l 208 368 l 208 471 l 489 192 l 489 107 l 543 50 l 543 397 l 489 451 l 489 346 l 208 625 l 208 715 l 322 640 l 322 715 l 151 883 m 114 0 l 114 938 l 583 938 l 583 0 "},"":{"ha":694,"x_min":0,"x_max":0,"o":"m 151 301 l 322 133 l 322 218 l 208 368 l 208 471 l 489 192 l 489 107 l 543 50 l 543 397 l 489 451 l 489 346 l 208 625 l 208 715 l 322 640 l 322 715 l 151 883 m 114 0 l 114 938 l 583 938 l 583 0 "},"":{"ha":694,"x_min":0,"x_max":0,"o":"m 151 301 l 322 133 l 322 218 l 208 368 l 208 471 l 489 192 l 489 107 l 543 50 l 543 397 l 489 451 l 489 346 l 208 625 l 208 715 l 322 640 l 322 715 l 151 883 m 114 0 l 114 938 l 583 938 l 583 0 "},"":{"ha":694,"x_min":0,"x_max":0,"o":"m 151 301 l 322 133 l 322 218 l 208 368 l 208 471 l 489 192 l 489 107 l 543 50 l 543 397 l 489 451 l 489 346 l 208 625 l 208 715 l 322 640 l 322 715 l 151 883 m 114 0 l 114 938 l 583 938 l 583 0 "},"":{"ha":694,"x_min":0,"x_max":0,"o":"m 151 301 l 322 133 l 322 218 l 208 368 l 208 471 l 489 192 l 489 107 l 543 50 l 543 397 l 489 451 l 489 346 l 208 625 l 208 715 l 322 640 l 322 715 l 151 883 m 114 0 l 114 938 l 583 938 l 583 0 "},"":{"ha":694,"x_min":0,"x_max":0,"o":"m 151 301 l 322 133 l 322 218 l 208 368 l 208 471 l 489 192 l 489 107 l 543 50 l 543 397 l 489 451 l 489 346 l 208 625 l 208 715 l 322 640 l 322 715 l 151 883 m 114 0 l 114 938 l 583 938 l 583 0 "},"":{"ha":694,"x_min":0,"x_max":0,"o":"m 151 301 l 322 133 l 322 218 l 208 368 l 208 471 l 489 192 l 489 107 l 543 50 l 543 397 l 489 451 l 489 346 l 208 625 l 208 715 l 322 640 l 322 715 l 151 883 m 114 0 l 114 938 l 583 938 l 583 0 "},"":{"ha":694,"x_min":0,"x_max":0,"o":"m 151 301 l 322 133 l 322 218 l 208 368 l 208 471 l 489 192 l 489 107 l 543 50 l 543 397 l 489 451 l 489 346 l 208 625 l 208 715 l 322 640 l 322 715 l 151 883 m 114 0 l 114 938 l 583 938 l 583 0 "},"":{"ha":694,"x_min":0,"x_max":0,"o":"m 151 301 l 322 133 l 322 218 l 208 368 l 208 471 l 489 192 l 489 107 l 543 50 l 543 397 l 489 451 l 489 346 l 208 625 l 208 715 l 322 640 l 322 715 l 151 883 m 114 0 l 114 938 l 583 938 l 583 0 "},"":{"ha":694,"x_min":0,"x_max":0,"o":"m 151 301 l 322 133 l 322 218 l 208 368 l 208 471 l 489 192 l 489 107 l 543 50 l 543 397 l 489 451 l 489 346 l 208 625 l 208 715 l 322 640 l 322 715 l 151 883 m 114 0 l 114 938 l 583 938 l 583 0 "},"":{"ha":694,"x_min":0,"x_max":0,"o":"m 151 301 l 322 133 l 322 218 l 208 368 l 208 471 l 489 192 l 489 107 l 543 50 l 543 397 l 489 451 l 489 346 l 208 625 l 208 715 l 322 640 l 322 715 l 151 883 m 114 0 l 114 938 l 583 938 l 583 0 "},"":{"ha":947,"x_min":0,"x_max":0,"o":"m 367 -121 l 449 -15 b 63 467 185 8 63 233 b 496 954 63 715 200 954 b 846 792 658 954 769 892 l 808 758 b 496 904 717 864 640 904 b 115 467 236 904 115 690 b 499 32 115 246 239 32 b 808 176 622 32 717 71 l 846 143 b 549 -15 769 51 675 -4 l 469 -121 m 779 201 b 501 67 693 97 611 67 b 158 468 269 67 158 267 b 499 869 158 668 264 869 b 779 733 614 869 700 835 l 739 697 b 499 819 682 776 603 819 b 211 468 300 819 211 643 b 499 117 211 293 300 117 b 739 239 597 117 668 147 "},"":{"ha":947,"x_min":0,"x_max":0,"o":"m 367 -121 l 449 -15 b 63 467 185 8 63 233 b 496 954 63 715 200 954 b 846 792 658 954 769 892 l 808 758 b 496 904 717 864 640 904 b 115 467 236 904 115 690 b 499 32 115 246 239 32 b 808 176 622 32 717 71 l 846 143 b 549 -15 769 51 675 -4 l 469 -121 m 779 201 b 501 67 693 97 611 67 b 158 468 269 67 158 267 b 499 869 158 668 264 869 b 779 733 614 869 700 835 l 739 697 b 499 819 682 776 603 819 b 211 468 300 819 211 643 b 499 117 211 293 300 117 b 739 239 597 117 668 147 "}}}
